<svg width="28" height="19" viewBox="0 0 28 19" fill="none" xmlns="http://www.w3.org/2000/svg">
<path fill-rule="evenodd" clip-rule="evenodd" d="M3.37049 9.57321L3.37022 9.57161L3.37049 9.57001C3.37375 9.54921 3.39234 9.43161 3.4963 9.20055C3.61068 8.94615 3.79622 8.62561 4.06168 8.25668C4.59202 7.51975 5.38526 6.66772 6.38782 5.8598C8.40596 4.23343 11.1195 2.90495 14.0365 2.90495C16.9534 2.90495 19.667 4.23343 21.6851 5.8598C22.6877 6.66772 23.4809 7.51975 24.0113 8.25668C24.2767 8.62561 24.4622 8.94615 24.5766 9.20055C24.6806 9.43161 24.6991 9.54921 24.7025 9.57001L24.7027 9.57161L24.7025 9.57321C24.6991 9.59401 24.6806 9.71161 24.5766 9.94268C24.4622 10.1971 24.2767 10.5176 24.0113 10.8865C23.4809 11.6235 22.6877 12.4755 21.6851 13.2835C19.667 14.9097 16.9534 16.2383 14.0365 16.2383C11.1195 16.2383 8.40596 14.9097 6.38782 13.2835C5.38526 12.4755 4.59202 11.6235 4.06168 10.8865C3.79622 10.5176 3.61068 10.1971 3.4963 9.94268C3.39234 9.71161 3.37375 9.59401 3.37049 9.57321ZM14.0365 0.238281C10.326 0.238281 7.03953 1.9098 4.71454 3.78343C3.54551 4.72551 2.58141 5.74841 1.89727 6.69901C1.5555 7.17388 1.26952 7.65028 1.06422 8.10681C0.867765 8.54361 0.703125 9.05415 0.703125 9.57161C0.703125 10.0891 0.867765 10.5996 1.06422 11.0364C1.26952 11.4929 1.5555 11.9693 1.89727 12.4441C2.58141 13.3948 3.54551 14.4177 4.71454 15.3597C7.03953 17.2335 10.326 18.9049 14.0365 18.9049C17.7469 18.9049 21.0334 17.2335 23.3583 15.3597C24.5274 14.4177 25.4915 13.3948 26.1757 12.4441C26.5174 11.9693 26.8034 11.4929 27.0087 11.0364C27.2051 10.5996 27.3698 10.0891 27.3698 9.57161C27.3698 9.05415 27.2051 8.54361 27.0087 8.10681C26.8034 7.65028 26.5174 7.17388 26.1757 6.69901C25.4915 5.74841 24.5274 4.72551 23.3583 3.78343C21.0334 1.9098 17.7469 0.238281 14.0365 0.238281ZM12.7031 9.57161C12.7031 8.83521 13.3001 8.23828 14.0365 8.23828C14.7729 8.23828 15.3698 8.83521 15.3698 9.57161C15.3698 10.308 14.7729 10.9049 14.0365 10.9049C13.3001 10.9049 12.7031 10.308 12.7031 9.57161ZM14.0365 5.57161C11.8273 5.57161 10.0365 7.36241 10.0365 9.57161C10.0365 11.7808 11.8273 13.5716 14.0365 13.5716C16.2457 13.5716 18.0365 11.7808 18.0365 9.57161C18.0365 7.36241 16.2457 5.57161 14.0365 5.57161Z" fill="#154193"/>
</svg>
