<svg width="25" height="25" viewBox="0 0 25 25" fill="none" xmlns="http://www.w3.org/2000/svg">
<path fill-rule="evenodd" clip-rule="evenodd" d="M9.64366 0.582704C10.3745 0.674038 10.8927 1.34042 10.8014 2.07112L10.1554 7.23893H15.4679L16.1553 1.74036C16.2466 1.00966 16.913 0.491358 17.6437 0.582704C18.3745 0.674038 18.8927 1.34042 18.8014 2.07112L18.1554 7.23893H22.8115C23.5479 7.23893 24.1449 7.83589 24.1449 8.57227C24.1449 9.30864 23.5479 9.9056 22.8115 9.9056H17.8221L17.1554 15.2389H22.1449C22.8813 15.2389 23.4782 15.8359 23.4782 16.5723C23.4782 17.3087 22.8813 17.9056 22.1449 17.9056H16.8221L16.1347 23.4044C16.0434 24.1352 15.377 24.6535 14.6463 24.5621C13.9157 24.4708 13.3973 23.8044 13.4886 23.0737L14.1346 17.9056H8.82206L8.1347 23.4044C8.04336 24.1352 7.37698 24.6535 6.64628 24.5621C5.91559 24.4708 5.39728 23.8044 5.48863 23.0737L6.13464 17.9056H2.14486C1.40848 17.9056 0.811523 17.3087 0.811523 16.5723C0.811523 15.8359 1.40848 15.2389 2.14486 15.2389H6.46798L7.13464 9.9056H2.81152C2.07515 9.9056 1.47819 9.30864 1.47819 8.57227C1.47819 7.83589 2.07515 7.23893 2.81152 7.23893H7.46798L8.1553 1.74036C8.24663 1.00966 8.91302 0.491358 9.64366 0.582704ZM14.4679 15.2389L15.1346 9.9056H9.82206L9.15539 15.2389H14.4679Z" fill="#154193"/>
</svg>
