<svg width="27" height="26" viewBox="0 0 27 26" fill="none" xmlns="http://www.w3.org/2000/svg">
<path d="M11.9375 1.15548C12.8402 0.453317 14.0818 0.409432 15.0269 1.02382L15.2117 1.15548L26.3901 9.84975C27.3524 10.5983 26.8836 12.1055 25.7256 12.2298L25.5707 12.238H24.2413V22.9046C24.2413 24.3105 23.1534 25.4622 21.7737 25.564L21.5747 25.5713H5.57461C4.1688 25.5713 3.01706 24.4835 2.91526 23.1036L2.90795 22.9046V12.238H1.57851C0.360681 12.238 -0.196824 10.7612 0.641737 9.95141L0.759092 9.84975L11.9375 1.15548ZM13.5747 3.26043L5.07516 9.87111C5.37987 10.118 5.57461 10.4953 5.57461 10.918V22.9046H9.57461V16.238C9.57461 14.0288 11.3655 12.238 13.5747 12.238C15.7837 12.238 17.5747 14.0288 17.5747 16.238V22.9046H21.5747V10.918C21.5747 10.4952 21.7693 10.118 22.074 9.87111L13.5747 3.26043ZM13.5747 14.9046C12.8383 14.9046 12.2413 15.5016 12.2413 16.238V22.9046H14.908V16.238C14.908 15.5016 14.3109 14.9046 13.5747 14.9046Z" fill="#154193"/>
</svg>
