<svg width="26" height="27" viewBox="0 0 26 27" fill="none" xmlns="http://www.w3.org/2000/svg">
<path d="M22.8342 26.5703H2.53245C2.50399 26.552 2.47314 26.5378 2.44078 26.528C1.76972 26.4265 1.16436 26.0682 0.752529 25.5287C0.340698 24.9893 0.154625 24.3109 0.233602 23.6368C0.332325 22.7413 0.515669 21.8527 0.663754 20.9642C1.2561 17.5019 1.84844 13.976 2.42667 10.4854C2.47584 9.94579 2.63674 9.42227 2.89914 8.94816C3.15635 8.54193 3.51761 8.21194 3.94541 7.99246C4.37321 7.77298 4.85196 7.67201 5.33197 7.70002H8.25136H8.51932C7.89878 6.04287 7.81416 5.58451 8.0116 4.4774C8.19438 3.36396 8.78513 2.35843 9.66875 1.65673C10.4422 1.01453 11.4008 0.636624 12.4044 0.57826C13.408 0.519897 14.404 0.78414 15.2466 1.33235C16.0772 1.84139 16.7205 2.6059 17.0801 3.51132C17.3564 4.18222 17.4771 4.90703 17.4332 5.63129C17.3892 6.35554 17.1817 7.06042 16.8262 7.69297H20.0841C20.7469 7.66009 21.398 7.87627 21.9095 8.29904C22.421 8.72181 22.7559 9.32059 22.8483 9.97771C22.9894 10.7393 23.1092 11.4938 23.2362 12.2554C23.8567 15.974 24.4796 19.6902 25.1049 23.4041C25.2123 23.9784 25.1276 24.5722 24.8637 25.0935C24.5999 25.6148 24.1716 26.0347 23.6452 26.2882C23.3818 26.4012 23.1108 26.4955 22.8342 26.5703ZM12.6728 3.39849C12.4125 3.39942 12.1551 3.45159 11.915 3.55202C11.6749 3.65246 11.457 3.79919 11.2737 3.98385C11.0903 4.16851 10.9452 4.38747 10.8464 4.62823C10.7477 4.869 10.6974 5.12685 10.6983 5.38707C10.6983 5.78097 10.8153 6.16599 11.0344 6.49331C11.2536 6.82063 11.565 7.07549 11.9292 7.22558C12.2934 7.37567 12.6939 7.41422 13.08 7.33634C13.4662 7.25846 13.8205 7.06766 14.098 6.78814C14.3755 6.50862 14.5638 6.15297 14.6389 5.7663C14.7141 5.37963 14.6727 4.97936 14.52 4.61625C14.3673 4.25314 14.1102 3.94355 13.7814 3.72675C13.4525 3.50995 13.0667 3.3957 12.6728 3.39849Z" fill="#FDF9F5"/>
</svg>
