<svg width="29" height="29" viewBox="0 0 29 29" fill="none" xmlns="http://www.w3.org/2000/svg">
<path d="M0.683594 17.3596C0.705466 17.3012 0.730256 17.2444 0.747754 17.1846C1.00585 16.3206 1.80129 15.8168 2.70755 15.9364C3.52705 16.0443 4.17521 16.7821 4.18323 17.6475C4.19198 19.1684 4.18323 20.69 4.18323 22.2109V22.5806C4.29332 22.477 4.36769 22.41 4.43841 22.3392C6.49979 20.2788 8.56045 18.2177 10.6204 16.1558C11.0673 15.7082 11.5893 15.4887 12.2244 15.5981C12.5221 15.6474 12.8019 15.7732 13.0363 15.9632C13.2707 16.1533 13.4517 16.401 13.5615 16.682C13.6714 16.9631 13.7063 17.2679 13.6628 17.5665C13.6193 17.8651 13.499 18.1473 13.3136 18.3854C13.2234 18.4987 13.1259 18.6061 13.022 18.7069C10.9873 20.7435 8.95221 22.7791 6.91659 24.8138C6.84878 24.8823 6.7839 24.9545 6.67453 25.0697H7.01502C8.55413 25.0697 10.094 25.0639 11.6331 25.0741C11.9973 25.0817 12.3499 25.2033 12.6414 25.4218C12.9328 25.6403 13.1485 25.9447 13.2579 26.2921C13.3674 26.6396 13.3652 27.0126 13.2516 27.3587C13.138 27.7048 12.9187 28.0066 12.6246 28.2215C12.4059 28.3732 12.1391 28.4556 11.8956 28.5693H2.16C1.70724 28.4425 1.28509 28.2522 1.02408 27.8402C0.884823 27.6215 0.795874 27.3773 0.683594 27.1447V17.3596Z" fill="#FDF9F5"/>
<path d="M28.681 11.7801C28.6497 11.8639 28.6161 11.9463 28.5877 12.0309C28.307 12.8569 27.5065 13.3352 26.6286 13.1974C26.2298 13.1289 25.8674 12.9233 25.604 12.6161C25.3406 12.3088 25.1927 11.9193 25.1858 11.5147C25.1748 9.9836 25.1814 8.45251 25.1814 6.92142V6.55688C25.0706 6.66186 24.9948 6.72894 24.9233 6.80039C22.8678 8.85594 20.8127 10.9112 18.7581 12.9663C18.2033 13.5219 17.5558 13.7158 16.8122 13.4431C15.7185 13.0414 15.3372 11.6809 16.0474 10.7535C16.1374 10.6399 16.2349 10.5322 16.339 10.4313C18.3683 8.40147 20.3978 6.37217 22.4276 4.34336C22.5079 4.27213 22.5918 4.20521 22.6792 4.14286L22.6383 4.06995H22.3533C20.8134 4.06995 19.2736 4.07578 17.7345 4.06557C17.3763 4.05992 17.0287 3.94367 16.7392 3.73275C16.4497 3.52182 16.2325 3.22654 16.1173 2.88736C15.8848 2.20493 16.0838 1.42918 16.6561 0.987352C16.8931 0.803621 17.1979 0.706652 17.4713 0.570312H27.2046C27.4503 0.678218 27.7113 0.759876 27.9374 0.899132C28.358 1.16015 28.5542 1.58521 28.681 2.04672V11.7801Z" fill="#FDF9F5"/>
<path d="M28.6815 2.04672C28.5546 1.58521 28.3585 1.16015 27.9378 0.899132C27.7118 0.759876 27.4508 0.680405 27.2051 0.570312H28.6815V2.04672Z" fill="#FDF9F5"/>
<path d="M0.683594 27.1445C0.795874 27.3771 0.884823 27.6243 1.02408 27.8401C1.28801 28.2491 1.70724 28.4394 2.16 28.5692H0.683594V27.1445Z" fill="#FDF9F5"/>
</svg>
