<svg width="41" height="41" viewBox="0 0 41 41" fill="none" xmlns="http://www.w3.org/2000/svg">
<path d="M19.5064 40.5701C18.748 40.4723 17.9846 40.392 17.231 40.258C12.6313 39.4409 8.77929 37.2657 5.6828 33.7782C2.8525 30.5863 1.19366 26.8434 0.785555 22.6015C0.25414 17.07 1.78379 12.1245 5.29329 7.81118C5.85798 7.11644 6.50879 6.48822 7.14198 5.85414C7.58532 5.41381 8.16469 5.49796 8.41425 6.00288C8.58845 6.35808 8.47493 6.66044 8.21852 6.92464C7.85445 7.29648 7.47277 7.65169 7.12045 8.03527C4.56222 10.8123 2.96896 14.0737 2.42286 17.8009C0.997925 27.4883 7.18994 36.4711 16.7114 38.6092C26.6184 40.8353 36.5049 34.5101 38.7313 24.5185C40.9343 14.6227 34.6307 4.73667 24.6474 2.53793C19.94 1.50168 15.4694 2.24438 11.2915 4.6672C11.0772 4.79147 10.8707 4.92846 10.6525 5.04295C10.2101 5.27486 9.78438 5.16918 9.5681 4.79343C9.35181 4.41767 9.47023 3.96951 9.90084 3.72586C10.7249 3.25519 11.5421 2.76495 12.4023 2.36963C15.1999 1.06764 18.2692 0.45654 21.3522 0.58774C27.0461 0.826499 31.8239 3.08003 35.6319 7.31703C38.5023 10.5109 40.1113 14.289 40.5869 18.5534C40.6182 18.8342 40.6505 19.116 40.6848 19.3969V21.7404C40.6525 22.0213 40.6202 22.3031 40.5869 22.5839C40.1083 26.8894 38.4642 30.6841 35.5624 33.9035C32.4826 37.3214 28.6658 39.4546 24.1248 40.2638C23.3722 40.3969 22.6088 40.4723 21.8513 40.575L19.5064 40.5701Z" fill="#FDF9F5"/>
<path d="M5.87 20.5752C6.0765 26.325 8.61026 30.7205 13.6259 33.5671C16.5981 35.254 19.8551 35.7834 23.2168 35.1327C29.0164 34.0064 32.9389 30.5806 34.7807 24.9942C36.1626 20.8052 35.6067 16.7218 33.3421 12.9036C33.2159 12.6913 33.0749 12.4858 32.9673 12.2637C32.8811 12.0974 32.8605 11.9049 32.9097 11.7242C32.9588 11.5436 33.074 11.3879 33.2325 11.2882C33.391 11.1885 33.5811 11.1519 33.7653 11.1858C33.9495 11.2197 34.1142 11.3215 34.2268 11.4711C34.4798 11.8177 34.7087 12.1812 34.9119 12.5592C37.4075 17.1925 37.8029 22.0049 35.731 26.8456C33.3587 32.3821 29.0908 35.7746 23.1248 36.6974C17.4417 37.578 12.5641 35.757 8.62983 31.5533C6.22623 28.9856 4.83946 25.9101 4.448 22.4168C4.04577 18.8286 4.7416 15.4448 6.60106 12.338C9.04772 8.25467 12.6022 5.65376 17.2489 4.61848C20.6938 3.85132 24.0507 4.23588 27.2871 5.64691C29.0053 6.4056 30.5794 7.4557 31.9397 8.75078C32.0276 8.8275 32.107 8.91346 32.1765 9.00715C32.2838 9.14884 32.3362 9.32452 32.3242 9.50182C32.3121 9.67912 32.2364 9.84609 32.1109 9.97197C31.9899 10.103 31.8243 10.1841 31.6465 10.1995C31.4688 10.2149 31.2917 10.1634 31.1499 10.0551C30.6606 9.67254 30.2035 9.24004 29.7113 8.85646C27.6161 7.23509 25.1232 6.2073 22.494 5.88087C19.8648 5.55444 17.1962 5.9414 14.768 7.00118C11.7775 8.29667 9.30179 10.5483 7.72946 13.4027C6.64409 15.3249 6.02089 17.4733 5.90914 19.6779C5.89642 19.9764 5.88566 20.2758 5.87 20.5752Z" fill="#FDF9F5"/>
<path d="M20.6887 10.453C18.698 10.4431 16.7498 11.0278 15.0936 12.1322C14.9635 12.2183 14.8382 12.3122 14.7022 12.3934C14.2735 12.6547 13.8312 12.598 13.5894 12.2545C13.333 11.8905 13.4142 11.4042 13.8507 11.14C14.6386 10.6644 15.4166 10.1262 16.2671 9.80623C20.9646 8.04489 25.2473 8.82771 28.8478 12.3201C31.8817 15.2556 32.9582 18.9613 32.0265 23.0838C31.0009 27.6183 28.1177 30.5206 23.656 31.8328C23.1471 31.9834 22.7517 31.8005 22.6127 31.3699C22.4738 30.9394 22.69 30.5303 23.2312 30.3777C24.4702 30.0284 25.6299 29.5185 26.6566 28.7416C29.1678 26.8452 30.5605 24.3294 30.767 21.1835C31.0498 16.8927 28.5699 12.9835 24.6992 11.2867C23.4348 10.7335 22.0689 10.4495 20.6887 10.453Z" fill="#FDF9F5"/>
<path d="M20.6983 27.9821C16.5018 27.9566 13.143 24.4594 13.3202 20.2645C13.3911 18.4046 14.1661 16.6412 15.4884 15.3312C16.8106 14.0211 18.5813 13.2623 20.4419 13.2083C21.0614 13.1858 21.4265 13.454 21.4372 13.9383C21.448 14.3933 21.0966 14.6879 20.5075 14.7211C17.1673 14.8924 14.66 17.6146 14.8312 20.8809C14.9058 22.3374 15.5221 23.7133 16.5592 24.7387C17.5964 25.7641 18.9793 26.3649 20.4367 26.4231C21.8941 26.4814 23.3206 25.9928 24.4363 25.0534C25.5519 24.114 26.2761 22.7916 26.4666 21.3457C26.4969 21.1138 26.5126 20.88 26.5292 20.6471C26.5674 20.1333 26.8923 19.7909 27.3229 19.8143C27.776 19.8378 28.0481 20.1764 28.0413 20.7087C28.0021 24.0582 25.6807 26.9429 22.3513 27.7453C21.814 27.8705 21.2513 27.9048 20.6983 27.9821Z" fill="#FDF9F5"/>
<path d="M11.7169 13.4531C12.3236 13.5275 12.6848 14.051 12.4753 14.5589C12.4004 14.7244 12.3103 14.8826 12.2062 15.0315C10.8855 17.0464 10.3287 19.4671 10.6363 21.8565C10.9439 24.2458 12.0957 26.4466 13.8836 28.0615C14.0285 28.1926 14.1772 28.3208 14.3084 28.4646C14.602 28.7875 14.6118 29.2181 14.3387 29.5234C14.0657 29.8287 13.6253 29.8512 13.2837 29.5664C12.9314 29.2776 12.5967 28.9678 12.2816 28.6388C9.95233 26.1592 8.87482 23.207 9.05196 19.8184C9.16016 17.7013 9.87342 15.6596 11.1072 13.9355C11.252 13.733 11.5123 13.6126 11.7169 13.4531Z" fill="#FDF9F5"/>
<path d="M20.6729 17.461C22.3503 17.4502 23.7919 18.8916 23.7851 20.5717C23.7782 22.2518 22.3954 23.6394 20.7033 23.6736C19.0395 23.7069 17.595 22.2822 17.5715 20.5825C17.55 18.9131 18.9837 17.4718 20.6729 17.461ZM22.2466 20.5531C22.2433 20.2445 22.1489 19.9438 21.9752 19.6887C21.8015 19.4336 21.5563 19.2355 21.2703 19.1193C20.9844 19.0031 20.6705 18.9741 20.3681 19.0357C20.0656 19.0973 19.7882 19.247 19.5705 19.4658C19.3529 19.6846 19.2048 19.9629 19.1448 20.2656C19.0848 20.5683 19.1157 20.882 19.2335 21.1673C19.3513 21.4525 19.5508 21.6966 19.8069 21.8689C20.063 22.0411 20.3643 22.1338 20.6729 22.1354C20.8809 22.1374 21.0871 22.0977 21.2795 22.0188C21.4719 21.9399 21.6466 21.8233 21.7932 21.6758C21.9399 21.5284 22.0555 21.3531 22.1334 21.1603C22.2113 20.9675 22.2498 20.761 22.2466 20.5531Z" fill="#FDF9F5"/>
</svg>
