<svg width="36" height="29" viewBox="0 0 36 29" fill="none" xmlns="http://www.w3.org/2000/svg">
<path d="M29.297 20.9876C30.5051 20.9876 31.4845 21.7712 31.4845 22.7376C31.4845 23.6472 30.6169 24.3948 29.5077 24.4796L29.297 24.4876H5.96368C4.75556 24.4876 3.77618 23.7041 3.77618 22.7376C3.77618 21.828 4.64373 21.0804 5.75301 20.9956L5.96368 20.9876H29.297ZM29.297 12.821C30.5051 12.821 31.4845 13.6045 31.4845 14.571C31.4845 15.5374 30.5051 16.321 29.297 16.321H5.96368C4.75556 16.321 3.77618 15.5374 3.77618 14.571C3.77618 13.6045 4.75556 12.821 5.96368 12.821H29.297ZM29.297 4.6543C30.5051 4.6543 31.4845 5.4378 31.4845 6.4043C31.4845 7.3708 30.5051 8.1543 29.297 8.1543H5.96368C4.75556 8.1543 3.77618 7.3708 3.77618 6.4043C3.77618 5.4378 4.75556 4.6543 5.96368 4.6543H29.297Z" fill="#FDF9F5"/>
</svg>
