<svg width="17" height="17" viewBox="0 0 17 17" fill="none" xmlns="http://www.w3.org/2000/svg">
<path fill-rule="evenodd" clip-rule="evenodd" d="M10.9882 1.29797C11.639 0.647096 12.6943 0.647096 13.3452 1.29797L15.7022 3.65499C16.3531 4.30586 16.3531 5.36114 15.7022 6.01201L13.3452 8.36904C12.6943 9.01987 11.639 9.01987 10.9882 8.36904L8.63117 6.01201C7.98025 5.36114 7.98025 4.30586 8.63117 3.65499L10.9882 1.29797ZM5.5 1.5002C6.4205 1.5002 7.16667 2.24639 7.16667 3.16686V6.5002C7.16667 7.4207 6.4205 8.16686 5.5 8.16686H2.16667C1.24619 8.16686 0.5 7.4207 0.5 6.5002V3.16686C0.5 2.24639 1.24619 1.5002 2.16667 1.5002H5.5ZM15.5 11.5002C15.5 10.5797 14.7538 9.83354 13.8333 9.83354H10.5C9.5795 9.83354 8.83333 10.5797 8.83333 11.5002V14.8335C8.83333 15.754 9.5795 16.5002 10.5 16.5002H13.8333C14.7538 16.5002 15.5 15.754 15.5 14.8335V11.5002ZM5.5 9.83354C6.4205 9.83354 7.16667 10.5797 7.16667 11.5002V14.8335C7.16667 15.754 6.4205 16.5002 5.5 16.5002H2.16667C1.24619 16.5002 0.5 15.754 0.5 14.8335V11.5002C0.5 10.5797 1.24619 9.83354 2.16667 9.83354H5.5Z" fill="#FDF9F5"/>
</svg>
