<svg width="17" height="17" viewBox="0 0 17 17" fill="none" xmlns="http://www.w3.org/2000/svg">
<path fill-rule="evenodd" clip-rule="evenodd" d="M10.9882 1.29785C11.639 0.646974 12.6943 0.646974 13.3452 1.29785L15.7022 3.65487C16.3531 4.30574 16.3531 5.36102 15.7022 6.01189L13.3452 8.36891C12.6943 9.01975 11.639 9.01975 10.9882 8.36891L8.63117 6.01189C7.98025 5.36102 7.98025 4.30574 8.63117 3.65487L10.9882 1.29785ZM5.5 1.50007C6.4205 1.50007 7.16667 2.24627 7.16667 3.16674V6.50007C7.16667 7.42058 6.4205 8.16674 5.5 8.16674H2.16667C1.24619 8.16674 0.5 7.42058 0.5 6.50007V3.16674C0.5 2.24627 1.24619 1.50007 2.16667 1.50007H5.5ZM15.5 11.5001C15.5 10.5796 14.7538 9.83342 13.8333 9.83342H10.5C9.5795 9.83342 8.83333 10.5796 8.83333 11.5001V14.8334C8.83333 15.7539 9.5795 16.5001 10.5 16.5001H13.8333C14.7538 16.5001 15.5 15.7539 15.5 14.8334V11.5001ZM5.5 9.83342C6.4205 9.83342 7.16667 10.5796 7.16667 11.5001V14.8334C7.16667 15.7539 6.4205 16.5001 5.5 16.5001H2.16667C1.24619 16.5001 0.5 15.7539 0.5 14.8334V11.5001C0.5 10.5796 1.24619 9.83342 2.16667 9.83342H5.5Z" fill="#FFBE06"/>
</svg>
