<svg width="21" height="21" viewBox="0 0 21 21" fill="none" xmlns="http://www.w3.org/2000/svg">
<path d="M6.25145 16.4049C6.94181 16.4049 7.50145 16.9646 7.50145 17.6549C7.50145 18.3453 6.94181 18.9049 6.25145 18.9049C5.5611 18.9049 5.00145 18.3453 5.00145 17.6549C5.00145 16.9646 5.5611 16.4049 6.25145 16.4049ZM14.5848 16.4049C15.2751 16.4049 15.8348 16.9646 15.8348 17.6549C15.8348 18.3453 15.2751 18.9049 14.5848 18.9049C13.8945 18.9049 13.3348 18.3453 13.3348 17.6549C13.3348 16.9646 13.8945 16.4049 14.5848 16.4049ZM2.50145 2.23828C3.93945 2.23828 5.02041 3.30733 5.12262 4.73828H16.503C17.5428 4.73828 18.3287 5.68002 18.1427 6.70309L16.7791 14.2031C16.635 14.9956 15.9448 15.5716 15.1393 15.5716H5.77739C4.90299 15.5716 4.17725 14.8959 4.11495 14.0237L3.44747 4.67891C3.41071 4.16431 2.97192 3.90495 2.50145 3.90495C2.04122 3.90495 1.66812 3.53185 1.66812 3.07161C1.66812 2.61138 2.04122 2.23828 2.50145 2.23828Z" fill="#FDF9F5"/>
</svg>
