<svg width="21" height="21" viewBox="0 0 21 21" fill="none" xmlns="http://www.w3.org/2000/svg">
<path fill-rule="evenodd" clip-rule="evenodd" d="M6.45459 17.9141C7.28302 17.9141 7.95459 18.5857 7.95459 19.4141C7.95459 20.2425 7.28302 20.9141 6.45459 20.9141C5.62616 20.9141 4.95459 20.2425 4.95459 19.4141C4.95459 18.5857 5.62616 17.9141 6.45459 17.9141ZM16.4546 17.9141C17.283 17.9141 17.9546 18.5857 17.9546 19.4141C17.9546 20.2425 17.283 20.9141 16.4546 20.9141C15.6262 20.9141 14.9546 20.2425 14.9546 19.4141C14.9546 18.5857 15.6262 17.9141 16.4546 17.9141ZM2.09235 0.914062C3.66627 0.914062 4.97259 2.1304 5.08473 3.70032L5.09999 3.91406H18.7564C20.0042 3.91406 20.9473 5.04415 20.7241 6.27183L19.0878 15.2719C18.9149 16.2229 18.0866 16.9141 17.12 16.9141H5.88571C4.83643 16.9141 3.96555 16.1032 3.89079 15.0566L3.08981 3.84281C3.05243 3.31951 2.61699 2.91406 2.09235 2.91406H1.95459C1.40231 2.91406 0.95459 2.46634 0.95459 1.91406C0.95459 1.36178 1.40231 0.914062 1.95459 0.914062H2.09235ZM18.7564 5.91406H5.24285L5.88571 14.9141H17.12L18.7564 5.91406Z" fill="#154193"/>
</svg>
