<svg width="20" height="20" viewBox="0 0 20 20" fill="none" xmlns="http://www.w3.org/2000/svg">
<path d="M12.4091 0.292518C13.3917 0.535688 14.3169 0.923988 15.1603 1.43303C15.5106 1.64448 15.6968 2.04803 15.6303 2.45178C15.5167 3.14078 15.688 3.66772 16.0101 3.98974C16.3321 4.31176 16.859 4.48308 17.548 4.36954C17.9518 4.30301 18.3553 4.48917 18.5668 4.83951C19.0758 5.68291 19.4641 6.60804 19.7072 7.59069C19.8056 7.98806 19.6518 8.4052 19.3191 8.6437C18.7513 9.0507 18.4997 9.5446 18.4997 10.0001C18.4997 10.4556 18.7513 10.9495 19.3191 11.3565C19.6518 11.5949 19.8056 12.0121 19.7072 12.4095C19.4641 13.3922 19.0757 14.3173 18.5667 15.1608C18.3553 15.5111 17.9517 15.6973 17.548 15.6307C16.859 15.5172 16.3321 15.6885 16.0101 16.0105C15.6881 16.3325 15.5167 16.8595 15.6303 17.5484C15.6968 17.9522 15.5106 18.3557 15.1603 18.5672C14.3169 19.0762 13.3917 19.4645 12.409 19.7077C12.0117 19.806 11.5945 19.6522 11.356 19.3195C10.9491 18.7517 10.4552 18.5001 9.99966 18.5001C9.54406 18.5001 9.05016 18.7517 8.64326 19.3195C8.40476 19.6522 7.98758 19.806 7.59022 19.7077C6.60754 19.4645 5.68239 19.0762 4.83898 18.5672C4.48864 18.3557 4.30248 17.9522 4.36901 17.5484C4.48253 16.8595 4.31122 16.3325 3.9892 16.0105C3.66719 15.6885 3.14027 15.5172 2.4513 15.6307C2.04755 15.6973 1.644 15.5111 1.43256 15.1608C0.923506 14.3173 0.535206 13.3922 0.292026 12.4095C0.193696 12.0121 0.347476 11.5949 0.680196 11.3565C1.24801 10.9495 1.49961 10.4556 1.49961 10.0001C1.49961 9.5446 1.24801 9.0507 0.680196 8.6437C0.347476 8.4052 0.193696 7.98806 0.292026 7.5907C0.535196 6.60804 0.923486 5.68291 1.4325 4.83952C1.64395 4.48918 2.0475 4.30301 2.45126 4.36955C3.14025 4.48309 3.66719 4.31177 3.98921 3.98975C4.31123 3.66772 4.48255 3.14078 4.369 2.45179C4.30247 2.04803 4.48863 1.64447 4.83897 1.43303C5.68238 0.923988 6.60753 0.535688 7.59021 0.292518C7.98758 0.194178 8.40476 0.347968 8.64326 0.680688C9.05016 1.24849 9.54406 1.50009 9.99966 1.50009C10.4552 1.50009 10.9491 1.24849 11.356 0.680688C11.5945 0.347968 12.0117 0.194178 12.4091 0.292518ZM9.99966 5C7.23828 5 4.99971 7.23858 4.99971 10C4.99971 12.7614 7.23828 15 9.99966 15C12.7612 15 14.9997 12.7614 14.9997 10C14.9997 7.23858 12.7612 5 9.99966 5ZM9.99966 7C11.6566 7 12.9997 8.3431 12.9997 10C12.9997 11.6569 11.6566 13 9.99966 13C8.34286 13 6.99971 11.6569 6.99971 10C6.99971 8.3431 8.34286 7 9.99966 7Z" fill="#FFBE06"/>
</svg>
