<svg width="17" height="18" viewBox="0 0 17 18" fill="none" xmlns="http://www.w3.org/2000/svg">
<path d="M10.537 0.910432C11.3558 1.11307 12.1268 1.43666 12.8297 1.86086C13.1216 2.03707 13.2768 2.37336 13.2213 2.70982C13.1267 3.28398 13.2694 3.7231 13.5378 3.99145C13.8062 4.2598 14.2453 4.40257 14.8194 4.30795C15.1559 4.25251 15.4922 4.40764 15.6684 4.69959C16.0926 5.40242 16.4162 6.17337 16.6188 6.99224C16.7008 7.32338 16.5726 7.671 16.2953 7.86975C15.8222 8.20892 15.6125 8.6205 15.6125 9.00008C15.6125 9.37967 15.8222 9.79125 16.2953 10.1304C16.5726 10.3291 16.7008 10.6767 16.6188 11.0079C16.4162 11.8268 16.0925 12.5977 15.6683 13.3007C15.4922 13.5926 15.1558 13.7477 14.8194 13.6922C14.2453 13.5977 13.8062 13.7404 13.5378 14.0087C13.2695 14.2771 13.1267 14.7162 13.2213 15.2903C13.2768 15.6268 13.1216 15.9631 12.8297 16.1393C12.1268 16.5635 11.3558 16.8871 10.5369 17.0897C10.2058 17.1717 9.85817 17.0435 9.65942 16.7662C9.32034 16.2931 8.90876 16.0834 8.52917 16.0834C8.14951 16.0834 7.73792 16.2931 7.39884 16.7662C7.20009 17.0435 6.85244 17.1717 6.52131 17.0897C5.70241 16.8871 4.93145 16.5635 4.22861 16.1393C3.93666 15.9631 3.78152 15.6268 3.83696 15.2903C3.93156 14.7162 3.78881 14.2771 3.52046 14.0087C3.25211 13.7404 2.81301 13.5977 2.23887 13.6922C1.90241 13.7477 1.56612 13.5926 1.38992 13.3007C0.965715 12.5977 0.642131 11.8268 0.439481 11.0079C0.35754 10.6767 0.48569 10.3291 0.762956 10.1304C1.23613 9.79125 1.4458 9.37967 1.4458 9.00008C1.4458 8.6205 1.23613 8.20892 0.762956 7.86975C0.48569 7.671 0.35754 7.32338 0.439481 6.99225C0.642123 6.17337 0.965698 5.40242 1.38987 4.6996C1.56608 4.40765 1.90237 4.25251 2.23884 4.30796C2.813 4.40257 3.25211 4.25981 3.52046 3.99146C3.78881 3.7231 3.93158 3.28398 3.83696 2.70982C3.78151 2.37336 3.93665 2.03706 4.2286 1.86086C4.93144 1.43666 5.7024 1.11307 6.5213 0.910432C6.85244 0.828482 7.20009 0.95664 7.39884 1.23391C7.73792 1.70707 8.14951 1.91674 8.52917 1.91674C8.90876 1.91674 9.32034 1.70707 9.65942 1.23391C9.85817 0.95664 10.2058 0.828482 10.537 0.910432ZM8.52917 4.83333C6.22802 4.83333 4.36255 6.69882 4.36255 9C4.36255 11.3012 6.22802 13.1667 8.52917 13.1667C10.8304 13.1667 12.6958 11.3012 12.6958 9C12.6958 6.69882 10.8304 4.83333 8.52917 4.83333ZM8.52917 6.5C9.90992 6.5 11.0292 7.61925 11.0292 9C11.0292 10.3807 9.90992 11.5 8.52917 11.5C7.14851 11.5 6.02921 10.3807 6.02921 9C6.02921 7.61925 7.14851 6.5 8.52917 6.5Z" fill="#FDF9F5"/>
</svg>
