<svg width="15" height="17" viewBox="0 0 15 17" fill="none" xmlns="http://www.w3.org/2000/svg">
<path d="M7.5 9.33334C9.49625 9.33334 11.3127 9.91142 12.6481 10.7263C13.3155 11.1335 13.8851 11.6136 14.2967 12.1346C14.7017 12.6473 15 13.2608 15 13.9167C15 14.6208 14.6574 15.1759 14.1644 15.5716C13.6973 15.9466 13.0818 16.1947 12.4273 16.368C11.1128 16.7161 9.3575 16.8333 7.5 16.8333C5.64251 16.8333 3.88722 16.7161 2.57263 16.368C1.91818 16.1947 1.3027 15.9466 0.83555 15.5716C0.342616 15.1759 0 14.6208 0 13.9167C0 13.2608 0.298375 12.6473 0.703308 12.1346C1.1149 11.6136 1.68452 11.1335 2.35189 10.7263C3.68722 9.91142 5.50378 9.33334 7.5 9.33334ZM7.5 0.166672C9.80117 0.166672 11.6667 2.03216 11.6667 4.33334C11.6667 6.63452 9.80117 8.5 7.5 8.5C5.19882 8.5 3.33333 6.63452 3.33333 4.33334C3.33333 2.03216 5.19882 0.166672 7.5 0.166672Z" fill="#154193"/>
</svg>
