<svg width="12" height="16" viewBox="0 0 12 16" fill="none" xmlns="http://www.w3.org/2000/svg">
<path fill-rule="evenodd" clip-rule="evenodd" d="M6.00033 0.083252C6.65005 0.083252 7.18403 0.57899 7.2446 1.21287L7.25033 1.33325V1.74992H10.167C10.8573 1.74992 11.417 2.30956 11.417 2.99992C11.417 3.64967 10.9212 4.18363 10.2874 4.2442L10.167 4.24992H7.25033V6.74992H8.08366C10.1547 6.74992 11.8337 8.42883 11.8337 10.4999C11.8337 12.5118 10.2493 14.1537 8.26019 14.2458L8.08366 14.2499H7.25033V14.6666C7.25033 15.3569 6.69066 15.9166 6.00033 15.9166C5.3506 15.9166 4.81662 15.4208 4.75605 14.787L4.75033 14.6666V14.2499H1.83366C1.1433 14.2499 0.583659 13.6903 0.583659 12.9999C0.583659 12.3502 1.0794 11.8162 1.71328 11.7556L1.83366 11.7499H4.75033V9.24992H3.91699C1.84593 9.24992 0.166992 7.571 0.166992 5.49992C0.166992 3.48803 1.75136 1.84618 3.74046 1.754L3.91699 1.74992H4.75033V1.33325C4.75033 0.642894 5.30999 0.083252 6.00033 0.083252ZM8.08366 9.24992H7.25033V11.7499H8.08366C8.77399 11.7499 9.33366 11.1903 9.33366 10.4999C9.33366 9.80958 8.77399 9.24992 8.08366 9.24992ZM4.75033 4.24992H3.91699C3.22663 4.24992 2.66699 4.80956 2.66699 5.49992C2.66699 6.19028 3.22663 6.74992 3.91699 6.74992H4.75033V4.24992Z" fill="#FDF9F5"/>
</svg>
