<svg width="12" height="16" viewBox="0 0 12 16" fill="none" xmlns="http://www.w3.org/2000/svg">
<path fill-rule="evenodd" clip-rule="evenodd" d="M6.00033 0.083374C6.65005 0.083374 7.18403 0.579112 7.2446 1.21299L7.25033 1.33337V1.75004H10.167C10.8573 1.75004 11.417 2.30968 11.417 3.00004C11.417 3.64979 10.9212 4.18375 10.2874 4.24432L10.167 4.25004H7.25033V6.75004H8.08366C10.1547 6.75004 11.8337 8.42896 11.8337 10.5C11.8337 12.5119 10.2493 14.1538 8.26019 14.246L8.08366 14.25H7.25033V14.6667C7.25033 15.357 6.69066 15.9167 6.00033 15.9167C5.3506 15.9167 4.81662 15.4209 4.75605 14.7871L4.75033 14.6667V14.25H1.83366C1.1433 14.25 0.583659 13.6904 0.583659 13C0.583659 12.3503 1.0794 11.8163 1.71328 11.7558L1.83366 11.75H4.75033V9.25004H3.91699C1.84593 9.25004 0.166992 7.57112 0.166992 5.50004C0.166992 3.48815 1.75136 1.8463 3.74046 1.75412L3.91699 1.75004H4.75033V1.33337C4.75033 0.643016 5.30999 0.083374 6.00033 0.083374ZM8.08366 9.25004H7.25033V11.75H8.08366C8.77399 11.75 9.33366 11.1904 9.33366 10.5C9.33366 9.80971 8.77399 9.25004 8.08366 9.25004ZM4.75033 4.25004H3.91699C3.22663 4.25004 2.66699 4.80968 2.66699 5.50004C2.66699 6.1904 3.22663 6.75004 3.91699 6.75004H4.75033V4.25004Z" fill="#FFBE06"/>
</svg>
