<svg width="27" height="27" viewBox="0 0 27 27" fill="none" xmlns="http://www.w3.org/2000/svg">
<path d="M15.392 26.275C21.6066 25.3401 26.3712 19.9777 26.3712 13.5026C26.3712 6.36892 20.5881 0.585938 13.4545 0.585938C6.32083 0.585938 0.537842 6.36892 0.537842 13.5026C0.537842 19.9777 5.30246 25.3401 11.517 26.275V17.3776H9.57951C8.50945 17.3776 7.64201 16.5101 7.64201 15.4401C7.64201 14.3701 8.50945 13.5026 9.57951 13.5026H11.517V10.9193C11.517 8.42248 13.541 6.39844 16.0378 6.39844H16.6837C17.7537 6.39844 18.6212 7.26588 18.6212 8.33594C18.6212 9.40599 17.7537 10.2734 16.6837 10.2734H16.0378C15.6812 10.2734 15.392 10.5626 15.392 10.9193V13.5026H17.3295C18.3995 13.5026 19.267 14.3701 19.267 15.4401C19.267 16.5101 18.3995 17.3776 17.3295 17.3776H15.392V26.275Z" fill="#154193"/>
</svg>
