<svg width="30" height="30" viewBox="0 0 30 30" fill="none" xmlns="http://www.w3.org/2000/svg">
<path d="M16.8899 29.9198C23.9063 28.8642 29.2857 22.81 29.2857 15.4993C29.2857 7.44519 22.7564 0.916016 14.7024 0.916016C6.6482 0.916016 0.119019 7.44519 0.119019 15.4993C0.119019 22.81 5.49843 28.8642 12.5149 29.9198V19.8743H10.3274C9.11922 19.8743 8.13985 18.8949 8.13985 17.6868C8.13985 16.4788 9.11922 15.4993 10.3274 15.4993H12.5149V12.5827C12.5149 9.76372 14.8001 7.47852 17.619 7.47852H18.3482C19.5563 7.47852 20.5357 8.45789 20.5357 9.66602C20.5357 10.8741 19.5563 11.8535 18.3482 11.8535H17.619C17.2164 11.8535 16.8899 12.18 16.8899 12.5827V15.4993H19.0774C20.2854 15.4993 21.2649 16.4788 21.2649 17.6868C21.2649 18.8949 20.2854 19.8743 19.0774 19.8743H16.8899V29.9198Z" fill="#FDF9F5"/>
</svg>
