<svg width="16" height="12" viewBox="0 0 16 12" fill="none" xmlns="http://www.w3.org/2000/svg">
<path d="M9.84928 10.168C10.3095 10.168 10.6826 10.5411 10.6826 11.0013C10.6826 11.4287 10.3609 11.7809 9.94647 11.829L9.84928 11.8346H6.51595C6.05572 11.8346 5.68262 11.4616 5.68262 11.0013C5.68262 10.5739 6.00432 10.2217 6.41877 10.1736L6.51595 10.168H9.84928ZM12.3493 5.16797C12.8095 5.16797 13.1826 5.54105 13.1826 6.0013C13.1826 6.46155 12.8095 6.83464 12.3493 6.83464H4.01595C3.55572 6.83464 3.18262 6.46155 3.18262 6.0013C3.18262 5.54105 3.55572 5.16797 4.01595 5.16797H12.3493ZM14.8493 0.167969C15.3095 0.167969 15.6826 0.541069 15.6826 1.0013C15.6826 1.46154 15.3095 1.83464 14.8493 1.83464H1.51595C1.05572 1.83464 0.682617 1.46154 0.682617 1.0013C0.682617 0.541069 1.05572 0.167969 1.51595 0.167969H14.8493Z" fill="#154193"/>
</svg>
