<svg width="28" height="28" viewBox="0 0 28 28" fill="none" xmlns="http://www.w3.org/2000/svg">
<path d="M20.2024 0.5C24.3445 0.5 27.7024 3.85787 27.7024 8V20C27.7024 24.1421 24.3445 27.5 20.2024 27.5H8.20239C4.06026 27.5 0.702393 24.1421 0.702393 20V8C0.702393 3.85787 4.06026 0.5 8.20239 0.5H20.2024ZM14.2024 8C10.8887 8 8.20239 10.6863 8.20239 14C8.20239 17.3137 10.8887 20 14.2024 20C17.516 20 20.2024 17.3137 20.2024 14C20.2024 10.6863 17.516 8 14.2024 8ZM14.2024 11C15.8593 11 17.2024 12.3431 17.2024 14C17.2024 15.6569 15.8593 17 14.2024 17C12.5455 17 11.2024 15.6569 11.2024 14C11.2024 12.3431 12.5455 11 14.2024 11ZM20.9524 5.75C20.1239 5.75 19.4524 6.42158 19.4524 7.25C19.4524 8.07842 20.1239 8.75 20.9524 8.75C21.7808 8.75 22.4524 8.07842 22.4524 7.25C22.4524 6.42158 21.7808 5.75 20.9524 5.75Z" fill="#FDF9F5"/>
</svg>
