<svg width="25" height="24" viewBox="0 0 25 24" fill="none" xmlns="http://www.w3.org/2000/svg">
<path d="M18.2879 0C21.9698 0 24.9546 2.98477 24.9546 6.66667V17.3333C24.9546 21.0152 21.9698 24 18.2879 24H7.62126C3.93936 24 0.95459 21.0152 0.95459 17.3333V6.66667C0.95459 2.98477 3.93936 0 7.62126 0H18.2879ZM12.9546 6.66667C10.0091 6.66667 7.62126 9.05448 7.62126 12C7.62126 14.9455 10.0091 17.3333 12.9546 17.3333C15.9001 17.3333 18.2879 14.9455 18.2879 12C18.2879 9.05448 15.9001 6.66667 12.9546 6.66667ZM12.9546 9.33333C14.4274 9.33333 15.6213 10.5272 15.6213 12C15.6213 13.4728 14.4274 14.6667 12.9546 14.6667C11.4818 14.6667 10.2879 13.4728 10.2879 12C10.2879 10.5272 11.4818 9.33333 12.9546 9.33333ZM18.9546 4.66667C18.2182 4.66667 17.6213 5.26363 17.6213 6C17.6213 6.73637 18.2182 7.33333 18.9546 7.33333C19.691 7.33333 20.2879 6.73637 20.2879 6C20.2879 5.26363 19.691 4.66667 18.9546 4.66667Z" fill="#154193"/>
</svg>
