<svg width="13" height="14" viewBox="0 0 13 14" fill="none" xmlns="http://www.w3.org/2000/svg">
<path d="M6.18262 0.367188C8.34154 0.367188 10.101 2.07757 10.1799 4.21723L10.1826 4.36719H10.8493C11.5522 4.36719 12.1281 4.91111 12.179 5.60101L12.1826 5.70052V12.3672C12.1826 13.0701 11.6387 13.646 10.9488 13.6969L10.8493 13.7005H1.51595C0.813042 13.7005 0.237174 13.1566 0.186274 12.4667L0.182617 12.3672V5.70052C0.182617 4.99761 0.726535 4.42174 1.41644 4.37084L1.51595 4.36719H2.18262C2.18262 2.15805 3.97348 0.367188 6.18262 0.367188ZM10.8493 5.70052H1.51595V12.3672H10.8493V5.70052ZM6.18262 7.03385C6.91902 7.03385 7.51595 7.63079 7.51595 8.36719C7.51595 8.82276 7.28748 9.22493 6.93888 9.46543L6.84928 9.52212V10.3672C6.84928 10.7354 6.55082 11.0339 6.18262 11.0339C5.84072 11.0339 5.55894 10.7765 5.52044 10.4449L5.51595 10.3672V9.52212C5.11742 9.29159 4.84928 8.86072 4.84928 8.36719C4.84928 7.63079 5.44622 7.03385 6.18262 7.03385ZM6.18262 1.70052C4.70986 1.70052 3.51595 2.89443 3.51595 4.36719H8.84928C8.84928 2.89443 7.65535 1.70052 6.18262 1.70052Z" fill="#FDF9F5"/>
</svg>
