<svg width="89" height="53" viewBox="0 0 89 53" fill="none" xmlns="http://www.w3.org/2000/svg">
<g clip-path="url(#clip0_402_17833)">
<path d="M9.15129 12.349C9.15129 13.5624 8.74802 14.5774 7.9415 15.3941C7.13497 16.2107 6.01948 16.619 4.59355 16.619C3.57669 16.619 2.72085 16.412 2.02602 15.9964C1.33119 15.5823 0.82348 15.0465 0.5 14.3906L2.71359 12.8674C3.14732 13.6348 3.74351 14.0185 4.49926 14.0185C4.98231 14.0185 5.38267 13.8737 5.6989 13.5827C6.01512 13.2916 6.17324 12.8804 6.17324 12.3475V4.54883H9.14984V12.349H9.15129Z" fill="#79CCD7"/>
<path d="M21.9689 11.8842C21.9689 13.1845 21.4858 14.298 20.5183 15.2261C19.5508 16.1542 18.2989 16.619 16.7598 16.619C15.0859 16.619 13.7992 16.1644 12.8998 15.2536C12.0005 14.3443 11.5508 13.2207 11.5508 11.8828V4.54883H14.5274V11.4194C14.5274 13.1526 15.2715 14.0199 16.7598 14.0199C18.2481 14.0199 18.9923 13.1541 18.9923 11.4194V4.54883H21.9689V11.8842Z" fill="#79CCD7"/>
<path d="M27.774 13.0549C28.3687 13.6992 29.1564 14.0207 30.137 14.0207C31.4149 14.0207 32.3317 13.5255 32.8902 12.5351H30.5083V9.93453H36.4615C36.4615 12.0761 35.8914 13.7253 34.7498 14.8837C33.6082 16.0406 32.0706 16.6198 30.1355 16.6198C28.2875 16.6198 26.7876 16.0435 25.6329 14.8924C24.4797 13.7412 23.9023 12.2744 23.9023 10.4905C23.9023 8.70666 24.4797 7.24132 25.6329 6.08875C26.7861 4.93762 28.2875 4.36133 30.1355 4.36133C31.4744 4.36133 32.632 4.63934 33.6053 5.1968C34.5786 5.75427 35.3141 6.49707 35.8102 7.42522L33.2049 8.63281C32.9946 8.21146 32.6378 7.82775 32.1359 7.48169C31.634 7.13562 30.9725 6.96187 30.1544 6.96187C29.1622 6.96187 28.3687 7.28331 27.7725 7.92766C27.1778 8.572 26.8789 9.4263 26.8789 10.4905C26.8818 11.5577 27.1792 12.412 27.774 13.0549Z" fill="#79CCD7"/>
<path d="M45.4858 14.2053H40.8352L39.9982 16.4337H36.8359L41.4865 4.54883H44.8345L49.485 16.4337H46.3228L45.4858 14.2053ZM44.4994 11.6062L43.1605 8.07751L41.8216 11.6062H44.4994Z" fill="#79CCD7"/>
<path d="M53.7466 16.4337H50.77V4.54883H53.7466L58.9557 11.5121V4.54883H61.9323V16.4337H58.9557L53.7466 9.47045V16.4337Z" fill="#79CCD7"/>
<path d="M68.0536 4.54883C69.951 4.54883 71.4799 5.09616 72.6389 6.19226C73.7979 7.28837 74.3782 8.7204 74.3782 10.4913C74.3782 12.2621 73.7979 13.6942 72.6389 14.7903C71.4799 15.8864 69.951 16.4337 68.0536 16.4337H64.5186V4.54883H68.0536ZM68.0536 13.8346C69.0705 13.8346 69.8828 13.5436 70.4906 12.9615C71.0984 12.3794 71.4016 11.5555 71.4016 10.4913C71.4016 9.42701 71.0984 8.60312 70.4906 8.02104C69.8828 7.43896 69.0705 7.14792 68.0536 7.14792H67.4951V13.8332H68.0536V13.8346Z" fill="#79CCD7"/>
<path d="M77.5971 14.8933C76.4308 13.7422 75.8477 12.2754 75.8477 10.4915C75.8477 8.70764 76.4308 7.2423 77.5971 6.08972C78.7633 4.93859 80.2879 4.3623 82.1737 4.3623C84.0594 4.3623 85.584 4.93859 86.7502 6.08972C87.9165 7.24085 88.4997 8.70764 88.4997 10.4915C88.4997 12.2754 87.9165 13.7408 86.7502 14.8933C85.584 16.0445 84.0594 16.6207 82.1737 16.6207C80.2879 16.6207 78.7633 16.0445 77.5971 14.8933ZM84.5932 13.0646C85.2141 12.4275 85.5231 11.5703 85.5231 10.493C85.5231 9.41569 85.2126 8.5585 84.5932 7.92139C83.9738 7.28429 83.1673 6.96574 82.1751 6.96574C81.1829 6.96574 80.3764 7.28429 79.757 7.92139C79.1376 8.5585 78.8272 9.41569 78.8272 10.493C78.8272 11.5703 79.1376 12.4275 79.757 13.0646C80.3764 13.7017 81.1829 14.0202 82.1751 14.0202C83.1673 14.0202 83.9724 13.7017 84.5932 13.0646Z" fill="#79CCD7"/>
<path d="M40.7367 19.1527C48.8846 19.1629 55.4963 25.6642 55.5036 33.6729C55.5109 41.8466 48.7424 48.6839 40.6772 48.6491C32.6496 48.6158 25.6288 41.7192 25.7898 33.8669C25.9639 25.2646 32.8991 18.7589 40.7367 19.1527ZM40.6453 26.1102C36.3965 25.6975 32.7773 29.9183 32.8919 33.8365C33.0181 38.1514 36.4487 41.7192 40.6844 41.6844C44.2543 41.6555 48.5509 38.5945 48.3696 33.796C48.2014 29.2884 45.158 26.1044 40.6453 26.1102Z" fill="#52BA65"/>
<path d="M60.6919 20.6089C61.2605 20.6089 61.832 20.6349 62.3992 20.6031C63.4219 20.5451 63.8861 20.9593 64.1153 22.0119C64.9856 26.0213 67.8027 28.409 71.5713 28.4872C75.4893 28.5683 78.5051 26.3442 79.5219 22.3638C79.8773 20.9737 80.4721 20.4727 81.8472 20.5857C82.9787 20.6798 84.1217 20.6175 85.2604 20.6132C86.3223 20.6089 86.6965 21.1837 86.5268 22.1495C85.4838 28.1021 82.3404 32.443 76.5395 34.4832C71.1912 36.3641 66.3361 35.1652 62.0815 31.5019C59.5807 29.3473 58.0982 26.5918 57.4469 23.36C56.9363 20.8304 57.0814 20.6132 59.6678 20.6045C60.0087 20.6031 60.3496 20.6045 60.6919 20.6089Z" fill="#FFCD05"/>
<path d="M14.1033 20.5616C16.6593 20.5616 19.2167 20.5891 21.7726 20.5486C22.9084 20.5312 23.4321 20.9265 23.4074 22.1239C23.2841 28.3009 24.2908 27.1281 18.5001 27.2237C14.5806 27.2874 6.71697 27.1947 2.79749 27.257C1.42088 27.2787 0.840646 26.8226 0.862405 25.4079C0.952341 19.5524 0.238654 20.6745 5.55795 20.5616C7.09267 20.5283 12.5701 20.5572 14.1033 20.5616Z" fill="#F36D2A"/>
<path d="M15.4037 45.1419C15.4037 48.2985 15.4037 48.2985 12.2777 48.2999C8.86588 48.3014 8.86588 48.3014 8.86588 44.9117C8.86588 44.6858 8.86443 33.1311 8.86588 32.9038C8.87748 30.4668 8.90795 30.4379 11.3246 30.4263C11.5509 30.4248 11.7772 30.4248 12.0035 30.4263C15.4501 30.4364 15.4109 30.1888 15.4022 33.1615C15.4037 33.3642 15.4037 44.9103 15.4037 45.1419Z" fill="#F36D2A"/>
<path d="M74.7455 45.143C74.7455 48.2996 74.7455 48.2996 71.6194 48.301C68.2077 48.3025 68.2077 48.3025 68.2077 44.9128C68.2077 44.6869 68.2062 41.0583 68.2077 40.8325C68.2193 38.3955 68.2497 38.3666 70.6664 38.355C70.8927 38.3536 71.119 38.3536 71.3453 38.355C74.7919 38.3651 74.7527 38.1175 74.744 41.0902C74.7455 41.2929 74.744 44.9114 74.7455 45.143Z" fill="#FFCD05"/>
</g>
<defs>
<clipPath id="clip0_402_17833">
<rect width="88" height="51.2405" fill="white" transform="translate(0.5 0.887695)"/>
</clipPath>
</defs>
</svg>
