<svg width="34" height="21" viewBox="0 0 34 21" fill="none" xmlns="http://www.w3.org/2000/svg">
<path fill-rule="evenodd" clip-rule="evenodd" d="M17.2945 17.6423C15.5683 19.132 13.3291 20.0312 10.8823 20.0312C5.42285 20.0312 0.99707 15.5541 0.99707 10.0312C0.99707 4.5084 5.42285 0.03125 10.8823 0.03125C13.3291 0.03125 15.5683 0.930531 17.2945 2.42019C19.0206 0.930531 21.2598 0.03125 23.7066 0.03125C29.1661 0.03125 33.5918 4.5084 33.5918 10.0312C33.5918 15.5541 29.1661 20.0312 23.7066 20.0312C21.2598 20.0312 19.0206 19.132 17.2945 17.6423Z" fill="#ED0006"/>
<path fill-rule="evenodd" clip-rule="evenodd" d="M17.2949 17.6423C19.4203 15.8081 20.768 13.0789 20.768 10.0312C20.768 6.9836 19.4203 4.25438 17.2949 2.42019C19.0211 0.930531 21.2603 0.03125 23.7071 0.03125C29.1665 0.03125 33.5923 4.5084 33.5923 10.0312C33.5923 15.5541 29.1665 20.0312 23.7071 20.0312C21.2603 20.0312 19.0211 19.132 17.2949 17.6423Z" fill="#F9A000"/>
<path fill-rule="evenodd" clip-rule="evenodd" d="M17.2944 17.6362C19.4198 15.802 20.7675 13.0728 20.7675 10.0251C20.7675 6.97747 19.4198 4.24825 17.2944 2.41406C15.169 4.24825 13.8213 6.97747 13.8213 10.0251C13.8213 13.0728 15.169 15.802 17.2944 17.6362Z" fill="#FF5E00"/>
</svg>
