<svg width="16" height="16" viewBox="0 0 16 16" fill="none" xmlns="http://www.w3.org/2000/svg">
<path fill-rule="evenodd" clip-rule="evenodd" d="M10.48 0.5C10.2767 0.752558 10.1296 1.03546 10.039 1.33189H9.51271C8.13205 1.33189 7.01271 2.45118 7.01271 3.83189C7.01271 5.21261 8.13205 6.33189 9.51271 6.33189H10.038C10.1538 6.71192 10.362 7.06975 10.6628 7.37C11.1763 7.88283 11.8571 8.12583 12.5293 8.09917V13.8333H14.196C14.6562 13.8333 15.0293 14.2064 15.0293 14.6667C15.0293 15.1269 14.6562 15.5 14.196 15.5H0.86263C0.402397 15.5 0.0292969 15.1269 0.0292969 14.6667C0.0292969 14.2064 0.402397 13.8333 0.86263 13.8333V2.16667C0.86263 1.24619 1.60882 0.5 2.5293 0.5H10.48ZM8.7793 8.83333C8.08896 8.83333 7.5293 9.393 7.5293 10.0833C7.5293 10.7737 8.08896 11.3333 8.7793 11.3333C9.46963 11.3333 10.0293 10.7737 10.0293 10.0833C10.0293 9.393 9.46963 8.83333 8.7793 8.83333ZM13.0187 1.4763L14.7853 3.24291C15.1105 3.5682 15.1107 4.09554 14.7857 4.42104L13.019 6.18999C12.6938 6.51567 12.1661 6.516 11.8405 6.19076C11.5149 5.86553 11.5145 5.3379 11.8397 5.01225L12.1863 4.66523H9.51271C9.05246 4.66523 8.67938 4.29213 8.67938 3.83189C8.67938 3.37166 9.05246 2.99856 9.51271 2.99856H12.1839L11.8401 2.65481C11.5147 2.32937 11.5147 1.80173 11.8401 1.4763C12.1656 1.15086 12.6932 1.15086 13.0187 1.4763Z" fill="#FF6252"/>
</svg>
