<svg width="16" height="15" viewBox="0 0 16 15" fill="none" xmlns="http://www.w3.org/2000/svg">
<path d="M12.5 0.220703C12.9602 0.220703 13.3333 0.593803 13.3333 1.05404V11.399L14.2677 10.4646C14.5932 10.1392 15.1208 10.1392 15.4462 10.4646C15.7717 10.79 15.7717 11.3177 15.4462 11.6431L13.0892 14.0002C12.7638 14.3256 12.2362 14.3256 11.9107 14.0002L9.55375 11.6431C9.22825 11.3177 9.22825 10.79 9.55375 10.4646C9.87917 10.1392 10.4068 10.1392 10.7323 10.4646L11.6667 11.399V1.05404C11.6667 0.593803 12.0398 0.220703 12.5 0.220703ZM6.66667 11.8874C7.12692 11.8874 7.5 12.2605 7.5 12.7207C7.5 13.1481 7.17831 13.5003 6.76385 13.5484L6.66667 13.554H0.833333C0.3731 13.554 0 13.181 0 12.7207C0 12.2933 0.321704 11.9411 0.73615 11.893L0.833333 11.8874H6.66667ZM8.33333 6.05404C8.79358 6.05404 9.16667 6.42712 9.16667 6.88737C9.16667 7.31474 8.84498 7.66696 8.43052 7.7151L8.33333 7.7207H0.833333C0.3731 7.7207 0 7.34762 0 6.88737C0 6.46 0.321704 6.10778 0.73615 6.05964L0.833333 6.05404H8.33333ZM8.33333 0.220703C8.79358 0.220703 9.16667 0.593803 9.16667 1.05404C9.16667 1.51427 8.79358 1.88737 8.33333 1.88737H0.833333C0.3731 1.88737 0 1.51427 0 1.05404C0 0.593803 0.3731 0.220703 0.833333 0.220703H8.33333Z" fill="#FDF9F5"/>
</svg>
