<svg width="17" height="10" viewBox="0 0 17 10" fill="none" xmlns="http://www.w3.org/2000/svg">
<path fill-rule="evenodd" clip-rule="evenodd" d="M0.583008 2C0.583008 1.30964 1.14265 0.75 1.83301 0.75C2.40716 0.75 2.88991 1.13672 3.03699 1.66316C4.65944 7.08133 12.3356 7.08275 13.9612 1.66743C14.1068 1.1388 14.5907 0.75 15.1663 0.75C15.8567 0.75 16.4163 1.30964 16.4163 2C16.4163 2.13051 16.3962 2.25709 16.3586 2.37638C16.0499 3.409 15.5862 4.3085 15.0065 5.07233L15.8062 5.872C16.2943 6.36017 16.2943 7.15167 15.8062 7.63975C15.3181 8.12792 14.5266 8.12792 14.0384 7.63975L13.1962 6.7975C12.7557 7.09942 12.2892 7.35342 11.8051 7.55958L12.0075 8.31475C12.1862 8.98158 11.7904 9.667 11.1236 9.84567C10.4568 10.0243 9.77134 9.62858 9.59267 8.96183L9.38376 8.18225C8.79634 8.24308 8.20301 8.24308 7.61559 8.18225L7.40667 8.96183C7.22801 9.62858 6.54258 10.0243 5.87575 9.84567C5.20892 9.667 4.81319 8.98158 4.99187 8.31475L5.19423 7.5595C4.71027 7.35342 4.24382 7.0995 3.80334 6.79758L2.96111 7.63975C2.47296 8.12792 1.6815 8.12792 1.19334 7.63975C0.705191 7.15167 0.705191 6.36017 1.19334 5.872L1.99296 5.07242C1.41426 4.30983 0.951049 3.412 0.642416 2.38151C0.603733 2.26073 0.583008 2.13238 0.583008 2Z" fill="#154193"/>
</svg>
