<svg width="16" height="16" viewBox="0 0 16 16" fill="none" xmlns="http://www.w3.org/2000/svg">
<path d="M6.74967 14.6666C6.74967 15.3569 7.30934 15.9166 7.99967 15.9166C8.69001 15.9166 9.24967 15.3569 9.24967 14.6666V9.24992H14.6663C15.3567 9.24992 15.9163 8.69025 15.9163 7.99992C15.9163 7.30959 15.3567 6.74992 14.6663 6.74992H9.24967V1.33325C9.24967 0.642894 8.69001 0.083252 7.99967 0.083252C7.30934 0.083252 6.74967 0.642894 6.74967 1.33325V6.74992H1.33301C0.642649 6.74992 0.0830078 7.30959 0.0830078 7.99992C0.0830078 8.69025 0.642649 9.24992 1.33301 9.24992H6.74967V14.6666Z" fill="#FFBE06"/>
</svg>
