<svg width="17" height="17" viewBox="0 0 17 17" fill="none" xmlns="http://www.w3.org/2000/svg">
<g clip-path="url(#clip0_389_19858)">
<path d="M7.49984 14.0263C7.49984 14.5786 7.94757 15.0263 8.49984 15.0263C9.0521 15.0263 9.49984 14.5786 9.49984 14.0263V9.69295H13.8332C14.3854 9.69295 14.8332 9.24522 14.8332 8.69295C14.8332 8.14069 14.3854 7.69295 13.8332 7.69295H9.49984V3.35962C9.49984 2.80733 9.0521 2.35962 8.49984 2.35962C7.94757 2.35962 7.49984 2.80733 7.49984 3.35962V7.69295H3.1665C2.61422 7.69295 2.1665 8.14069 2.1665 8.69295C2.1665 9.24522 2.61422 9.69295 3.1665 9.69295H7.49984V14.0263Z" fill="#154193"/>
</g>
<defs>
<clipPath id="clip0_389_19858">
<rect width="16" height="16" fill="white" transform="translate(0.5 0.692871)"/>
</clipPath>
</defs>
</svg>
