<svg width="16" height="17" viewBox="0 0 16 17" fill="none" xmlns="http://www.w3.org/2000/svg">
<path fill-rule="evenodd" clip-rule="evenodd" d="M2.58301 6.83337C2.58301 4.76231 4.26194 3.08337 6.33301 3.08337C8.40409 3.08337 10.083 4.76231 10.083 6.83337C10.083 8.90446 8.40409 10.5834 6.33301 10.5834C4.26194 10.5834 2.58301 8.90446 2.58301 6.83337ZM6.33301 0.583374C2.88122 0.583374 0.0830078 3.38159 0.0830078 6.83337C0.0830078 10.2851 2.88122 13.0834 6.33301 13.0834C7.60684 13.0834 8.79167 12.7023 9.77976 12.0479L13.7824 16.0506C14.2706 16.5387 15.0621 16.5387 15.5503 16.0506C16.0383 15.5625 16.0383 14.771 15.5503 14.2828L11.5475 10.2801C12.2019 9.29204 12.583 8.10721 12.583 6.83337C12.583 3.38159 9.78476 0.583374 6.33301 0.583374Z" fill="#133C86"/>
</svg>
