<svg width="21" height="21" viewBox="0 0 21 21" fill="none" xmlns="http://www.w3.org/2000/svg">
<path fill-rule="evenodd" clip-rule="evenodd" d="M4.58481 8.9043C4.58481 6.83323 6.26374 5.1543 8.33481 5.1543C10.4059 5.1543 12.0848 6.83323 12.0848 8.9043C12.0848 10.9754 10.4059 12.6543 8.33481 12.6543C6.26374 12.6543 4.58481 10.9754 4.58481 8.9043ZM8.33481 2.6543C4.88302 2.6543 2.08481 5.45251 2.08481 8.9043C2.08481 12.356 4.88302 15.1543 8.33481 15.1543C9.60864 15.1543 10.7935 14.7732 11.7816 14.1188L15.7842 18.1215C16.2724 18.6096 17.0639 18.6096 17.5521 18.1215C18.0401 17.6334 18.0401 16.8419 17.5521 16.3537L13.5493 12.351C14.2037 11.363 14.5848 10.1781 14.5848 8.9043C14.5848 5.45251 11.7866 2.6543 8.33481 2.6543Z" fill="#FDF9F5"/>
</svg>
