<svg width="16" height="16" viewBox="0 0 16 16" fill="none" xmlns="http://www.w3.org/2000/svg">
<path fill-rule="evenodd" clip-rule="evenodd" d="M12.1667 0.783201C12.5652 1.01333 12.7017 1.52298 12.4717 1.92156L12.4487 1.96119C15.2399 4.01203 16.2573 7.72892 14.9124 10.9118C14.5111 11.8617 13.4048 12.0828 12.6351 11.6384L8.31317 9.14317L5.67485 13.8335H14.6667C15.1269 13.8335 15.5 14.2066 15.5 14.6668C15.5 15.1271 15.1269 15.5002 14.6667 15.5002H4.26142C4.25332 15.5002 4.24521 15.5002 4.23709 15.5002H1.33333C0.8731 15.5002 0.5 15.1271 0.5 14.6668C0.5 14.2066 0.8731 13.8335 1.33333 13.8335H3.76261L6.86967 8.30975L2.53149 5.8051C1.76177 5.36071 1.40018 4.29208 2.02208 3.46958C4.10608 0.713409 7.83375 -0.263949 11.0054 1.12786L11.0282 1.08823C11.2584 0.689651 11.7681 0.553085 12.1667 0.783201Z" fill="#FDF9F5"/>
</svg>
