<svg width="53" height="18" viewBox="0 0 53 18" fill="none" xmlns="http://www.w3.org/2000/svg">
<path fill-rule="evenodd" clip-rule="evenodd" d="M13.8305 17.228H9.31101L5.92194 4.29849C5.76108 3.70373 5.41952 3.17793 4.91711 2.93011C3.66328 2.30734 2.28165 1.81171 0.774414 1.56174V1.06395H8.05498C9.05981 1.06395 9.81343 1.81171 9.93903 2.68014L11.6975 12.0066L16.2148 1.06395H20.6087L13.8305 17.228ZM23.1206 17.228H18.8523L22.367 1.06395H26.6353L23.1206 17.228ZM32.1578 5.54604C32.2834 4.67545 33.037 4.17766 33.9163 4.17766C35.2979 4.05268 36.8029 4.30265 38.059 4.92327L38.8126 1.44307C37.5565 0.945283 36.1749 0.695312 34.9211 0.695312C30.7784 0.695312 27.7639 2.93428 27.7639 6.04167C27.7639 8.40562 29.8992 9.64685 31.4064 10.3946C33.037 11.1402 33.665 11.638 33.5394 12.3836C33.5394 13.502 32.2834 13.9998 31.0296 13.9998C29.5223 13.9998 28.0151 13.627 26.6357 13.0042L25.8821 16.4866C27.3893 17.1072 29.0199 17.3572 30.5272 17.3572C35.1723 17.48 38.059 15.2432 38.059 11.8858C38.059 7.65786 32.1578 7.41005 32.1578 5.54604ZM52.9965 17.228L49.6074 1.06395H45.9671C45.2135 1.06395 44.4599 1.56174 44.2087 2.30734L37.9329 17.228H42.3268L43.2039 14.8662H48.6026L49.105 17.228H52.9965ZM46.5952 5.42057L47.849 11.5125H44.3343L46.5952 5.42057Z" fill="white"/>
</svg>
