<svg width="116" height="8" viewBox="0 0 116 8" fill="none" xmlns="http://www.w3.org/2000/svg">
<path d="M10.6622 3.6774V7.98877H2.58034C2.28839 8.03156 1.99047 8.00552 1.71037 7.91272C1.43028 7.81992 1.17575 7.66293 0.967098 7.45428C0.758451 7.24563 0.601463 6.9911 0.508663 6.711C0.415862 6.4309 0.38982 6.13299 0.432613 5.84104V3.13649C0.38982 2.84454 0.415862 2.54663 0.508663 2.26653C0.601463 1.98643 0.758451 1.7319 0.967098 1.52325C1.17575 1.3146 1.43028 1.15761 1.71037 1.06481C1.99047 0.972015 2.28839 0.945972 2.58034 0.988765H8.51443C8.80638 0.945972 9.1043 0.972015 9.3844 1.06481C9.6645 1.15761 9.91903 1.3146 10.1277 1.52325C10.3363 1.7319 10.4933 1.98643 10.5861 2.26653C10.6789 2.54663 10.705 2.84454 10.6622 3.13649H8.51443C8.5189 3.06356 8.50809 2.9905 8.4827 2.92198C8.45731 2.85346 8.4179 2.791 8.36698 2.73859C8.31607 2.68618 8.25478 2.64497 8.18702 2.61761C8.11927 2.59024 8.04655 2.57732 7.97352 2.57967H3.12125C3.05098 2.57754 2.981 2.58955 2.91545 2.61498C2.84991 2.64041 2.79014 2.67874 2.73969 2.7277C2.68924 2.77667 2.64914 2.83527 2.62177 2.90002C2.5944 2.96478 2.58031 3.03437 2.58034 3.10467V5.80922C2.57813 5.88085 2.59062 5.95218 2.61702 6.0188C2.64342 6.08542 2.68319 6.14594 2.73386 6.19661C2.78453 6.24728 2.84505 6.28705 2.91167 6.31345C2.9783 6.33985 3.04962 6.35233 3.12125 6.35013H8.51443V5.30013H5.33261V3.70922L10.6622 3.6774Z" fill="#FDF9F5"/>
<path d="M20.2074 5.30013L22.896 7.98876H20.2074L17.5188 5.30013H14.7506V7.98876H12.6665V0.988765H20.7483C21.0403 0.945972 21.3382 0.972015 21.6183 1.06481C21.8984 1.15761 22.1529 1.3146 22.3616 1.52325C22.5702 1.7319 22.7272 1.98643 22.82 2.26653C22.9128 2.54663 22.9388 2.84454 22.896 3.13649C22.9382 3.42902 22.9118 3.72733 22.819 4.00793C22.7262 4.28853 22.5696 4.54376 22.3613 4.75351C22.1531 4.96326 21.8991 5.12181 21.6192 5.21666C21.3393 5.31152 21.0412 5.34009 20.7483 5.30013H20.2074ZM20.2074 3.70922C20.2851 3.72269 20.3648 3.71902 20.4409 3.69845C20.5171 3.67787 20.5878 3.64091 20.6481 3.59013C20.7084 3.53936 20.757 3.47601 20.7902 3.40452C20.8235 3.33302 20.8407 3.25512 20.8407 3.17627C20.8407 3.09741 20.8235 3.01951 20.7902 2.94801C20.757 2.87652 20.7084 2.81317 20.6481 2.7624C20.5878 2.71162 20.5171 2.67466 20.4409 2.65408C20.3648 2.63351 20.2851 2.62984 20.2074 2.64331H14.7506V3.70922H20.2074Z" fill="#FDF9F5"/>
<path d="M27.0486 7.98828H24.9009V0.988281H27.0486V7.98828Z" fill="#FDF9F5"/>
<path d="M39.2825 3.13614V5.84068C39.3253 6.13263 39.2992 6.43055 39.2064 6.71065C39.1136 6.99075 38.9566 7.24528 38.748 7.45392C38.5394 7.66257 38.2848 7.81956 38.0047 7.91236C37.7246 8.00516 37.4267 8.0312 37.1348 7.98841H29.0688V0.988409H37.1507C37.4414 0.948364 37.7375 0.976464 38.0155 1.07049C38.2935 1.16452 38.5459 1.32189 38.7526 1.53019C38.9594 1.73849 39.1149 1.992 39.2068 2.27071C39.2988 2.54942 39.3247 2.8457 39.2825 3.13614ZM37.1348 3.13614C37.1392 3.0632 37.1284 2.99014 37.103 2.92162C37.0776 2.85311 37.0382 2.79065 36.9873 2.73823C36.9364 2.68582 36.8751 2.64462 36.8073 2.61725C36.7396 2.58989 36.6669 2.57697 36.5938 2.57932H31.2007V6.38159H36.5938C36.6655 6.3838 36.7368 6.37131 36.8034 6.34491C36.87 6.31851 36.9306 6.27875 36.9812 6.22807C37.0319 6.1774 37.0717 6.11688 37.0981 6.05026C37.1245 5.98364 37.137 5.91231 37.1348 5.84068V3.13614Z" fill="#FDF9F5"/>
<path d="M53.6644 0.988281V7.98828H51.5167V3.61328L48.828 7.98828H46.1394L43.3871 3.61328V7.98828H41.2871V0.988281H43.9757L47.4757 6.23828L50.9757 0.988281H53.6644Z" fill="#FDF9F5"/>
<path d="M66.9803 7.98828H64.8326L63.8303 6.39737H58.8189L57.8167 7.98828H55.6689L59.9803 0.988281H62.6689L66.9803 7.98828ZM62.8439 4.80646L61.253 2.34055L59.7576 4.80646H62.8439Z" fill="#FDF9F5"/>
<path d="M73.853 4.56783L79.2144 7.98828H76.2235L72.4849 5.49055L71.1326 6.38146V7.97237H68.9849V0.988281H71.1326V4.42464L76.5258 0.988281H79.2144L73.853 4.56783Z" fill="#FDF9F5"/>
<path d="M83.3665 2.57919V3.6451H91.4483V5.23601H83.3665V6.31783H91.4483V7.90874H81.2188V0.988281H91.4483V2.57919H83.3665Z" fill="#FDF9F5"/>
<path d="M100.994 5.30013L103.683 7.98876H100.994L98.3054 5.30013H95.6168V7.98876H93.4531V0.988765H101.535C101.827 0.945972 102.125 0.972015 102.405 1.06481C102.685 1.15761 102.94 1.3146 103.148 1.52325C103.357 1.7319 103.514 1.98643 103.607 2.26653C103.699 2.54663 103.725 2.84454 103.683 3.13649C103.725 3.42902 103.698 3.72733 103.606 4.00793C103.513 4.28853 103.356 4.54376 103.148 4.75351C102.94 4.96326 102.686 5.12181 102.406 5.21666C102.126 5.31152 101.828 5.34009 101.535 5.30013H100.994ZM100.994 3.70922C101.072 3.72269 101.151 3.71902 101.228 3.69845C101.304 3.67787 101.374 3.64091 101.435 3.59013C101.495 3.53936 101.544 3.47601 101.577 3.40452C101.61 3.33302 101.627 3.25512 101.627 3.17627C101.627 3.09741 101.61 3.01951 101.577 2.94801C101.544 2.87652 101.495 2.81317 101.435 2.7624C101.374 2.71162 101.304 2.67466 101.228 2.65408C101.151 2.63351 101.072 2.62984 100.994 2.64331H95.6168V3.70922H100.994Z" fill="#FDF9F5"/>
<path d="M113.769 7.98921H107.851C107.558 8.03479 107.258 8.01083 106.976 7.91927C106.694 7.82771 106.437 7.67112 106.226 7.46212C106.016 7.25311 105.857 6.99755 105.764 6.71605C105.67 6.43454 105.644 6.13497 105.687 5.84149H107.851C107.849 5.91176 107.861 5.98174 107.886 6.04728C107.912 6.11283 107.95 6.1726 107.999 6.22305C108.048 6.27349 108.107 6.31359 108.171 6.34097C108.236 6.36834 108.306 6.38243 108.376 6.3824H113.228C113.372 6.3824 113.509 6.32541 113.611 6.22397C113.712 6.12253 113.769 5.98494 113.769 5.84149C113.769 5.69803 113.712 5.56045 113.611 5.45901C113.509 5.35757 113.372 5.30058 113.228 5.30058H107.851C107.557 5.34328 107.257 5.31676 106.975 5.22313C106.693 5.12949 106.437 4.97133 106.227 4.76124C106.017 4.55114 105.858 4.2949 105.765 4.01291C105.671 3.73093 105.645 3.43098 105.687 3.13694C105.647 2.84411 105.676 2.546 105.771 2.26609C105.866 1.98619 106.024 1.73212 106.234 1.52391C106.444 1.31571 106.699 1.15904 106.98 1.06625C107.26 0.973466 107.558 0.947094 107.851 0.989214H113.769C114.062 0.947094 114.36 0.973466 114.641 1.06625C114.921 1.15904 115.176 1.31571 115.386 1.52391C115.596 1.73212 115.754 1.98619 115.849 2.26609C115.944 2.546 115.973 2.84411 115.933 3.13694H113.769C113.774 3.06401 113.763 2.99095 113.737 2.92243C113.712 2.85391 113.673 2.79145 113.622 2.73904C113.571 2.68663 113.51 2.64542 113.442 2.61806C113.374 2.59069 113.301 2.57777 113.228 2.58012H108.376C108.306 2.57791 108.237 2.58998 108.173 2.61558C108.108 2.64119 108.049 2.67978 108 2.72898C107.951 2.77817 107.912 2.83693 107.886 2.90163C107.861 2.96632 107.849 3.03558 107.851 3.10512C107.849 3.17539 107.861 3.24538 107.886 3.31092C107.912 3.37646 107.95 3.43623 107.999 3.48668C108.048 3.53713 108.107 3.57723 108.171 3.6046C108.236 3.63198 108.306 3.64606 108.376 3.64603H113.769C114.066 3.60208 114.37 3.62885 114.654 3.72415C114.939 3.81946 115.197 3.98062 115.408 4.19453C115.619 4.40844 115.776 4.66907 115.868 4.95525C115.959 5.24142 115.981 5.54506 115.933 5.84149C115.976 6.13497 115.95 6.43454 115.856 6.71605C115.763 6.99755 115.604 7.25311 115.394 7.46212C115.183 7.67112 114.926 7.82771 114.644 7.91927C114.362 8.01083 114.062 8.03479 113.769 7.98921Z" fill="#FDF9F5"/>
</svg>
