<svg width="84" height="58" viewBox="0 0 84 58" fill="none" xmlns="http://www.w3.org/2000/svg">
<path d="M4.23131 41.3686C4.08144 41.388 3.72442 41.5376 4.02145 41.1525C4.45298 40.5929 4.84215 39.9993 5.23592 39.4033C6.00787 38.235 6.9042 36.9259 7.82545 35.8642C8.75613 34.7917 9.37799 33.5781 10.2065 32.4385C11.1123 31.1926 11.9752 29.9448 12.8513 28.6741C14.5038 26.2777 16.4181 23.8995 17.8123 21.3396C19.1697 18.8473 21.52 17.021 23.2911 14.8228C23.8466 14.1333 24.5838 13.6343 25.0915 12.8945C25.5231 12.2656 25.7462 11.6849 26.0644 11.0418C26.1549 10.8591 26.2639 10.2881 26.2401 10.7518C26.2184 11.1724 25.9631 11.6786 25.8437 12.0876C25.7189 12.5153 25.6957 13.1989 25.6733 13.6476C25.6395 14.324 25.4199 15.0137 25.2798 15.6746C25.0365 16.8227 25.2582 18.232 25.263 19.404C25.265 19.8772 25.2888 20.3163 25.1561 20.7708C25.0392 21.1717 25.2498 21.6546 25.0971 22.041C24.6787 23.0996 25.0495 24.4281 24.597 25.5152C24.3407 26.131 24.1743 27.4478 24.1416 28.1212C24.059 29.8248 23.8661 31.4802 23.8731 33.1859C23.8759 33.8524 23.7342 34.5775 23.7371 35.2842C23.7404 36.0843 23.888 36.7993 23.8913 37.5903C23.8986 39.3713 24.1741 41.1555 23.9054 42.9512C23.809 43.5952 23.631 44.2103 23.4952 44.8336C23.3107 45.6805 23.3074 45.2121 22.5477 45.0465C21.961 44.9187 21.545 44.6615 20.8822 44.6274C20.2009 44.5924 19.4344 44.3706 18.7431 44.3469C17.0566 44.289 15.5314 43.2507 13.8516 43.2097C12.7587 43.183 11.7124 42.8614 10.6349 42.7889C9.69995 42.726 8.48763 42.4513 7.59434 42.1906C6.84709 41.9726 6.00325 42.0847 5.24699 42.0878C4.84122 42.0894 3.73109 41.5929 4.2343 42.092" stroke="white" stroke-linecap="round"/>
<path d="M28.0803 1.05079C28.0842 1.98875 29.3915 2.72046 29.8986 3.44648C30.3788 4.13405 30.5189 4.9893 30.9928 5.66029C31.5652 6.47089 32.1055 7.62918 32.3391 8.58839C32.6124 9.71107 33.2207 10.7801 33.7347 11.7976C34.2708 12.8588 34.5243 14.0615 35.0827 15.1276C35.8585 16.6088 36.5459 18.151 37.3355 19.6031C37.9299 20.6962 38.6963 21.9403 39.1343 23.1081C39.6001 24.35 40.1974 25.8153 40.9183 26.9265C41.883 28.4137 42.3801 30.2188 43.1808 31.8039C43.651 32.7347 44.1745 33.6105 44.5666 34.5792C44.8571 35.2968 45.0035 36.0461 45.3873 36.7218C46.7399 39.1034 48.5832 41.1029 49.4108 43.754C49.7225 44.7521 50.3288 45.6065 50.6925 46.5939C50.8275 46.9604 50.8659 47.3461 51.0185 47.6857C51.2471 48.1944 51.2484 48.0721 50.7705 47.968C48.5778 47.4902 46.2696 47.8499 44.0427 47.8591C43.522 47.8613 43.02 47.7187 42.4829 47.7209C41.8678 47.7234 41.2485 47.9557 40.6429 47.8651C39.7309 47.7286 38.6156 47.3028 37.7471 47.3064C35.4894 47.3157 33.3578 47.2119 31.1629 46.9075C30.7127 46.8451 30.3478 46.9474 29.9337 47.0412C29.7298 47.0874 29.5486 47.0156 29.3553 47.124C29.0855 47.2754 28.9287 46.9981 28.7042 47.0865C28.4099 47.2023 27.7899 47.4092 27.4755 47.3407C27.3397 47.3111 26.6285 46.9013 26.5657 46.9506C26.411 47.0719 26.5308 46.3011 26.5297 46.0184C26.5276 45.5127 26.5136 45.1035 26.3875 44.6687C26.2993 44.3648 26.5347 43.6539 26.5183 43.2697C26.4953 42.7297 26.3692 42.2012 26.3669 41.6387C26.3619 40.4305 26.5433 39.3129 26.7543 38.1248C27.0571 36.4193 26.5604 34.5837 26.9417 32.8836C27.3039 31.2684 27.3301 29.6315 27.3232 27.9631C27.3169 26.4145 27.4551 24.8639 27.4488 23.3331C27.4436 22.0793 27.3394 20.8334 27.2888 19.6044C27.2608 18.9252 27.1873 18.1476 27.288 17.4745C27.3477 17.0756 27.3021 16.3115 27.4505 15.9547C27.9642 14.7206 27.8293 12.9384 27.9711 11.6124C28.1258 10.1657 28.4013 8.72954 28.3953 7.27044C28.3909 6.20953 28.3865 5.14861 28.3822 4.08769C28.3803 3.62956 28.3784 3.17144 28.3765 2.71331C28.3752 2.39354 28.1805 1.5869 28.375 2.35164" stroke="white" stroke-linecap="round"/>
<path d="M26.2581 50.2473C26.008 50.2171 26.2467 46.6288 26.5319 46.4847" stroke="white" stroke-linecap="round"/>
<path d="M0.791142 49.3398C0.754291 49.6056 9.28679 49.7313 10.1169 49.9122C12.869 50.5119 15.3967 50.2923 18.1558 50.2809C20.4761 50.2714 22.9 50.5507 25.2459 50.5411C26.1355 50.5374 27.7547 50.2187 28.5734 50.5595C29.1418 50.796 29.8516 50.6374 30.4551 50.7768C31.1587 50.9393 32.1946 50.9464 32.9152 50.9434C36.2308 50.9298 39.5472 51.2054 42.8907 51.1917C45.2487 51.1819 47.6142 51.7509 49.99 51.7411C51.3863 51.7353 52.8078 51.8741 54.178 51.8685C54.8423 51.8657 55.7273 51.7101 56.3564 51.9318C57.0629 52.1809 57.8996 51.8014 58.5994 52.0672C59.5142 52.4148 60.9429 52.1299 61.9271 52.1259C62.4093 52.1239 62.8916 52.1219 63.3738 52.1199C63.7971 52.1181 64.5704 52.497 64.3142 52.116" stroke="white" stroke-linecap="round"/>
<path d="M0.936523 49.4844C0.990048 49.8987 1.72315 50.4761 1.95472 50.8144C2.26751 51.2713 2.53804 51.7394 2.79643 52.2255C3.05461 52.7112 3.62178 53.7864 4.13778 53.956" stroke="white" stroke-linecap="round"/>
<path d="M64.4597 52.4041C64.459 52.237 63.7995 52.7841 63.6739 52.8735C63.3726 53.0881 62.6582 53.5475 62.2944 53.5704C61.5754 53.6157 60.8701 54.4359 60.2014 54.7364C59.8119 54.9115 59.3997 55.0492 59.0462 55.2475C58.7602 55.4079 58.3486 55.6952 58.0356 55.7661C57.5733 55.8708 55.977 56.5628 55.7979 56.9247" stroke="white" stroke-linecap="round"/>
<path d="M4.04004 54.0195C4.78132 54.0165 5.34142 54.1635 6.15725 54.1601C7.10597 54.1562 7.94951 54.3732 8.91378 54.3692C11.2259 54.3597 13.5652 54.6376 15.8839 54.7825C18.4904 54.9455 21.0534 55.0425 23.6732 55.0317C25.9331 55.0224 28.1788 55.5918 30.443 55.5825C31.394 55.5786 32.3451 55.5747 33.2962 55.5707C34.7806 55.5646 36.2431 55.8479 37.7098 55.8419C39.1511 55.8359 40.6021 56.264 42.0437 56.258C42.6363 56.2556 43.1692 56.3981 43.7562 56.3956C44.2803 56.3935 44.8848 56.3062 45.3881 56.4612C46.5217 56.8104 48.0971 56.8117 49.2877 56.8068C50.011 56.8039 50.7344 56.8009 51.4577 56.7979C52.1811 56.7949 52.9044 56.7919 53.6278 56.7889C54.2704 56.7863 55.1263 57.135 55.6532 56.7806" stroke="white" stroke-linecap="round"/>
<path d="M71.1514 49.3217C71.1373 49.4379 70.928 49.536 70.86 49.6309C70.7448 49.7918 70.5504 50.2352 70.617 50.4482C70.7166 50.7674 70.9146 51.1442 70.9523 51.471C70.9667 51.5957 71.2399 52.1013 71.3711 52.1778C71.661 52.3467 71.8777 52.769 72.2401 52.848C72.7696 52.9633 73.5235 53.2783 74.0074 52.8445C74.4183 52.4763 74.9939 52.2369 75.4243 51.8992C75.8623 51.5556 75.9376 50.5646 75.7288 50.0999C75.4686 49.5209 75.2109 49.1814 74.7529 48.7524C74.2344 48.2667 73.2337 48.0576 72.6029 48.3763C72.0649 48.6481 71.4976 48.8317 71.221 49.3907" stroke="white" stroke-linecap="round"/>
<path d="M72.0536 49.6654C71.9118 49.6838 71.9879 50.2029 71.9869 50.2895C71.9863 50.3418 71.9203 50.9425 71.9193 50.7056" stroke="white" stroke-linecap="round"/>
<path d="M73.2285 48.8281C73.2297 49.1053 73.2331 49.937 73.2319 49.6598" stroke="white" stroke-linecap="round"/>
<path d="M73.9901 48.6871C73.8312 48.8673 73.9195 49.3268 73.9396 49.5267C73.9533 49.6625 74.0027 49.7972 73.9952 49.9346C73.9921 49.9919 73.929 50.0042 73.9955 50.0039" stroke="white" stroke-linecap="round"/>
<path d="M77.666 41.5585C77.3924 41.8689 77.5581 42.675 77.6556 43.0583C77.7734 43.5214 78.0623 43.8665 78.3146 44.2554C78.7279 44.8925 79.5784 45.2251 80.3058 45.2221C80.714 45.2204 80.8662 45.2183 81.1881 44.9935C81.4185 44.8326 81.9625 44.6701 82.1023 44.4231C82.2393 44.181 82.5763 44.03 82.6994 43.7499C82.8375 43.4357 82.9305 43.1233 83.0538 42.8111C83.4866 41.7161 82.2177 39.7514 81.0495 39.6698C80.2431 39.6134 79.5841 39.6364 78.8219 39.9789C78.4315 40.1544 78.3882 40.547 78.1505 40.8399C77.9733 41.0584 77.6774 41.3721 77.5914 41.6338" stroke="white" stroke-linecap="round"/>
<path d="M78.8665 41.5537C78.8677 41.8579 78.8614 43.1285 78.873 43.1285" stroke="white" stroke-linecap="round"/>
<path d="M79.6092 40.0505C79.6108 40.4534 79.5375 40.8564 79.5391 41.2506" stroke="white" stroke-linecap="round"/>
<path d="M80.8101 40.2709C80.8017 40.272 80.7293 41.2759 80.6651 41.4713" stroke="white" stroke-linecap="round"/>
<path d="M81.567 41.9174C81.4088 41.9378 81.4493 43.1033 81.4226 43.2678" stroke="white" stroke-linecap="round"/>
<path d="M72.4379 31.5544C72.4064 31.4458 71.6014 29.7449 71.5938 29.631C71.5914 29.594 71.6688 29.8185 71.7281 29.8969" stroke="white" stroke-linecap="round"/>
<path d="M71.4757 33.2939C71.4593 33.1667 70.6629 33.5893 70.637 33.6008C70.4043 33.7035 70.109 33.899 69.8427 33.9001C69.7702 33.9004 69.6131 33.9008 69.6802 33.9673" stroke="white" stroke-linecap="round"/>
<path d="M73.0789 34.4863C72.9842 34.4749 73.0383 34.4334 73.1124 34.5232C73.4148 34.8897 73.6648 35.3392 73.8945 35.7522C74.0023 35.946 74.077 36.175 74.0859 36.3989C74.0904 36.5123 74.0865 36.5472 74.0859 36.4137" stroke="white" stroke-linecap="round"/>
<path d="M74.1362 32.2857C74.0586 32.286 74.1532 32.3448 74.1771 32.3447C74.2747 32.3443 74.4005 32.2391 74.4725 32.1918C74.797 31.9785 75.118 31.7619 75.4579 31.5734C75.5449 31.5252 75.6804 31.4779 75.7607 31.4131" stroke="white" stroke-linecap="round"/>
</svg>
