<svg width="361" height="30" viewBox="0 0 361 30" fill="none" xmlns="http://www.w3.org/2000/svg">
<g filter="url(#filter0_d_606_19988)">
<path d="M10.5952 11.1893C11.1692 14.5163 15.2017 21.1701 26.7395 21.1701C38.2773 21.1701 42.7403 14.5163 43.5295 11.1893C43.673 15.578 47.8777 24.3555 63.5485 24.3555C79.2192 24.3555 85.0025 10.9062 85.9353 4.18156C87.4421 9.06577 94.1581 18.8342 108.968 18.8342C123.778 18.8342 128.628 9.06577 129.202 4.18156C129.848 10.1983 136.219 22.2319 156.54 22.2319C176.86 22.2319 181.797 10.1983 181.725 4.18157" stroke="#FDF9F5" stroke-width="2" stroke-linecap="round" stroke-linejoin="round"/>
<path d="M-159.143 11.1893C-158.569 14.5163 -154.537 21.1701 -142.999 21.1701C-131.461 21.1701 -126.998 14.5163 -126.209 11.1893C-126.065 15.578 -121.861 24.3555 -106.19 24.3555C-90.5191 24.3555 -84.7358 10.9062 -83.803 4.18156C-82.2962 9.06577 -75.5802 18.8342 -60.7705 18.8342C-45.9608 18.8342 -41.1103 9.06577 -40.5363 4.18156C-39.8905 10.1983 -33.5189 22.2319 -13.1986 22.2319C7.12172 22.2319 12.0583 10.1983 11.9865 4.18157" stroke="#FDF9F5" stroke-width="2" stroke-linecap="round" stroke-linejoin="round"/>
<path d="M350.076 11.1893C350.65 14.5163 354.682 21.1701 366.22 21.1701C377.758 21.1701 382.221 14.5163 383.01 11.1893C383.154 15.578 387.358 24.3555 403.029 24.3555C418.7 24.3555 424.483 10.9062 425.416 4.18156C426.923 9.06577 433.639 18.8342 448.448 18.8342C463.258 18.8342 468.108 9.06577 468.682 4.18156C469.328 10.1983 475.7 22.2319 496.02 22.2319C516.34 22.2319 521.277 10.1983 521.205 4.18157" stroke="#FDF9F5" stroke-width="2" stroke-linecap="round" stroke-linejoin="round"/>
<path d="M180.333 11.1893C180.907 14.5163 184.94 21.1701 196.478 21.1701C208.016 21.1701 212.479 14.5163 213.268 11.1893C213.411 15.578 217.616 24.3555 233.287 24.3555C248.958 24.3555 254.741 10.9062 255.674 4.18156C257.18 9.06577 263.896 18.8342 278.706 18.8342C293.516 18.8342 298.366 9.06577 298.94 4.18156C299.586 10.1983 305.958 22.2319 326.278 22.2319C346.598 22.2319 351.535 10.1983 351.463 4.18157" stroke="#FDF9F5" stroke-width="2" stroke-linecap="round" stroke-linejoin="round"/>
<path d="M599.117 11.8297L605.378 16.3514L607.813 0.699219H352.16C351.813 2.67023 351.117 6.68183 351.117 6.96009C351.117 7.23835 350.189 9.85864 349.726 11.134L351.465 14.9601L357.378 19.8297L365.726 21.221L372.682 20.5253L378.943 17.047L382.769 12.8731L386.943 19.8297L394.247 23.3079L403.639 24.6992L410.247 23.3079L415.813 20.5253L419.291 17.7427L422.421 12.8731L424.16 8.69922L425.552 5.22096L431.117 12.8731L437.726 17.047L447.813 19.134L456.856 17.7427L464.508 12.8731L468.682 6.26444L475.639 16.0036L488.508 22.2644H500.334L508.682 20.1775L515.639 16.0036L519.117 12.8731L525.03 18.7862L532.682 21.221L541.378 20.5253L546.247 18.4383L549.378 16.0036L551.813 12.1775L554.943 18.4383L558.421 21.221L565.726 24.0036L572.682 24.3514L579.291 23.6557L584.16 21.221L589.378 16.3514L593.204 8.69922L594.247 4.17748L599.117 11.8297Z" fill="#FDF9F5"/>
<path d="M429.031 11.8297L435.292 16.3514L437.727 0.699219H182.074C181.727 2.67023 181.031 6.68183 181.031 6.96009C181.031 7.23835 180.103 9.85864 179.64 11.134L181.379 14.9601L187.292 19.8297L195.64 21.221L202.596 20.5253L208.857 17.047L212.683 12.8731L216.857 19.8297L224.161 23.3079L233.553 24.6992L240.161 23.3079L245.727 20.5253L249.205 17.7427L252.335 12.8731L254.074 8.69922L255.466 5.22096L261.031 12.8731L267.64 17.047L277.727 19.134L286.77 17.7427L294.422 12.8731L298.596 6.26444L305.553 16.0036L318.422 22.2644H330.248L338.596 20.1775L345.553 16.0036L349.031 12.8731L354.944 18.7862L362.596 21.221L371.292 20.5253L376.161 18.4383L379.292 16.0036L381.727 12.1775L384.857 18.4383L388.335 21.221L395.64 24.0036L402.596 24.3514L409.205 23.6557L414.074 21.221L419.292 16.3514L423.118 8.69922L424.161 4.17748L429.031 11.8297Z" fill="#FDF9F5"/>
<path d="M259.293 11.8297L265.554 16.3514L267.988 0.699219H12.3361C11.9883 2.67023 11.2927 6.68183 11.2927 6.96009C11.2927 7.23835 10.3651 9.85864 9.90137 11.134L11.6405 14.9601L17.5535 19.8297L25.9014 21.221L32.8579 20.5253L39.1188 17.047L42.9448 12.8731L47.1188 19.8297L54.4231 23.3079L63.8144 24.6992L70.4231 23.3079L75.9883 20.5253L79.4666 17.7427L82.597 12.8731L84.3361 8.69922L85.7274 5.22096L91.2927 12.8731L97.9014 17.047L107.988 19.134L117.032 17.7427L124.684 12.8731L128.858 6.26444L135.814 16.0036L148.684 22.2644H160.51L168.858 20.1775L175.814 16.0036L179.293 12.8731L185.206 18.7862L192.858 21.221L201.554 20.5253L206.423 18.4383L209.554 16.0036L211.988 12.1775L215.119 18.4383L218.597 21.221L225.901 24.0036L232.858 24.3514L239.467 23.6557L244.336 21.221L249.554 16.3514L253.38 8.69922L254.423 4.17748L259.293 11.8297Z" fill="#FDF9F5"/>
<path d="M89.5505 11.8297L95.8113 16.3514L98.2461 0.699219H-157.406C-157.754 2.67023 -158.45 6.68183 -158.45 6.96009C-158.45 7.23835 -159.377 9.85864 -159.841 11.134L-158.102 14.9601L-152.189 19.8297L-143.841 21.221L-136.884 20.5253L-130.623 17.047L-126.797 12.8731L-122.623 19.8297L-115.319 23.3079L-105.928 24.6992L-99.3191 23.3079L-93.7539 20.5253L-90.2756 17.7427L-87.1452 12.8731L-85.406 8.69922L-84.0147 5.22096L-78.4495 12.8731L-71.8408 17.047L-61.7539 19.134L-52.7104 17.7427L-45.0582 12.8731L-40.8843 6.26444L-33.9278 16.0036L-21.0582 22.2644H-9.23213L-0.884308 20.1775L6.0722 16.0036L9.55048 12.8731L15.4635 18.7862L23.1157 21.221L31.8113 20.5253L36.6809 18.4383L39.8113 16.0036L42.2461 12.1775L45.3766 18.4383L48.8548 21.221L56.1592 24.0036L63.1157 24.3514L69.7244 23.6557L74.5939 21.221L79.8113 16.3514L83.6374 8.69922L84.6809 4.17748L89.5505 11.8297Z" fill="#FDF9F5"/>
</g>
<defs>
<filter id="filter0_d_606_19988" x="-499.928" y="0.699219" width="1363.92" height="28.6562" filterUnits="userSpaceOnUse" color-interpolation-filters="sRGB">
<feFlood flood-opacity="0" result="BackgroundImageFix"/>
<feColorMatrix in="SourceAlpha" type="matrix" values="0 0 0 0 0 0 0 0 0 0 0 0 0 0 0 0 0 0 127 0" result="hardAlpha"/>
<feOffset dx="1" dy="2"/>
<feGaussianBlur stdDeviation="1"/>
<feComposite in2="hardAlpha" operator="out"/>
<feColorMatrix type="matrix" values="0 0 0 0 0 0 0 0 0 0 0 0 0 0 0 0 0 0 0.7 0"/>
<feBlend mode="normal" in2="BackgroundImageFix" result="effect1_dropShadow_606_19988"/>
<feBlend mode="normal" in="SourceGraphic" in2="effect1_dropShadow_606_19988" result="shape"/>
</filter>
</defs>
</svg>
