<svg width="11" height="12" viewBox="0 0 11 12" fill="none" xmlns="http://www.w3.org/2000/svg">
<path d="M5.58192 0.0273438C6.87076 0.0273438 7.91561 1.07217 7.91561 2.36104H9.10294C9.73117 2.36104 10.2466 2.85842 10.2691 3.48624L10.5191 10.4873C10.5427 11.1476 10.0138 11.6958 9.35299 11.6958H1.8109C1.15015 11.6958 0.62122 11.1477 0.644802 10.4873L0.89484 3.48624C0.917261 2.85842 1.43272 2.36104 2.06095 2.36104H3.24822C3.24822 1.07217 4.29305 0.0273438 5.58192 0.0273438ZM3.24822 3.52789H2.06095L1.8109 10.529H9.35299L9.10294 3.52789H7.91561V4.11131C7.91561 4.43352 7.65441 4.69473 7.33219 4.69473C7.03298 4.69473 6.78639 4.46951 6.75269 4.17935L6.74877 4.11131V3.52789H4.41507V4.11131C4.41507 4.43352 4.15386 4.69473 3.83165 4.69473C3.53245 4.69473 3.28585 4.46951 3.25215 4.17935L3.24822 4.11131V3.52789ZM5.58192 1.19419C4.96676 1.19419 4.46281 1.67019 4.41827 2.27396L4.41507 2.36104H6.74877C6.74877 1.71661 6.22637 1.19419 5.58192 1.19419Z" fill="white"/>
</svg>
