<svg width="103" height="97" viewBox="0 0 103 97" fill="none" xmlns="http://www.w3.org/2000/svg">
<path d="M89.9329 79.4841C88.2809 79.5928 88.5679 82.2152 89.9596 80.9779C90.3049 80.6709 90.3376 80.3682 90.4014 79.9545C90.4617 79.5632 90.2026 78.9676 90.0849 79.6173" stroke="white" stroke-width="2.25241" stroke-linecap="round"/>
<path d="M71.8094 75.0627C70.0767 75.3961 72.4695 79.8796 73.6661 77.033C73.9574 76.3401 73.9725 75.655 73.1849 75.2712C72.777 75.0724 71.4134 74.7393 72.4242 75.3212" stroke="white" stroke-width="3.37861" stroke-linecap="round"/>
<path d="M87.0354 64.0512C86.0652 64.2379 86.2521 67.8499 88.3276 66.26" stroke="white" stroke-width="5.63102" stroke-linecap="round"/>
<path d="M1.02751 6.68099C1.15565 8.62885 2.01096 11.0738 2.69437 12.9244C3.31029 14.5923 3.78151 16.3443 4.48815 17.9758C4.88148 18.884 5.15722 19.8461 5.59929 20.729C6.01167 21.5526 6.5668 22.3537 6.94558 23.201C7.98896 25.5349 10.1902 27.1389 11.5476 29.2634C11.9745 29.9316 12.5483 30.5342 13.0828 31.1191C13.8051 31.9095 14.244 32.8911 14.9325 33.715C15.9126 34.8879 16.9578 35.8845 18.0097 36.9789C19.9631 39.0113 21.4864 41.3958 23.6513 43.2387C24.8146 44.2289 26.3229 45.2733 27.2353 46.4935C28.0738 47.6148 29.4423 48.2381 30.2479 49.3269C30.8374 50.1236 32.4284 51.0201 33.2788 51.519C34.3456 52.1447 35.1929 52.9771 36.1325 53.771C37.9943 55.344 40.1494 56.476 41.9715 58.0732C42.6649 58.681 43.6335 59.0525 44.3904 59.5929C45.0543 60.0669 46.0114 60.6251 46.7743 60.9458C47.8388 61.3933 49.4835 62.5633 50.5761 62.5557C51.1978 62.5514 51.1536 61.5505 51.4697 61.0838C51.9299 60.4043 52.4346 60.2282 53.1125 59.9853C54.2683 59.5713 55.4723 58.0999 56.2648 57.2295C57.8363 55.5033 59.5857 54.1228 60.8861 52.2029C61.6817 51.0283 61.863 49.0607 61.7727 47.6877C61.7241 46.9482 61.6854 46.3602 61.6374 45.6313C61.5846 44.8281 60.7773 44.2826 60.3115 43.6531C59.2722 42.2485 57.4758 41.2695 56.1531 40.11C55.3498 39.406 54.5466 38.7019 53.7434 37.9979C53.1297 37.4599 52.3603 36.3638 51.656 36.0095C51.103 35.7314 50.723 35.0737 50.2606 34.6277C49.7838 34.1678 48.9964 33.5469 48.6314 32.9957C48.2495 32.4188 47.4473 32.084 47.0582 31.4807C46.6388 30.8304 46.0778 30.1345 45.3777 29.8037C43.7752 29.0465 42.5124 27.1334 41.2139 25.9952C39.9211 24.862 38.6845 23.7782 37.4071 22.6585C35.8855 21.3247 34.1093 20.3301 32.5409 19.0049C31.6386 18.2426 30.2915 17.4002 29.2084 17.0018C27.9842 16.5514 26.8422 15.7322 25.6167 15.2814C24.9646 15.0415 24.4565 14.4502 23.8596 14.0926C23.2369 13.7194 22.3941 13.5706 21.8434 13.1865C20.9043 12.5315 19.1624 12.6636 18.318 11.7396C17.7405 11.1077 15.5323 10.1685 14.7334 10.1274C14.2658 10.1034 11.9119 9.2498 11.6103 8.91975C10.9495 8.19669 9.16278 8.21881 8.28176 7.89468C7.77406 7.7079 6.6701 7.93355 6.30109 7.52978C6.10423 7.31436 4.92476 7.07681 4.64197 7.09541C3.9296 7.14228 1.47713 6.85963 1.64843 6.20532" stroke="white" stroke-width="1.1262" stroke-linecap="round"/>
<path d="M17.118 23.2345C17.0003 25.8488 17.2314 29.8696 18.8867 32.1284C19.7204 33.266 20.0948 34.5965 21.3041 35.46C22.0881 36.0197 23.3236 36.5228 24.2928 36.4591C26.6424 36.3045 28.8849 36.4055 31.2198 36.0034C31.9009 35.886 32.9818 34.061 33.1766 33.4348C33.5048 32.3791 33.6615 30.794 33.632 29.709C33.6048 28.7137 33.1044 27.0857 32.6417 26.2232C31.9923 25.0124 31.346 23.4272 30.3417 22.4732C29.5562 21.7271 28.805 20.2686 27.6503 19.9327C26.3342 19.5499 25.1453 18.7008 23.8542 18.2258C22.0466 17.5608 19.7179 18.524 18.1778 19.5172C17.2093 20.1418 17.2183 21.2392 16.8784 22.1632C16.662 22.7514 16.9851 24.5189 16.9442 23.8982" stroke="white" stroke-width="1.1262" stroke-linecap="round"/>
<path d="M64.73 54.9141C64.8472 55.5236 67.4174 55.906 67.846 56.0135C70.1739 56.5976 72.6628 56.5738 74.9382 57.3345C75.97 57.6794 77.0024 58.0511 78.0479 58.3377C78.6889 58.5134 79.4141 58.9236 78.4359 58.3605" stroke="white" stroke-width="1.1262" stroke-linecap="round"/>
<path d="M61.9414 58.791C62.0061 59.1543 62.3199 59.5081 62.5835 59.7392C64.3365 61.2758 66.2744 62.5522 68.1492 63.9265C70.3495 65.5393 72.8648 66.8242 75.3682 67.9084C76.2379 68.285 77.1291 68.6597 77.9501 69.1517C78.0729 69.2252 79.3568 69.9009 78.7434 69.643" stroke="white" stroke-width="1.1262" stroke-linecap="round"/>
<path d="M56.5703 63.0586C56.6676 64.5377 57.821 65.9105 58.4844 67.1842C59.1186 68.4018 59.9128 69.6632 60.6682 70.821C61.0287 71.3735 61.3747 71.9326 61.7089 72.5038C61.8632 72.7675 62.7712 73.6267 62.2184 72.9051" stroke="white" stroke-width="1.1262" stroke-linecap="round"/>
<path d="M33.6576 20.1867C35.2159 20.0841 36.7955 19.328 38.3772 19.2239C39.7801 19.1316 41.5753 18.9646 42.9444 19.2496C45.0729 19.6927 47.1736 19.6831 49.3146 20.2436C51.0614 20.701 52.7768 21.2898 54.4295 21.9846C57.694 23.3569 60.1369 25.8979 62.9855 27.9318C65.6624 29.8429 66.9345 32.8095 69.0994 35.1267C70.2771 36.3873 71.0665 37.9194 72.2882 39.1684C72.9583 39.8536 73.3002 40.8809 73.7218 41.683C74.0511 42.3095 74.0696 43.5824 74.6842 44.0111C75.546 44.6122 72.6728 43.394 71.6457 43.1723C70.3262 42.8875 68.8842 43.0068 67.6219 42.4104C66.8232 42.033 65.1286 41.8135 64.2168 41.8735C63.3543 41.9302 62.4164 41.7745 61.4967 41.835C61.0883 41.8619 59.0013 41.9963 59.4544 42.1868" stroke="white" stroke-width="1.1262" stroke-linecap="round"/>
<path d="M19.6854 39.152C19.2961 39.234 19.5213 42.2269 19.4755 42.753C19.3673 43.994 19.2493 45.6971 19.8655 46.8459C20.1226 47.3253 20.2579 48.3462 20.3263 48.8931C20.4279 49.7056 20.7975 50.6543 21.1434 51.3999C21.6772 52.5504 22.1929 53.7092 22.7935 54.8181C23.2534 55.6672 23.9203 56.4934 24.3145 57.3752C25.5887 60.2254 27.7937 62.4522 29.94 64.6748C32.7228 67.5564 36.4883 68.8576 39.8202 70.9214C41.1102 71.7204 42.5622 72.6812 43.9926 73.2074C44.7164 73.4737 45.2304 74.1509 46.0143 74.3789C46.5791 74.5432 47.2949 74.7794 47.8079 75.0218C48.2988 75.2538 50.4103 75.8748 49.4835 74.972C48.8584 74.3631 48.5423 73.0366 48.1229 72.2835C47.0013 70.2691 46.6724 68.2014 46.0312 66.0076C45.7245 64.9583 45.9274 63.6561 45.4136 62.6785C45.1323 62.1433 44.6021 59.8818 45.656 60.4884" stroke="white" stroke-width="1.1262" stroke-linecap="round"/>
<path d="M93.1405 71.6819C92.7675 71.7064 93.7525 72.0368 93.8288 72.0711C94.7821 72.4998 95.6537 73.0894 96.5862 73.53C96.8096 73.6355 97.1128 74.1517 97.0062 73.9695" stroke="white" stroke-width="1.1262" stroke-linecap="round"/>
<path d="M96.1532 69.9198C95.688 70.518 95.4683 71.3989 95.1544 72.0767C94.9187 72.5857 94.7297 73.0934 94.6163 73.6383C94.5497 73.9582 94.451 74.2588 94.4013 74.5813C94.3812 74.7118 94.1108 75.0573 94.3318 74.928" stroke="white" stroke-width="1.1262" stroke-linecap="round"/>
<path d="M77.7797 80.217C77.4066 80.2416 78.3917 80.5719 78.468 80.6063C79.4212 81.035 80.2928 81.6245 81.2254 82.0652C81.4487 82.1707 81.752 82.6869 81.6454 82.5047" stroke="white" stroke-width="1.1262" stroke-linecap="round"/>
<path d="M80.7928 78.4569C80.3277 79.0551 80.1079 79.936 79.7941 80.6138C79.5584 81.1228 79.3693 81.6305 79.2559 82.1754C79.1893 82.4953 79.0906 82.7959 79.0409 83.1184C79.0208 83.2489 78.7505 83.5944 78.9714 83.4651" stroke="white" stroke-width="1.1262" stroke-linecap="round"/>
<path d="M97.955 86.8127C97.5819 86.8373 98.567 87.1676 98.6432 87.202C99.5965 87.6307 100.468 88.2202 101.401 88.6609C101.624 88.7664 101.927 89.2826 101.821 89.1004" stroke="white" stroke-width="1.1262" stroke-linecap="round"/>
<path d="M100.968 85.0487C100.502 85.6469 100.283 86.5278 99.9689 87.2056C99.7332 87.7146 99.5442 88.2223 99.4307 88.7672C99.3641 89.0871 99.2654 89.3877 99.2157 89.7102C99.1956 89.8407 98.9253 90.1862 99.1462 90.0569" stroke="white" stroke-width="1.1262" stroke-linecap="round"/>
</svg>
