<svg width="1502" height="40" viewBox="0 0 1502 40" fill="none" xmlns="http://www.w3.org/2000/svg">
<g filter="url(#filter0_d_732_24505)">
<path d="M733.481 15.769C734.307 20.5514 740.103 30.1163 756.689 30.1163C773.274 30.1164 779.69 20.5514 780.825 15.769C781.031 22.0778 787.075 34.6953 809.602 34.6953C832.129 34.6953 840.442 15.362 841.783 5.69532C843.949 12.7164 853.603 26.7585 874.892 26.7585C896.181 26.7585 903.154 12.7164 903.979 5.69533C904.907 14.3444 914.066 31.6427 943.277 31.6427C972.487 31.6427 979.583 14.3445 979.48 5.69533" stroke="#FDF9F5" stroke-width="2" stroke-linecap="round" stroke-linejoin="round"/>
<path d="M489.481 15.769C490.307 20.5514 496.103 30.1163 512.689 30.1163C529.274 30.1164 535.69 20.5514 536.825 15.769C537.031 22.0778 543.075 34.6953 565.602 34.6953C588.129 34.6953 596.442 15.362 597.783 5.69532C599.949 12.7164 609.603 26.7585 630.892 26.7585C652.181 26.7585 659.154 12.7164 659.979 5.69533C660.907 14.3444 670.066 31.6427 699.277 31.6427C728.487 31.6427 735.583 14.3445 735.48 5.69533" stroke="#FDF9F5" stroke-width="2" stroke-linecap="round" stroke-linejoin="round"/>
<path d="M246.481 15.769C247.307 20.5514 253.103 30.1163 269.689 30.1163C286.274 30.1164 292.69 20.5514 293.825 15.769C294.031 22.0778 300.075 34.6953 322.602 34.6953C345.129 34.6953 353.442 15.362 354.783 5.69532C356.949 12.7164 366.603 26.7585 387.892 26.7585C409.181 26.7585 416.154 12.7164 416.979 5.69533C417.907 14.3444 427.066 31.6427 456.277 31.6427C485.487 31.6427 492.583 14.3445 492.48 5.69533" stroke="#FDF9F5" stroke-width="2" stroke-linecap="round" stroke-linejoin="round"/>
<path d="M2.48144 15.769C3.30659 20.5514 9.10329 30.1163 25.6889 30.1163C42.2745 30.1164 48.69 20.5514 49.8246 15.769C50.0309 22.0778 56.0752 34.6953 78.6019 34.6953C101.129 34.6953 109.442 15.362 110.783 5.69532C112.949 12.7164 122.603 26.7585 143.892 26.7585C165.181 26.7585 172.154 12.7164 172.979 5.69533C173.907 14.3444 183.066 31.6427 212.277 31.6427C241.487 31.6427 248.583 14.3445 248.48 5.69533" stroke="#FDF9F5" stroke-width="2" stroke-linecap="round" stroke-linejoin="round"/>
<path d="M1464.48 15.769C1465.31 20.5514 1471.1 30.1163 1487.69 30.1163C1504.27 30.1164 1510.69 20.5514 1511.82 15.769C1512.03 22.0778 1518.08 34.6953 1540.6 34.6953C1563.13 34.6953 1571.44 15.362 1572.78 5.69532C1574.95 12.7164 1584.6 26.7585 1605.89 26.7585C1627.18 26.7585 1634.15 12.7164 1634.98 5.69533C1635.91 14.3444 1645.07 31.6427 1674.28 31.6427C1703.49 31.6427 1710.58 14.3445 1710.48 5.69533" stroke="#FDF9F5" stroke-width="2" stroke-linecap="round" stroke-linejoin="round"/>
<path d="M1221.48 15.769C1222.31 20.5514 1228.1 30.1163 1244.69 30.1163C1261.27 30.1164 1267.69 20.5514 1268.82 15.769C1269.03 22.0778 1275.08 34.6953 1297.6 34.6953C1320.13 34.6953 1328.44 15.362 1329.78 5.69532C1331.95 12.7164 1341.6 26.7585 1362.89 26.7585C1384.18 26.7585 1391.15 12.7164 1391.98 5.69533C1392.91 14.3444 1402.07 31.6427 1431.28 31.6427C1460.49 31.6427 1467.58 14.3445 1467.48 5.69533" stroke="#FDF9F5" stroke-width="2" stroke-linecap="round" stroke-linejoin="round"/>
<path d="M977.481 15.769C978.307 20.5514 984.103 30.1163 1000.69 30.1163C1017.27 30.1164 1023.69 20.5514 1024.82 15.769C1025.03 22.0778 1031.08 34.6953 1053.6 34.6953C1076.13 34.6953 1084.44 15.362 1085.78 5.69532C1087.95 12.7164 1097.6 26.7585 1118.89 26.7585C1140.18 26.7585 1147.15 12.7164 1147.98 5.69533C1148.91 14.3444 1158.07 31.6427 1187.28 31.6427C1216.49 31.6427 1223.58 14.3445 1223.48 5.69533" stroke="#FDF9F5" stroke-width="2" stroke-linecap="round" stroke-linejoin="round"/>
<path d="M1579.48 16.6953L1588.48 23.1953L1591.98 0.695312H1224.48C1223.98 3.52865 1222.98 9.29531 1222.98 9.69531C1222.98 10.0953 1221.65 13.862 1220.98 15.6953L1223.48 21.1953L1231.98 28.1953L1243.98 30.1953L1253.98 29.1953L1262.98 24.1953L1268.48 18.1953L1274.48 28.1953L1284.98 33.1953L1298.48 35.1953L1307.98 33.1953L1315.98 29.1953L1320.98 25.1953L1325.48 18.1953L1327.98 12.1953L1329.98 7.19531L1337.98 18.1953L1347.48 24.1953L1361.98 27.1953L1374.98 25.1953L1385.98 18.1953L1391.98 8.69531L1401.98 22.6953L1420.48 31.6953H1437.48L1449.48 28.6953L1459.48 22.6953L1464.48 18.1953L1472.98 26.6953L1483.98 30.1953L1496.48 29.1953L1503.48 26.1953L1507.98 22.6953L1511.48 17.1953L1515.98 26.1953L1520.98 30.1953L1531.48 34.1953L1541.48 34.6953L1550.98 33.6953L1557.98 30.1953L1565.48 23.1953L1570.98 12.1953L1572.48 5.69531L1579.48 16.6953Z" fill="#FDF9F5"/>
<path d="M1334.98 16.6953L1343.98 23.1953L1347.48 0.695312H979.981C979.481 3.52865 978.481 9.29531 978.481 9.69531C978.481 10.0953 977.148 13.862 976.481 15.6953L978.981 21.1953L987.481 28.1953L999.481 30.1953L1009.48 29.1953L1018.48 24.1953L1023.98 18.1953L1029.98 28.1953L1040.48 33.1953L1053.98 35.1953L1063.48 33.1953L1071.48 29.1953L1076.48 25.1953L1080.98 18.1953L1083.48 12.1953L1085.48 7.19531L1093.48 18.1953L1102.98 24.1953L1117.48 27.1953L1130.48 25.1953L1141.48 18.1953L1147.48 8.69531L1157.48 22.6953L1175.98 31.6953H1192.98L1204.98 28.6953L1214.98 22.6953L1219.98 18.1953L1228.48 26.6953L1239.48 30.1953L1251.98 29.1953L1258.98 26.1953L1263.48 22.6953L1266.98 17.1953L1271.48 26.1953L1276.48 30.1953L1286.98 34.1953L1296.98 34.6953L1306.48 33.6953L1313.48 30.1953L1320.98 23.1953L1326.48 12.1953L1327.98 5.69531L1334.98 16.6953Z" fill="#FDF9F5"/>
<path d="M1090.98 16.6953L1099.98 23.1953L1103.48 0.695312H735.981C735.481 3.52865 734.481 9.29531 734.481 9.69531C734.481 10.0953 733.148 13.862 732.481 15.6953L734.981 21.1953L743.481 28.1953L755.481 30.1953L765.481 29.1953L774.481 24.1953L779.981 18.1953L785.981 28.1953L796.481 33.1953L809.981 35.1953L819.481 33.1953L827.481 29.1953L832.481 25.1953L836.981 18.1953L839.481 12.1953L841.481 7.19531L849.481 18.1953L858.981 24.1953L873.481 27.1953L886.481 25.1953L897.481 18.1953L903.481 8.69531L913.481 22.6953L931.981 31.6953H948.981L960.981 28.6953L970.981 22.6953L975.981 18.1953L984.481 26.6953L995.481 30.1953L1007.98 29.1953L1014.98 26.1953L1019.48 22.6953L1022.98 17.1953L1027.48 26.1953L1032.48 30.1953L1042.98 34.1953L1052.98 34.6953L1062.48 33.6953L1069.48 30.1953L1076.98 23.1953L1082.48 12.1953L1083.98 5.69531L1090.98 16.6953Z" fill="#FDF9F5"/>
<path d="M846.981 16.6953L855.981 23.1953L859.481 0.695312H491.981C491.481 3.52865 490.481 9.29531 490.481 9.69531C490.481 10.0953 489.148 13.862 488.481 15.6953L490.981 21.1953L499.481 28.1953L511.481 30.1953L521.481 29.1953L530.481 24.1953L535.981 18.1953L541.981 28.1953L552.481 33.1953L565.981 35.1953L575.481 33.1953L583.481 29.1953L588.481 25.1953L592.981 18.1953L595.481 12.1953L597.481 7.19531L605.481 18.1953L614.981 24.1953L629.481 27.1953L642.481 25.1953L653.481 18.1953L659.481 8.69531L669.481 22.6953L687.981 31.6953H704.981L716.981 28.6953L726.981 22.6953L731.981 18.1953L740.481 26.6953L751.481 30.1953L763.981 29.1953L770.981 26.1953L775.481 22.6953L778.981 17.1953L783.481 26.1953L788.481 30.1953L798.981 34.1953L808.981 34.6953L818.481 33.6953L825.481 30.1953L832.981 23.1953L838.481 12.1953L839.981 5.69531L846.981 16.6953Z" fill="#FDF9F5"/>
<path d="M603.981 16.6953L612.981 23.1953L616.481 0.695312H248.981C248.481 3.52865 247.481 9.29531 247.481 9.69531C247.481 10.0953 246.148 13.862 245.481 15.6953L247.981 21.1953L256.481 28.1953L268.481 30.1953L278.481 29.1953L287.481 24.1953L292.981 18.1953L298.981 28.1953L309.481 33.1953L322.981 35.1953L332.481 33.1953L340.481 29.1953L345.481 25.1953L349.981 18.1953L352.481 12.1953L354.481 7.19531L362.481 18.1953L371.981 24.1953L386.481 27.1953L399.481 25.1953L410.481 18.1953L416.481 8.69531L426.481 22.6953L444.981 31.6953H461.981L473.981 28.6953L483.981 22.6953L488.981 18.1953L497.481 26.6953L508.481 30.1953L520.981 29.1953L527.981 26.1953L532.481 22.6953L535.981 17.1953L540.481 26.1953L545.481 30.1953L555.981 34.1953L565.981 34.6953L575.481 33.6953L582.481 30.1953L589.981 23.1953L595.481 12.1953L596.981 5.69531L603.981 16.6953Z" fill="#FDF9F5"/>
<path d="M359.981 16.6953L368.981 23.1953L372.481 0.695312H4.98145C4.48145 3.52865 3.48145 9.29531 3.48145 9.69531C3.48145 10.0953 2.14811 13.862 1.48145 15.6953L3.98145 21.1953L12.4814 28.1953L24.4814 30.1953L34.4814 29.1953L43.4814 24.1953L48.9814 18.1953L54.9814 28.1953L65.4814 33.1953L78.9814 35.1953L88.4814 33.1953L96.4814 29.1953L101.481 25.1953L105.981 18.1953L108.481 12.1953L110.481 7.19531L118.481 18.1953L127.981 24.1953L142.481 27.1953L155.481 25.1953L166.481 18.1953L172.481 8.69531L182.481 22.6953L200.981 31.6953H217.981L229.981 28.6953L239.981 22.6953L244.981 18.1953L253.481 26.6953L264.481 30.1953L276.981 29.1953L283.981 26.1953L288.481 22.6953L291.981 17.1953L296.481 26.1953L301.481 30.1953L311.981 34.1953L321.981 34.6953L331.481 33.6953L338.481 30.1953L345.981 23.1953L351.481 12.1953L352.981 5.69531L359.981 16.6953Z" fill="#FDF9F5"/>
</g>
<defs>
<filter id="filter0_d_732_24505" x="0.481445" y="0.695312" width="1958" height="39" filterUnits="userSpaceOnUse" color-interpolation-filters="sRGB">
<feFlood flood-opacity="0" result="BackgroundImageFix"/>
<feColorMatrix in="SourceAlpha" type="matrix" values="0 0 0 0 0 0 0 0 0 0 0 0 0 0 0 0 0 0 127 0" result="hardAlpha"/>
<feOffset dx="1" dy="2"/>
<feGaussianBlur stdDeviation="1"/>
<feComposite in2="hardAlpha" operator="out"/>
<feColorMatrix type="matrix" values="0 0 0 0 0 0 0 0 0 0 0 0 0 0 0 0 0 0 0.7 0"/>
<feBlend mode="normal" in2="BackgroundImageFix" result="effect1_dropShadow_732_24505"/>
<feBlend mode="normal" in="SourceGraphic" in2="effect1_dropShadow_732_24505" result="shape"/>
</filter>
</defs>
</svg>
