<svg width="40" height="66" viewBox="0 0 40 66" fill="none" xmlns="http://www.w3.org/2000/svg">
<g filter="url(#filter0_d_606_19794)">
<path d="M24.1213 56.0545C22.0759 55.9098 19.7035 54.8632 18.0785 53.7799C15.335 51.9509 13.209 48.4534 11.986 45.3958C10.6158 41.9706 10.1527 37.7211 10.8766 34.1019C11.5547 30.7115 13.3409 27.991 14.8504 24.9722C16.1424 22.3881 18.7076 19.8701 20.8884 18.0248C21.6674 17.3656 22.5162 16.1994 23.48 15.8424C24.4784 15.4726 25.4441 15.0614 26.4717 14.8331C27.164 14.6792 28.0431 14.7439 28.6814 14.4602C30.1698 13.7987 31.8661 13.5032 33.51 13.76C36.129 14.1693 38.8372 15.1555 41.1211 16.4244C41.8647 16.8375 42.8425 17.5469 43.3399 18.2703C44.0482 19.3006 45.3755 20.1494 45.8315 21.3348C46.3192 22.603 47.2751 23.6208 47.4955 25.054C47.7052 26.4168 48.0312 27.8183 48.2867 29.1915C48.4465 30.0504 48.1594 30.9598 48.1594 31.8285C48.1594 32.6673 47.9749 33.6564 47.7502 34.4656C47.547 35.197 47.5329 36.2314 47.5046 36.9936C47.4685 37.9682 47.2041 38.9023 47.1773 39.8671C47.1364 41.3394 46.3152 42.7136 46.0315 44.1319C45.7269 45.6548 44.7771 47.4774 43.9855 48.7968C42.671 50.9877 40.8523 53.636 38.2567 54.4346C36.1531 55.0819 34.2047 56.1609 32.0459 56.5534C30.5476 56.8258 28.7297 56.5625 27.2901 56.5625C26.6134 56.5625 25.9931 56.2761 25.4078 56.0351C25.1433 55.9262 24.9136 55.9078 24.5894 55.9078C24.3554 55.9078 24.2277 55.9628 24.1668 56.0066C24.1518 56.033 24.1393 56.0482 24.1311 56.0552C24.123 56.0621 24.1192 56.0609 24.1213 56.0545Z" fill="#DDB448"/>
<path d="M24.1213 56.0545C22.0759 55.9098 19.7035 54.8632 18.0785 53.7799C15.335 51.9509 13.209 48.4534 11.986 45.3958C10.6158 41.9706 10.1527 37.7211 10.8766 34.1019C11.5547 30.7115 13.3409 27.991 14.8504 24.9722C16.1424 22.3881 18.7076 19.8701 20.8884 18.0248C21.6674 17.3656 22.5162 16.1994 23.48 15.8424C24.4784 15.4726 25.4441 15.0614 26.4717 14.8331C27.164 14.6792 28.0431 14.7439 28.6814 14.4602C30.1698 13.7987 31.8661 13.5032 33.51 13.76C36.129 14.1693 38.8372 15.1555 41.1211 16.4244C41.8647 16.8375 42.8425 17.5469 43.3399 18.2703C44.0482 19.3006 45.3755 20.1494 45.8315 21.3348C46.3192 22.603 47.2751 23.6208 47.4955 25.054C47.7052 26.4168 48.0312 27.8183 48.2867 29.1915C48.4465 30.0504 48.1594 30.9598 48.1594 31.8285C48.1594 32.6673 47.9749 33.6564 47.7502 34.4656C47.547 35.197 47.5329 36.2314 47.5046 36.9936C47.4685 37.9682 47.2041 38.9023 47.1773 39.8671C47.1364 41.3394 46.3152 42.7136 46.0315 44.1319C45.7269 45.6548 44.7771 47.4774 43.9855 48.7968C42.671 50.9877 40.8523 53.636 38.2567 54.4346C36.1531 55.0819 34.2047 56.1609 32.0459 56.5534C30.5476 56.8258 28.7297 56.5625 27.2901 56.5625C26.6134 56.5625 25.9931 56.2761 25.4078 56.0351C25.1433 55.9262 24.9136 55.9078 24.5894 55.9078C24.3554 55.9078 24.2277 55.9628 24.1668 56.0066C24.1518 56.033 24.1393 56.0482 24.1311 56.0552C24.123 56.0621 24.1192 56.0609 24.1213 56.0545Z" fill="#FDF9F5" fill-opacity="0.48"/>
</g>
<path d="M10.7495 37.7149C9.74691 37.6135 10.5043 33.4373 10.6242 32.8417C10.8622 31.6601 11.4585 30.5354 11.7163 29.362C11.8784 28.6241 12.3125 27.8496 12.6025 27.1454C12.9399 26.3265 13.1973 25.4349 13.7215 24.6925C14.4969 23.5945 15.4341 22.5983 16.2279 21.5144C17.0463 20.3969 17.747 19.3165 18.806 18.3525C19.6526 17.5818 20.171 16.3171 21.3035 15.8589C21.8233 15.6486 22.1969 15.166 22.7626 14.9788C23.3922 14.7703 23.9579 14.5282 24.6066 14.3594C25.8859 14.0267 26.8436 13.3652 28.2321 13.3652C29.2103 13.3652 30.4878 13.3905 31.3741 13.7727C33.0196 14.4823 34.4243 15.2257 36.0468 16.0382C39.9221 17.9785 43.6266 19.5494 46.5202 22.7856C47.5466 23.9336 47.5235 25.0947 47.6571 26.4935C47.7324 27.2827 47.9704 28.0231 47.9704 28.8242C47.9704 29.693 47.8046 30.7056 48.0062 31.5541C48.3105 32.8354 48.1315 34.2749 48.1315 35.5879C48.1315 37.0656 47.7215 38.3308 47.4959 39.7685C47.1206 42.1605 46.0277 44.4318 44.345 46.3041C43.977 46.7135 43.7632 47.3599 43.5304 47.8443C43.2082 48.5147 42.6165 49.3091 42.1339 49.8897C40.9737 51.2854 39.3964 52.5359 37.9714 53.7035C36.9721 54.5223 35.4749 54.8676 34.2386 55.2844C32.8994 55.736 31.5854 55.7571 30.1656 55.7571C29.153 55.7571 27.6425 56.0038 26.7013 55.643C26.0804 55.405 25.394 55.2937 24.7678 55.0237C24.3788 54.8559 23.9711 54.6989 23.5593 54.5836C23.2093 54.4856 22.7183 54.1097 22.4045 54.0947C21.2311 54.0384 20.4781 54.0572 19.4505 53.5894C18.5992 53.2019 18.1755 52.3851 17.4364 51.8618C16.6709 51.3198 15.9978 50.6685 15.5476 49.8897C15.1119 49.136 14.7207 48.2242 14.0527 47.6161C13.6859 47.2822 13.4232 46.8097 13.0859 46.4345C12.7798 46.0939 12.3062 45.7224 12.0744 45.3425C11.5776 44.5285 11.0718 43.5948 11.0718 42.6288C11.0718 41.7041 10.965 40.8058 10.9107 39.9151C10.8652 39.1693 11.1345 38.7092 10.7495 38.0082" stroke="#244480" stroke-width="1.25" stroke-linecap="round"/>
<path d="M15.7447 14.8311C16.0298 14.794 11.8344 8.54983 13.3277 7.64355" stroke="#244480" stroke-width="1.25" stroke-linecap="round"/>
<path d="M32.8249 6.47076C32.6201 6.47076 33.4681 5.00634 33.4694 5.00391C34.094 3.86136 34.7607 2.7413 35.4387 1.63016C35.5786 1.40103 35.9361 0.84067 36.0475 1.04343" stroke="#244480" stroke-width="1.25" stroke-linecap="round"/>
<path d="M40.2363 55.6084C40.3083 56.7886 41.5254 57.7811 41.5254 58.9821" stroke="#244480" stroke-width="1.25" stroke-linecap="round"/>
<path d="M19.1287 58.8379C18.8527 59.1206 18.6863 59.7549 18.5379 60.0929C18.0288 61.2515 17.4642 62.492 16.7028 63.5318C16.5021 63.8059 16.1903 64.1852 16.0672 64.4934C15.9298 64.8375 15.8986 65.3192 16.0672 64.7053" stroke="#244480" stroke-width="1.25" stroke-linecap="round"/>
<path d="M11.394 51.65C11.3676 51.4571 6.87609 52.5128 7.20469 53.4102" stroke="#244480" stroke-width="1.25" stroke-linecap="round"/>
<path d="M19.4502 28.0326C19.1902 28.0326 19.0137 28.0159 18.8415 28.2119C18.5072 28.5923 19.4928 28.8474 19.5398 28.7334C19.5681 28.6645 19.0424 28.1372 19.307 28.5541C19.307 28.6459 19.5295 28.6286 19.5756 28.5867C19.7631 28.416 19.3296 28.2161 19.7725 28.6193" stroke="#244480" stroke-width="1.25" stroke-linecap="round"/>
<path d="M24.6059 24.9534C24.4482 24.9534 24.1226 24.886 24.1226 25.1001C24.1226 25.1658 24.307 25.6137 24.409 25.5076C24.6078 25.3007 24.015 25.3119 24.4448 25.5076C24.7887 25.6641 24.3625 25.1477 24.4806 25.3935C24.5706 25.5806 24.8552 25.7968 24.7313 25.4261C24.6116 25.068 24.5706 25.686 24.7313 25.3935C24.8761 25.1298 24.5338 25.4088 24.7671 25.8335" stroke="#244480" stroke-width="1.25" stroke-linecap="round"/>
<path d="M16.2285 35.5154C18.3216 37.2092 20.9976 38.6234 23.721 39.1744C24.8814 39.4091 26.4401 38.3798 27.5881 38.1476C28.7709 37.9083 29.9825 37.1689 31.0524 36.6563C33.5992 35.436 35.6978 33.3212 37.2559 31.1149C37.9668 30.1082 38.8175 29.1021 39.27 27.9693C39.4764 27.4525 40.2068 25.2338 39.5922 24.9541" stroke="#244480" stroke-width="1.25" stroke-linecap="round"/>
<path d="M38.1411 23.0459C38.5071 23.0875 39.0341 24.0612 39.3496 24.2846C39.6878 24.524 40.2186 24.6176 40.5222 24.8387C40.8821 25.1008 42.2933 25.0205 42.4916 24.6594" stroke="#244480" stroke-width="1.25" stroke-linecap="round"/>
<path d="M17.3554 33.6074C17.2047 33.4874 17.0339 34.3225 16.9436 34.569C16.7947 34.9757 16.4147 35.3775 16.1022 35.6936C15.7775 36.022 15.6386 36.2359 15.1802 36.4678C14.8281 36.6458 14.4551 36.4833 14.4551 36.9812" stroke="#244480" stroke-width="1.25" stroke-linecap="round"/>
<path d="M7.28984 27.3961C7.50234 27.6172 7.30699 27.6055 7.07106 27.5953C5.50544 27.5274 3.73568 26.265 2.42806 25.6036C1.85817 25.3154 0.287796 25.0463 0.77505 24.652C1.01454 24.4583 1.25866 24.694 1.38277 24.807" stroke="#244480" stroke-width="1.25" stroke-linecap="round"/>
<path d="M4.66477 37.9512C4.86422 38.1587 0.731914 38.7384 0.945507 38.3495" stroke="#244480" stroke-width="1.25" stroke-linecap="round"/>
<defs>
<filter id="filter0_d_606_19794" x="10.5371" y="13.668" width="39.7979" height="45.0088" filterUnits="userSpaceOnUse" color-interpolation-filters="sRGB">
<feFlood flood-opacity="0" result="BackgroundImageFix"/>
<feColorMatrix in="SourceAlpha" type="matrix" values="0 0 0 0 0 0 0 0 0 0 0 0 0 0 0 0 0 0 127 0" result="hardAlpha"/>
<feOffset dx="1" dy="1"/>
<feGaussianBlur stdDeviation="0.5"/>
<feComposite in2="hardAlpha" operator="out"/>
<feColorMatrix type="matrix" values="0 0 0 0 0 0 0 0 0 0 0 0 0 0 0 0 0 0 0.7 0"/>
<feBlend mode="normal" in2="BackgroundImageFix" result="effect1_dropShadow_606_19794"/>
<feBlend mode="normal" in="SourceGraphic" in2="effect1_dropShadow_606_19794" result="shape"/>
</filter>
</defs>
</svg>
