<svg width="57" height="41" viewBox="0 0 57 41" fill="none" xmlns="http://www.w3.org/2000/svg">
<path d="M38.2596 29.2383C38.2596 35.3577 33.9396 40.7984 23.0995 40.7984C12.9795 40.7984 7.93945 35.3577 7.93945 29.2383C7.93945 23.1189 14.7269 18.1582 23.0995 18.1582C31.4722 18.1582 38.2596 23.1189 38.2596 29.2383Z" fill="#F58F29"/>
<path d="M31.7773 25.9995C31.7773 26.0836 31.6973 25.7847 31.6973 25.7195C31.6973 25.3875 31.8051 25.0568 31.9373 24.7595C32.056 24.4924 32.3551 24.1773 32.6573 24.1595C32.9656 24.1414 33.1502 24.3175 33.4217 24.3951C33.671 24.4663 34.03 24.9286 34.1773 24.8795" stroke="#FDF9F5" stroke-linecap="round"/>
<path d="M35.7812 24.0789C35.4529 24.0378 35.4984 22.9683 35.6034 22.7189C35.7139 22.4565 35.9199 21.9277 36.3012 21.9277C36.8649 21.9277 37.3812 22.4957 37.3812 23.0389" stroke="#FDF9F5" stroke-linecap="round"/>
<path d="M37.2184 29.1187C37.1176 29.1313 37.1484 29.1815 37.2184 29.2165C37.4609 29.3378 37.7146 29.1701 37.9428 29.0743C38.3633 28.8977 38.6611 28.6064 38.8584 28.1898C38.9804 27.9322 39.2684 27.0326 39.6984 27.4387C40.3279 28.0333 40.7565 29.1416 40.0184 29.8387C39.6672 30.1703 39.5647 30.3393 40.0584 30.5587C40.3707 30.6975 40.3952 31.2508 40.2762 31.5187C40.1448 31.8144 39.8683 32.0765 39.4984 31.9943C39.2011 31.9282 38.9951 31.631 38.7206 31.5187C38.2255 31.3162 37.6617 31.4754 37.2984 31.8387" stroke="#FDF9F5" stroke-linecap="round"/>
<path d="M8.49954 29.1981C7.28188 29.1981 6.2549 28.2779 5.41508 27.4381C4.64038 26.6634 4.24607 25.6431 3.77951 24.6825C3.42797 23.9587 3.0172 23.2949 2.2595 22.9758C1.57502 22.6876 0.979492 23.178 0.979492 23.8558C0.979492 24.711 1.01848 25.5169 1.28172 26.3358C1.56119 27.2053 1.91265 27.86 2.4195 28.6203C2.89144 29.3282 3.50526 29.9517 4.25951 30.3181C4.48256 30.4264 5.68292 31.0928 5.61508 31.3981C5.50946 31.8734 4.77964 32.1478 4.57952 32.5981C4.47863 32.8251 4.15517 33.1425 3.97951 33.3181C3.75529 33.5423 3.6427 33.8806 3.50395 34.1581C3.2282 34.7096 3.34258 35.6732 3.49951 36.2381C3.65631 36.8026 3.73952 37.4578 4.05507 37.9537C5.36202 40.0075 6.69009 36.4676 7.02398 35.5137C7.51895 34.0995 7.70514 32.2096 9.29955 31.6781" stroke="#FDF9F5" stroke-linecap="round"/>
<path d="M27.5272 18.8653C25.4467 18.2662 20.7665 16.4088 18.6893 13.7723C16.0928 10.4767 16.642 18.4159 17.5408 19.2648" stroke="#FDF9F5" stroke-linecap="round"/>
<path d="M19.7428 30.3887C19.0053 30.9913 17.8356 32.3086 19.0572 32.7573C20.5843 33.3182 20.8336 32.6326 22.5165 32.1028C24.1994 31.573 24.8851 32.1963 25.5395 31.5418C26.0631 31.0182 26.1317 30.5549 26.1005 30.3887" stroke="#FDF9F5" stroke-linecap="round"/>
<path d="M45.291 18.5568C45.282 18.661 45.0978 18.755 45.0399 18.8419C44.9418 18.9892 44.7815 19.3913 44.8473 19.5797C44.9461 19.8621 45.1344 20.1928 45.1779 20.4838C45.1945 20.5948 45.4539 21.0385 45.5735 21.1029C45.8378 21.2451 46.0442 21.616 46.3705 21.6757C46.8472 21.7628 47.5305 22.0216 47.95 21.6193C48.3062 21.2778 48.8134 21.0465 49.1879 20.7317C49.5691 20.4114 49.6065 19.5234 49.4058 19.1142C49.1558 18.6046 48.9153 18.309 48.4929 17.9393C48.0148 17.5208 47.1141 17.3641 46.5599 17.6679C46.0872 17.9271 45.5857 18.1084 45.3553 18.6163" stroke="#FDF9F5" stroke-width="0.8" stroke-linecap="round"/>
<path d="M46.1087 18.8381C45.9825 18.8587 46.0661 19.3205 46.0679 19.3979C46.069 19.4447 46.0281 19.9835 46.02 19.7718" stroke="#FDF9F5" stroke-width="0.8" stroke-linecap="round"/>
<path d="M47.1338 18.0547C47.1432 18.3024 47.1713 19.0457 47.1619 18.7979" stroke="#FDF9F5" stroke-width="0.8" stroke-linecap="round"/>
<path d="M47.8111 17.9021C47.6745 18.0679 47.7673 18.4759 47.7913 18.654C47.8076 18.775 47.8559 18.8939 47.8533 19.0169C47.8522 19.0682 47.7962 19.0811 47.8556 19.0789" stroke="#FDF9F5" stroke-width="0.8" stroke-linecap="round"/>
<path d="M50.8826 11.4212C50.6474 11.7068 50.8198 12.4224 50.9185 12.762C51.0377 13.1724 51.3063 13.4721 51.5436 13.8122C51.9322 14.3691 52.7024 14.6407 53.3525 14.6161C53.7173 14.6023 53.8533 14.5958 54.1342 14.3852C54.3353 14.2344 54.8166 14.0728 54.9341 13.8478C55.0493 13.6273 55.3459 13.4822 55.4475 13.2281C55.5615 12.9431 55.6351 12.661 55.736 12.3783C56.0898 11.3865 54.8964 9.66881 53.8498 9.63102C53.1274 9.60493 52.539 9.64537 51.8681 9.9745C51.5244 10.1431 51.4975 10.4953 51.294 10.7643C51.1421 10.9649 50.8871 11.2543 50.8181 11.4907" stroke="#FDF9F5" stroke-width="0.8" stroke-linecap="round"/>
<path d="M51.9563 11.3778C51.9666 11.6496 51.9992 12.7855 52.0096 12.7851" stroke="#FDF9F5" stroke-width="0.8" stroke-linecap="round"/>
<path d="M52.5753 10.015C52.589 10.3751 52.5356 10.7375 52.5489 11.0898" stroke="#FDF9F5" stroke-width="0.8" stroke-linecap="round"/>
<path d="M53.655 10.1746C53.6475 10.1758 53.6131 11.0754 53.5616 11.2519" stroke="#FDF9F5" stroke-width="0.8" stroke-linecap="round"/>
<path d="M54.3806 11.6238C54.2399 11.6469 54.3112 12.6874 54.2923 12.8352" stroke="#FDF9F5" stroke-width="0.8" stroke-linecap="round"/>
<path d="M45.9088 2.64263C45.8773 2.54652 45.1066 1.05048 45.0964 0.948963C45.0931 0.915939 45.1691 1.11428 45.2244 1.18255" stroke="#FDF9F5" stroke-width="0.8" stroke-linecap="round"/>
<path d="M45.1004 4.22668C45.0819 4.11345 44.3828 4.51525 44.36 4.52626C44.1551 4.62511 43.8971 4.80871 43.6591 4.81773C43.5943 4.82018 43.4539 4.82531 43.5158 4.88276" stroke="#FDF9F5" stroke-width="0.8" stroke-linecap="round"/>
<path d="M46.5678 5.24248C46.4828 5.23511 46.5299 5.19643 46.5988 5.27443C46.8802 5.59293 47.1171 5.98716 47.3349 6.3493C47.4372 6.51928 47.5108 6.72177 47.5255 6.92161C47.5329 7.02279 47.5305 7.0541 47.526 6.93484" stroke="#FDF9F5" stroke-width="0.8" stroke-linecap="round"/>
<path d="M47.4507 3.2425C47.3814 3.24513 47.4677 3.29485 47.4891 3.29404C47.5762 3.29074 47.6855 3.19291 47.7485 3.14844C48.0321 2.94807 48.3125 2.74478 48.6106 2.56608C48.6869 2.52037 48.8066 2.47393 48.8764 2.41362" stroke="#FDF9F5" stroke-width="0.8" stroke-linecap="round"/>
</svg>
