<svg width="48" height="34" viewBox="0 0 48 34" fill="none" xmlns="http://www.w3.org/2000/svg">
<path d="M44.391 19.8666C44.391 26.9046 39.4225 33.1621 26.955 33.1621C15.3157 33.1621 9.51904 26.9046 9.51904 19.8666C9.51904 12.8285 17.3254 7.12305 26.955 7.12305C36.5847 7.12305 44.391 12.8285 44.391 19.8666Z" fill="#F58F29"/>
<path d="M36.9392 16.1392C36.9392 16.2359 36.8472 15.8922 36.8472 15.8172C36.8472 15.4354 36.9712 15.055 37.1232 14.7131C37.2597 14.4059 37.6038 14.0434 37.9513 14.023C38.3059 14.0021 38.5183 14.2047 38.8305 14.2939C39.1172 14.3758 39.5301 14.9075 39.6995 14.8511" stroke="#FDF9F5" stroke-width="1.5" stroke-linecap="round"/>
<path d="M41.5393 13.933C41.1617 13.8858 41.214 12.6558 41.3348 12.3689C41.4619 12.0671 41.6988 11.459 42.1374 11.459C42.7856 11.459 43.3795 12.1122 43.3795 12.7369" stroke="#FDF9F5" stroke-width="1.5" stroke-linecap="round"/>
<path d="M43.1948 19.7293C43.0789 19.7438 43.1143 19.8015 43.1948 19.8417C43.4738 19.9812 43.7656 19.7884 44.028 19.6782C44.5117 19.475 44.8541 19.14 45.0811 18.6609C45.2214 18.3646 45.5526 17.33 46.0472 17.797C46.7712 18.4809 47.2641 19.7556 46.4152 20.5574C46.0114 20.9388 45.8934 21.1331 46.4612 21.3855C46.8205 21.5451 46.8486 22.1815 46.7117 22.4896C46.5606 22.8296 46.2427 23.1311 45.8171 23.0365C45.4752 22.9606 45.2384 22.6188 44.9226 22.4896C44.3531 22.2566 43.7048 22.4397 43.2869 22.8576" stroke="#FDF9F5" stroke-width="1.5" stroke-linecap="round"/>
<path d="M10.1641 19.8216C8.76367 19.8216 7.58252 18.7633 6.61661 17.7974C5.72562 16.9064 5.27211 15.7329 4.73551 14.6281C4.33119 13.7957 3.85875 13.0322 2.98731 12.6652C2.20007 12.3338 1.51514 12.8977 1.51514 13.6773C1.51514 14.6609 1.55998 15.5878 1.86273 16.5297C2.18416 17.5297 2.58838 18.2827 3.17133 19.1571C3.71412 19.9713 4.42008 20.6884 5.28757 21.1098C5.54411 21.2344 6.92466 22.0008 6.84664 22.3519C6.72517 22.8985 5.88578 23.2142 5.65561 23.7321C5.53958 23.9931 5.16756 24.3581 4.96553 24.5602C4.70765 24.818 4.57815 25.2071 4.41858 25.5263C4.10143 26.1606 4.23298 27.2688 4.41347 27.9185C4.59381 28.5678 4.68951 29.3213 5.05243 29.8917C6.55559 32.2538 8.08304 28.1825 8.46705 27.0853C9.03633 25.4588 9.25047 23.2852 11.0842 22.6739" stroke="#FDF9F5" stroke-width="1.5" stroke-linecap="round"/>
<path d="M32.0466 7.93606C29.6538 7.24697 24.271 5.11071 21.8819 2.07845C18.8956 -1.71189 19.5273 7.41916 20.561 8.39543" stroke="#FDF9F5" stroke-width="1.5" stroke-linecap="round"/>
<path d="M23.0978 21.1895C22.2495 21.8825 20.9043 23.3976 22.3093 23.9137C24.0656 24.5588 24.3524 23.7702 26.2879 23.1609C28.2235 22.5515 29.012 23.2684 29.7647 22.5157C30.3669 21.9135 30.4458 21.3806 30.4099 21.1895" stroke="#FDF9F5" stroke-width="1.5" stroke-linecap="round"/>
</svg>
