<svg width="361" height="36" viewBox="0 0 361 36" fill="none" xmlns="http://www.w3.org/2000/svg">
<g filter="url(#filter0_d_606_20050)">
<path d="M350.77 17.7325C350.196 14.4056 346.164 7.75176 334.626 7.75176C323.088 7.75176 318.625 14.4056 317.836 17.7325C317.692 13.3438 313.487 4.56641 297.817 4.56641C282.146 4.56641 276.363 18.0157 275.43 24.7403C273.923 19.8561 267.207 10.0877 252.397 10.0877C237.588 10.0877 232.737 19.8561 232.163 24.7403C231.517 18.7235 225.146 6.68997 204.826 6.68997C184.505 6.68997 179.569 18.7235 179.64 24.7403" stroke="#FDF9F5" stroke-width="2" stroke-linecap="round" stroke-linejoin="round"/>
<path d="M520.508 17.7325C519.934 14.4056 515.902 7.75176 504.364 7.75176C492.826 7.75176 488.363 14.4056 487.574 17.7325C487.43 13.3438 483.226 4.56641 467.555 4.56641C451.884 4.56641 446.101 18.0157 445.168 24.7403C443.661 19.8561 436.945 10.0877 422.136 10.0877C407.326 10.0877 402.476 19.8561 401.902 24.7403C401.256 18.7235 394.884 6.68997 374.564 6.68997C354.244 6.68997 349.307 18.7235 349.379 24.7403" stroke="#FDF9F5" stroke-width="2" stroke-linecap="round" stroke-linejoin="round"/>
<path d="M11.2896 17.7325C10.7156 14.4056 6.68311 7.75176 -4.85469 7.75176C-16.3925 7.75176 -20.8555 14.4056 -21.6448 17.7325C-21.7883 13.3438 -25.993 4.56641 -41.6637 4.56641C-57.3345 4.56641 -63.1177 18.0157 -64.0505 24.7403C-65.5573 19.8561 -72.2733 10.0877 -87.083 10.0877C-101.893 10.0877 -106.743 19.8561 -107.317 24.7403C-107.963 18.7235 -114.335 6.68997 -134.655 6.68997C-154.975 6.68997 -159.912 18.7235 -159.84 24.7403" stroke="#FDF9F5" stroke-width="2" stroke-linecap="round" stroke-linejoin="round"/>
<path d="M181.032 17.7325C180.458 14.4056 176.425 7.75176 164.887 7.75176C153.35 7.75176 148.887 14.4056 148.097 17.7325C147.954 13.3438 143.749 4.56641 128.078 4.56641C112.408 4.56641 106.624 18.0157 105.692 24.7403C104.185 19.8561 97.4689 10.0877 82.6592 10.0877C67.8494 10.0877 62.999 19.8561 62.425 24.7403C61.7792 18.7235 55.4076 6.68997 35.0873 6.68997C14.767 6.68997 9.83038 18.7235 9.90213 24.7403" stroke="#FDF9F5" stroke-width="2" stroke-linecap="round" stroke-linejoin="round"/>
<path d="M-237.752 17.0922L-244.013 12.5705L-246.447 28.2227L9.20487 28.2227C9.55269 26.2516 10.2483 22.24 10.2483 21.9618C10.2483 21.6835 11.1759 19.0632 11.6396 17.7879L9.90052 13.9618L3.98747 9.09222L-4.36035 7.70092L-11.3169 8.39657L-17.5777 11.8748L-21.4038 16.0487L-25.5777 9.09222L-32.8821 5.61396L-42.2734 4.22266L-48.8821 5.61397L-54.4473 8.39657L-57.9256 11.1792L-61.056 16.0487L-62.7951 20.2227L-64.1864 23.7009L-69.7516 16.0488L-76.3603 11.8748L-86.4473 9.78788L-95.4908 11.1792L-103.143 16.0488L-107.317 22.6574L-114.273 12.9183L-127.143 6.65745L-138.969 6.65745L-147.317 8.74441L-154.273 12.9183L-157.752 16.0488L-163.665 10.1357L-171.317 7.70093L-180.013 8.39659L-184.882 10.4835L-188.013 12.9183L-190.447 16.7444L-193.578 10.4835L-197.056 7.70093L-204.36 4.91833L-211.317 4.5705L-217.926 5.26615L-222.795 7.70094L-228.013 12.5705L-231.839 20.2227L-232.882 24.7444L-237.752 17.0922Z" fill="#FDF9F5"/>
<path d="M-67.6657 17.0922L-73.9266 12.5705L-76.3614 28.2227L179.291 28.2227C179.639 26.2516 180.334 22.24 180.334 21.9618C180.334 21.6835 181.262 19.0632 181.726 17.7879L179.986 13.9618L174.073 9.09222L165.726 7.70092L158.769 8.39657L152.508 11.8748L148.682 16.0487L144.508 9.09222L137.204 5.61396L127.813 4.22266L121.204 5.61397L115.639 8.39657L112.16 11.1792L109.03 16.0487L107.291 20.2227L105.9 23.7009L100.334 16.0488L93.7256 11.8748L83.6386 9.78788L74.5952 11.1792L66.943 16.0488L62.7691 22.6574L55.8126 12.9183L42.943 6.65745L31.1169 6.65745L22.7691 8.74441L15.8126 12.9183L12.3343 16.0488L6.42125 10.1357L-1.23093 7.70093L-9.92658 8.39659L-14.7961 10.4835L-17.9266 12.9183L-20.3614 16.7444L-23.4918 10.4835L-26.97 7.70093L-34.2744 4.91833L-41.2309 4.5705L-47.8396 5.26615L-52.7092 7.70094L-57.9266 12.5705L-61.7527 20.2227L-62.7961 24.7444L-67.6657 17.0922Z" fill="#FDF9F5"/>
<path d="M102.073 17.0922L95.8117 12.5705L93.3769 28.2227L349.029 28.2227C349.377 26.2516 350.073 22.24 350.073 21.9618C350.073 21.6835 351 19.0632 351.464 17.7879L349.725 13.9618L343.812 9.09222L335.464 7.70092L328.507 8.39657L322.246 11.8748L318.42 16.0487L314.246 9.09222L306.942 5.61396L297.551 4.22266L290.942 5.61397L285.377 8.39657L281.899 11.1792L278.768 16.0487L277.029 20.2227L275.638 23.7009L270.073 16.0488L263.464 11.8748L253.377 9.78788L244.333 11.1792L236.681 16.0488L232.507 22.6574L225.551 12.9183L212.681 6.65745L200.855 6.65745L192.507 8.74441L185.551 12.9183L182.073 16.0488L176.16 10.1357L168.507 7.70093L159.812 8.39659L154.942 10.4835L151.812 12.9183L149.377 16.7444L146.246 10.4835L142.768 7.70093L135.464 4.91833L128.507 4.5705L121.899 5.26615L117.029 7.70094L111.812 12.5705L107.986 20.2227L106.942 24.7444L102.073 17.0922Z" fill="#FDF9F5"/>
<path d="M271.815 17.0922L265.554 12.5705L263.119 28.2227L518.771 28.2227C519.119 26.2516 519.815 22.24 519.815 21.9618C519.815 21.6835 520.742 19.0632 521.206 17.7879L519.467 13.9618L513.554 9.09222L505.206 7.70092L498.25 8.39657L491.989 11.8748L488.163 16.0487L483.989 9.09222L476.684 5.61396L467.293 4.22266L460.684 5.61397L455.119 8.39657L451.641 11.1792L448.51 16.0487L446.771 20.2227L445.38 23.7009L439.815 16.0488L433.206 11.8748L423.119 9.78788L414.076 11.1792L406.423 16.0488L402.25 22.6574L395.293 12.9183L382.423 6.65745L370.597 6.65745L362.25 8.74441L355.293 12.9183L351.815 16.0488L345.902 10.1357L338.25 7.70093L329.554 8.39659L324.684 10.4835L321.554 12.9183L319.119 16.7444L315.989 10.4835L312.51 7.70093L305.206 4.91833L298.25 4.5705L291.641 5.26615L286.771 7.70094L281.554 12.5705L277.728 20.2227L276.684 24.7444L271.815 17.0922Z" fill="#FDF9F5"/>
</g>
<rect x="0.682617" y="27.2227" width="360" height="7.82812" fill="#FDF9F5"/>
<defs>
<filter id="filter0_d_606_20050" x="-500.622" y="0.566406" width="1363.92" height="28.6562" filterUnits="userSpaceOnUse" color-interpolation-filters="sRGB">
<feFlood flood-opacity="0" result="BackgroundImageFix"/>
<feColorMatrix in="SourceAlpha" type="matrix" values="0 0 0 0 0 0 0 0 0 0 0 0 0 0 0 0 0 0 127 0" result="hardAlpha"/>
<feOffset dx="1" dy="-1"/>
<feGaussianBlur stdDeviation="1"/>
<feComposite in2="hardAlpha" operator="out"/>
<feColorMatrix type="matrix" values="0 0 0 0 0 0 0 0 0 0 0 0 0 0 0 0 0 0 0.7 0"/>
<feBlend mode="normal" in2="BackgroundImageFix" result="effect1_dropShadow_606_20050"/>
<feBlend mode="normal" in="SourceGraphic" in2="effect1_dropShadow_606_20050" result="shape"/>
</filter>
</defs>
</svg>
