<svg width="1488" height="72" viewBox="0 0 1488 72" fill="none" xmlns="http://www.w3.org/2000/svg">
<path d="M32.464 37.92C32.464 27.584 26.608 24.672 17.072 24.672C6.86401 24.672 0.944008 28.224 0.944008 39.648C0.944008 50.912 4.62401 55.008 16.752 55.008C17.584 55.008 18.8 54.944 20.368 54.816C20.944 54.752 21.424 54.24 21.392 53.664L21.36 51.008C21.328 50.4 20.816 49.888 20.144 49.92L16.72 50.144C13.872 50.144 11.728 49.888 10.32 49.408C6.09601 48 5.96801 43.488 5.96801 39.648C5.96801 31.36 9.36001 29.536 17.36 29.536C23.6 29.536 27.12 30.464 27.12 37.888V38.464C27.12 40.224 27.056 41.344 26.896 41.856C26.768 42.368 26.448 42.624 25.968 42.624C25.488 42.624 25.168 42.336 24.976 41.76C24.784 41.216 24.688 40.096 24.688 38.4V33.408C24.688 32.768 24.176 32.256 23.536 32.256H17.52V33.056L17.072 32.768C16.336 32.224 14.768 31.84 13.872 31.84C8.91201 31.84 7.85601 35.968 7.85601 40.16C7.85601 44.96 9.32801 48 14.544 48C16.048 48 17.488 47.584 18.8 46.752C18.96 46.624 19.152 46.592 19.376 46.592C19.6 46.592 19.856 46.656 20.048 46.816C21.232 47.584 22.96 48 25.232 48C27.952 48 29.84 47.328 30.896 45.984C31.952 44.64 32.464 42.144 32.464 38.464V37.92ZM15.088 39.936C15.088 38.976 15.088 37.632 16.368 37.632C17.008 37.632 17.52 38.144 17.52 38.752V39.072C17.52 39.84 17.552 40.48 17.584 41.056C17.616 41.632 17.264 42.144 16.72 42.24C16.528 42.272 16.336 42.304 16.176 42.304C15.76 42.304 15.472 42.144 15.312 41.792C15.152 41.472 15.088 40.864 15.088 39.936ZM37.851 26.56C37.179 26.56 36.635 27.104 36.635 27.776V37.696C36.635 39.232 36.603 40.288 36.539 40.896C36.507 41.28 36.443 41.536 36.411 41.696C36.379 41.856 36.283 41.984 36.123 42.08C35.995 42.208 35.867 42.272 35.739 42.272H34.779C34.011 42.272 33.403 42.88 33.403 43.648V47.04C33.403 47.808 34.011 48.416 34.779 48.416H36.539C40.955 48.192 44.059 47.84 44.059 42.336V27.776C44.059 27.104 43.515 26.56 42.843 26.56H37.851ZM47.2948 26.56C46.4308 26.56 45.7588 27.232 45.7588 28.064V40.32C45.7588 46.752 49.2468 48.416 55.1988 48.416C61.1828 48.416 64.6068 46.592 64.6068 40.192V28.064C64.6068 27.232 63.9348 26.56 63.1028 26.56H58.6868C57.8548 26.56 57.1828 27.232 57.1828 28.064V40.608C57.1828 41.984 56.4468 42.304 55.1988 42.304C53.9508 42.304 53.1828 41.984 53.1828 40.608V28.064C53.1828 27.232 52.5108 26.56 51.6788 26.56H47.2948ZM84.3708 36.64C84.3708 35.936 83.8268 35.392 83.1228 35.392H77.7148C77.0108 35.392 76.4668 35.936 76.4668 36.64L76.4988 39.616C76.4988 40.16 76.9148 40.576 77.4588 40.576V41.088C77.4588 41.696 76.9788 42.176 76.3708 42.208C73.5228 42.208 73.4588 39.68 73.4588 37.44C73.4588 35.776 73.5228 34.624 73.6828 33.952C73.8748 33.024 74.3228 32.832 75.1548 32.576C75.5388 32.48 76.3708 32.416 77.6828 32.416C78.7388 32.416 80.4348 32.512 82.7708 32.704C83.5708 32.704 84.2108 32.192 84.2108 31.36V28.288C84.2108 27.68 83.7948 27.136 83.1868 26.976L82.9948 26.944C80.7228 26.496 78.3868 26.144 76.0508 26.144C68.1788 26.144 65.9708 29.76 65.9708 37.248C65.9708 44.288 67.6028 48.288 75.7948 48.288C77.4588 48.288 79.9228 48.032 83.1868 47.552C83.8588 47.424 84.3708 46.848 84.3708 46.176V36.64ZM85.307 46.368C85.115 47.2 85.755 48 86.619 48H91.131C91.771 48 92.315 47.552 92.443 46.912L92.507 46.624C92.635 45.984 93.179 45.536 93.851 45.536H96.571C97.179 45.536 97.723 45.952 97.883 46.56L97.979 46.976C98.139 47.584 98.683 48 99.291 48H104.027C104.891 48 105.531 47.2 105.339 46.336L101.147 27.616C100.987 27.008 100.443 26.56 99.803 26.56H90.747C90.107 26.56 89.563 27.008 89.435 27.616L85.307 46.368ZM95.707 32.384L96.635 38.304C96.763 39.136 96.123 39.872 95.291 39.872C94.459 39.872 93.819 39.136 93.947 38.304L94.907 32.384H95.707ZM106.481 46.656C106.481 47.392 107.089 48 107.825 48H112.561C113.297 48 113.905 47.392 113.905 46.656V41.6C113.905 41.184 114.225 40.928 114.577 40.928C114.801 40.928 114.993 41.024 115.121 41.248L118.865 47.296C119.089 47.744 119.537 48 120.049 48H125.233C125.969 48 126.577 47.392 126.577 46.656V27.904C126.577 27.168 125.969 26.56 125.233 26.56H120.497C119.761 26.56 119.153 27.168 119.153 27.904V32.512C119.153 32.896 118.833 33.152 118.481 33.152C118.289 33.152 118.065 33.056 117.937 32.864L114.161 27.2C113.937 26.816 113.489 26.56 113.009 26.56H107.825C107.089 26.56 106.481 27.168 106.481 27.904V46.656ZM137.888 48C145.28 48 147.968 44.096 147.968 37.024C147.968 29.728 144.896 26.56 137.568 26.56H129.824C129.088 26.56 128.512 27.136 128.512 27.872V46.688C128.512 47.424 129.088 48 129.824 48H137.888ZM140.48 37.408C140.48 40 140.288 41.952 137.248 41.952C136.512 41.952 135.936 41.376 135.936 40.64V33.92C135.936 33.184 136.512 32.608 137.248 32.608C138.624 32.608 139.488 32.928 139.872 33.568C140.288 34.208 140.48 35.488 140.48 37.408ZM169.417 37.28C169.417 30.016 166.825 26.144 159.209 26.144C151.625 26.144 149.001 30.016 149.001 37.248C149.001 44.48 151.689 48.416 159.241 48.416C166.793 48.416 169.417 44.48 169.417 37.28ZM156.489 37.28C156.489 35.456 156.681 34.144 157.033 33.344C157.385 32.544 158.121 32.16 159.241 32.16C160.361 32.16 161.097 32.544 161.417 33.312C161.769 34.112 161.929 35.424 161.929 37.248C161.929 39.104 161.769 40.416 161.417 41.216C161.065 42.016 160.329 42.4 159.241 42.4C158.121 42.4 157.385 41.984 157.033 41.184C156.681 40.384 156.489 39.104 156.489 37.28ZM169.84 31.104C169.84 31.936 170.512 32.608 171.376 32.608H172.752C173.584 32.608 174.256 33.28 174.256 34.144V46.496C174.256 47.328 174.928 48 175.76 48H180.176C181.008 48 181.68 47.328 181.68 46.496V34.144C181.68 33.28 182.352 32.608 183.184 32.608H184.336C185.168 32.608 185.84 31.936 185.84 31.104V28.096C185.84 27.232 185.168 26.56 184.336 26.56H171.376C170.512 26.56 169.84 27.232 169.84 28.096V31.104ZM206.699 37.28C206.699 30.016 204.107 26.144 196.491 26.144C188.907 26.144 186.283 30.016 186.283 37.248C186.283 44.48 188.971 48.416 196.523 48.416C204.075 48.416 206.699 44.48 206.699 37.28ZM193.771 37.28C193.771 35.456 193.963 34.144 194.315 33.344C194.667 32.544 195.403 32.16 196.523 32.16C197.643 32.16 198.379 32.544 198.699 33.312C199.051 34.112 199.211 35.424 199.211 37.248C199.211 39.104 199.051 40.416 198.699 41.216C198.347 42.016 197.611 42.4 196.523 42.4C195.403 42.4 194.667 41.984 194.315 41.184C193.963 40.384 193.771 39.104 193.771 37.28ZM217.994 48C218.506 48 218.922 47.584 218.922 47.04V41.472C218.922 41.344 218.954 41.216 219.018 41.088L224.65 27.872C224.906 27.264 224.458 26.56 223.754 26.56H218.058C217.642 26.56 217.29 26.816 217.162 27.2L216.202 30.08C216.042 30.528 215.658 30.752 215.306 30.752C214.922 30.752 214.538 30.528 214.378 30.08L213.482 27.232C213.354 26.816 213.002 26.56 212.586 26.56H206.826C206.122 26.56 205.674 27.232 205.93 27.872L211.434 41.12C211.466 41.216 211.498 41.344 211.498 41.472V47.04C211.498 47.584 211.914 48 212.458 48H217.994Z" fill="#154193"/>
<rect x="249.208" y="9.33887" width="482.73" height="53.3249" rx="16" fill="#2488D5"/>
<path d="M281.429 47.136C281.397 47.616 281.781 48 282.261 48H286.197C286.677 48 287.029 47.648 287.061 47.168L287.093 45.216C287.125 44.736 287.477 44.384 287.957 44.384H288.245C288.725 44.384 289.109 44.768 289.077 45.248L289.045 47.136C289.013 47.616 289.397 48 289.877 48H293.845C294.293 48 294.677 47.648 294.709 47.168L294.741 45.216C294.773 44.736 295.125 44.384 295.605 44.384H295.765C296.213 44.384 296.597 44 296.629 43.552L296.693 39.584C296.725 39.104 296.341 38.72 295.861 38.72H295.797C295.317 38.72 294.933 38.336 294.965 37.856V36.992C294.997 36.544 295.349 36.16 295.829 36.16H295.925C296.405 36.16 296.757 35.808 296.789 35.328L296.949 31.392C296.949 30.912 296.565 30.496 296.085 30.496H295.989C295.509 30.496 295.125 30.112 295.157 29.632L295.221 27.456C295.253 26.944 294.869 26.56 294.389 26.56H290.421C289.941 26.56 289.589 26.912 289.557 27.392L289.493 29.664C289.461 30.144 289.109 30.496 288.629 30.496H288.341C287.861 30.496 287.477 30.112 287.509 29.632L287.573 27.456C287.605 26.944 287.221 26.56 286.741 26.56H282.805C282.325 26.56 281.973 26.912 281.941 27.392L281.877 29.664C281.845 30.144 281.493 30.496 281.013 30.496C280.533 30.496 280.181 30.848 280.149 31.328L279.989 35.264C279.989 35.744 280.373 36.16 280.853 36.16C281.333 36.16 281.717 36.544 281.685 37.024V37.888C281.653 38.368 281.301 38.72 280.821 38.72H280.789C280.309 38.72 279.957 39.072 279.925 39.552L279.765 43.488C279.765 43.968 280.149 44.384 280.629 44.384C281.109 44.384 281.493 44.768 281.461 45.248L281.429 47.136ZM287.317 36.992C287.349 36.544 287.733 36.16 288.181 36.16H288.469C288.949 36.16 289.333 36.544 289.301 37.024V37.888C289.269 38.368 288.885 38.72 288.437 38.72H288.149C287.669 38.72 287.285 38.336 287.317 37.856V36.992ZM306.41 26.56C305.546 26.56 304.874 27.232 304.874 28.064V40.32C304.874 46.752 308.362 48.416 314.314 48.416C320.298 48.416 323.722 46.592 323.722 40.192V28.064C323.722 27.232 323.05 26.56 322.218 26.56H317.802C316.97 26.56 316.298 27.232 316.298 28.064V40.608C316.298 41.984 315.562 42.304 314.314 42.304C313.066 42.304 312.298 41.984 312.298 40.608V28.064C312.298 27.232 311.626 26.56 310.794 26.56H306.41ZM325.502 46.656C325.502 47.392 326.11 48 326.846 48H331.582C332.318 48 332.926 47.392 332.926 46.656V41.6C332.926 41.184 333.246 40.928 333.598 40.928C333.822 40.928 334.014 41.024 334.142 41.248L337.886 47.296C338.11 47.744 338.558 48 339.07 48H344.254C344.99 48 345.598 47.392 345.598 46.656V27.904C345.598 27.168 344.99 26.56 344.254 26.56H339.518C338.782 26.56 338.174 27.168 338.174 27.904V32.512C338.174 32.896 337.854 33.152 337.502 33.152C337.31 33.152 337.086 33.056 336.958 32.864L333.182 27.2C332.958 26.816 332.51 26.56 332.03 26.56H326.846C326.11 26.56 325.502 27.168 325.502 27.904V46.656ZM346.797 46.368C346.605 47.2 347.245 48 348.109 48H352.621C353.261 48 353.805 47.552 353.933 46.912L353.997 46.624C354.125 45.984 354.669 45.536 355.341 45.536H358.061C358.669 45.536 359.213 45.952 359.373 46.56L359.469 46.976C359.629 47.584 360.173 48 360.781 48H365.517C366.381 48 367.021 47.2 366.829 46.336L362.637 27.616C362.477 27.008 361.933 26.56 361.293 26.56H352.237C351.597 26.56 351.053 27.008 350.925 27.616L346.797 46.368ZM357.197 32.384L358.125 38.304C358.253 39.136 357.613 39.872 356.781 39.872C355.949 39.872 355.309 39.136 355.437 38.304L356.397 32.384H357.197ZM367.971 46.656C367.971 47.392 368.579 48 369.315 48H374.051C374.787 48 375.395 47.392 375.395 46.656V41.6C375.395 41.184 375.715 40.928 376.067 40.928C376.291 40.928 376.483 41.024 376.611 41.248L380.355 47.296C380.579 47.744 381.027 48 381.539 48H386.723C387.459 48 388.067 47.392 388.067 46.656V27.904C388.067 27.168 387.459 26.56 386.723 26.56H381.987C381.251 26.56 380.643 27.168 380.643 27.904V32.512C380.643 32.896 380.323 33.152 379.971 33.152C379.779 33.152 379.555 33.056 379.427 32.864L375.651 27.2C375.427 26.816 374.979 26.56 374.499 26.56H369.315C368.579 26.56 367.971 27.168 367.971 27.904V46.656ZM391.41 26.56C390.546 26.56 389.874 27.232 389.874 28.064V40.32C389.874 46.752 393.362 48.416 399.314 48.416C405.298 48.416 408.722 46.592 408.722 40.192V28.064C408.722 27.232 408.05 26.56 407.218 26.56H402.802C401.97 26.56 401.298 27.232 401.298 28.064V40.608C401.298 41.984 400.562 42.304 399.314 42.304C398.066 42.304 397.298 41.984 397.298 40.608V28.064C397.298 27.232 396.626 26.56 395.794 26.56H391.41ZM410.502 47.072C410.502 47.584 410.918 48 411.43 48H425.67C426.15 48 426.566 47.584 426.566 47.072V42.976C426.566 42.496 426.15 42.08 425.67 42.08H418.854C418.342 42.08 417.926 41.664 417.926 41.152V41.056C417.926 40.576 418.342 40.16 418.854 40.16H423.75C424.23 40.16 424.646 39.744 424.646 39.232V35.2C424.646 34.72 424.23 34.304 423.75 34.304H418.854C418.342 34.304 417.926 33.888 417.926 33.376C417.926 32.896 418.342 32.48 418.854 32.48H425.67C426.15 32.48 426.566 32.064 426.566 31.552V27.456C426.566 26.976 426.15 26.56 425.67 26.56H411.43C410.918 26.56 410.502 26.976 410.502 27.456V47.072ZM446.016 28.384C446.176 27.424 445.472 26.56 444.512 26.56H439.84C439.072 26.56 438.432 27.136 438.336 27.904L436.992 40.512H436.416L434.912 27.904C434.816 27.136 434.176 26.56 433.408 26.56H428.736C427.776 26.56 427.04 27.424 427.232 28.384L430.976 46.784C431.136 47.488 431.744 48 432.48 48H440.928C441.632 48 442.272 47.488 442.4 46.784L446.016 28.384ZM444.985 46.368C444.793 47.2 445.433 48 446.297 48H450.809C451.449 48 451.993 47.552 452.121 46.912L452.185 46.624C452.313 45.984 452.857 45.536 453.529 45.536H456.249C456.857 45.536 457.401 45.952 457.561 46.56L457.657 46.976C457.817 47.584 458.361 48 458.969 48H463.705C464.569 48 465.209 47.2 465.017 46.336L460.825 27.616C460.665 27.008 460.121 26.56 459.481 26.56H450.425C449.785 26.56 449.241 27.008 449.113 27.616L444.985 46.368ZM455.385 32.384L456.313 38.304C456.441 39.136 455.801 39.872 454.969 39.872C454.137 39.872 453.497 39.136 453.625 38.304L454.585 32.384H455.385ZM466.158 46.656C466.158 47.392 466.766 48 467.47 48H472.27C472.974 48 473.582 47.392 473.582 46.656V43.424C473.582 42.72 474.19 42.112 474.894 42.112H478.382C479.086 42.112 479.694 41.504 479.694 40.8V37.376C479.694 36.672 479.086 36.064 478.382 36.064H474.894C474.19 36.064 473.582 35.456 473.582 34.752V33.92C473.582 33.216 474.19 32.608 474.894 32.608H480.302C481.006 32.608 481.614 32 481.614 31.296V27.872C481.614 27.168 481.006 26.56 480.302 26.56H467.47C466.766 26.56 466.158 27.168 466.158 27.872V46.656ZM502.532 37.28C502.532 30.016 499.94 26.144 492.324 26.144C484.74 26.144 482.116 30.016 482.116 37.248C482.116 44.48 484.804 48.416 492.356 48.416C499.908 48.416 502.532 44.48 502.532 37.28ZM489.604 37.28C489.604 35.456 489.796 34.144 490.148 33.344C490.5 32.544 491.236 32.16 492.356 32.16C493.476 32.16 494.212 32.544 494.532 33.312C494.884 34.112 495.044 35.424 495.044 37.248C495.044 39.104 494.884 40.416 494.532 41.216C494.18 42.016 493.444 42.4 492.356 42.4C491.236 42.4 490.5 41.984 490.148 41.184C489.796 40.384 489.604 39.104 489.604 37.28ZM512.45 42.464C512.898 42.464 513.314 42.784 513.41 43.264L514.306 47.2C514.402 47.68 514.818 48 515.266 48H520.674C521.346 48 521.826 47.36 521.634 46.72L520.066 41.312C519.97 40.96 520.066 40.576 520.322 40.352C521.634 39.04 522.274 37.024 522.274 34.336C522.274 27.904 518.914 26.56 513.026 26.56H505.026C504.45 26.56 504.002 27.008 504.002 27.584V46.976C504.002 47.552 504.45 48 505.026 48H510.402C510.978 48 511.426 47.552 511.426 46.976V43.488C511.426 42.912 511.874 42.464 512.45 42.464ZM512.418 36.608C511.842 36.608 511.394 36.16 511.394 35.584V33.44C511.394 32.864 511.842 32.416 512.418 32.416H513.026C514.21 32.416 514.786 33.12 514.786 34.528C514.786 35.904 514.274 36.608 513.218 36.608H512.418ZM523.752 46.656C523.752 47.392 524.36 48 525.096 48H529.832C530.568 48 531.176 47.392 531.176 46.656V36.96H531.528L533.16 46.656C533.288 47.296 533.832 47.776 534.472 47.776H538.44C539.08 47.776 539.624 47.296 539.752 46.656L541.416 36.96H541.768V46.656C541.768 47.392 542.376 48 543.112 48H547.848C548.584 48 549.192 47.392 549.192 46.656V27.904C549.192 27.168 548.584 26.56 547.848 26.56H538.952C538.312 26.56 537.768 27.04 537.64 27.68L537.096 31.008C537.032 31.392 536.712 31.584 536.392 31.584C536.072 31.584 535.784 31.424 535.688 31.04L535.016 27.616C534.888 27.008 534.344 26.56 533.704 26.56H525.096C524.36 26.56 523.752 27.168 523.752 27.904V46.656ZM550.391 46.368C550.199 47.2 550.839 48 551.703 48H556.215C556.855 48 557.399 47.552 557.527 46.912L557.591 46.624C557.719 45.984 558.263 45.536 558.935 45.536H561.655C562.263 45.536 562.807 45.952 562.967 46.56L563.063 46.976C563.223 47.584 563.767 48 564.375 48H569.111C569.975 48 570.615 47.2 570.423 46.336L566.231 27.616C566.071 27.008 565.527 26.56 564.887 26.56H555.831C555.191 26.56 554.647 27.008 554.519 27.616L550.391 46.368ZM560.791 32.384L561.719 38.304C561.847 39.136 561.207 39.872 560.375 39.872C559.543 39.872 558.903 39.136 559.031 38.304L559.991 32.384H560.791ZM580.94 48C588.332 48 591.02 44.096 591.02 37.024C591.02 29.728 587.948 26.56 580.62 26.56H572.876C572.14 26.56 571.564 27.136 571.564 27.872V46.688C571.564 47.424 572.14 48 572.876 48H580.94ZM583.532 37.408C583.532 40 583.34 41.952 580.3 41.952C579.564 41.952 578.988 41.376 578.988 40.64V33.92C578.988 33.184 579.564 32.608 580.3 32.608C581.676 32.608 582.54 32.928 582.924 33.568C583.34 34.208 583.532 35.488 583.532 37.408ZM592.502 47.072C592.502 47.584 592.918 48 593.43 48H607.67C608.15 48 608.566 47.584 608.566 47.072V42.976C608.566 42.496 608.15 42.08 607.67 42.08H600.854C600.342 42.08 599.926 41.664 599.926 41.152V41.056C599.926 40.576 600.342 40.16 600.854 40.16H605.75C606.23 40.16 606.646 39.744 606.646 39.232V35.2C606.646 34.72 606.23 34.304 605.75 34.304H600.854C600.342 34.304 599.926 33.888 599.926 33.376C599.926 32.896 600.342 32.48 600.854 32.48H607.67C608.15 32.48 608.566 32.064 608.566 31.552V27.456C608.566 26.976 608.15 26.56 607.67 26.56H593.43C592.918 26.56 592.502 26.976 592.502 27.456V47.072ZM613.872 26.56C613.2 26.56 612.656 27.104 612.656 27.776V37.696C612.656 39.232 612.624 40.288 612.56 40.896C612.528 41.28 612.464 41.536 612.432 41.696C612.4 41.856 612.304 41.984 612.144 42.08C612.016 42.208 611.888 42.272 611.76 42.272H610.8C610.032 42.272 609.424 42.88 609.424 43.648V47.04C609.424 47.808 610.032 48.416 610.8 48.416H612.56C616.976 48.192 620.08 47.84 620.08 42.336V27.776C620.08 27.104 619.536 26.56 618.864 26.56H613.872ZM623.316 26.56C622.452 26.56 621.78 27.232 621.78 28.064V40.32C621.78 46.752 625.268 48.416 631.22 48.416C637.204 48.416 640.628 46.592 640.628 40.192V28.064C640.628 27.232 639.956 26.56 639.124 26.56H634.708C633.876 26.56 633.204 27.232 633.204 28.064V40.608C633.204 41.984 632.468 42.304 631.22 42.304C629.972 42.304 629.204 41.984 629.204 40.608V28.064C629.204 27.232 628.532 26.56 627.7 26.56H623.316ZM660.392 36.64C660.392 35.936 659.848 35.392 659.144 35.392H653.736C653.032 35.392 652.488 35.936 652.488 36.64L652.52 39.616C652.52 40.16 652.936 40.576 653.48 40.576V41.088C653.48 41.696 653 42.176 652.392 42.208C649.544 42.208 649.48 39.68 649.48 37.44C649.48 35.776 649.544 34.624 649.704 33.952C649.896 33.024 650.344 32.832 651.176 32.576C651.56 32.48 652.392 32.416 653.704 32.416C654.76 32.416 656.456 32.512 658.792 32.704C659.592 32.704 660.232 32.192 660.232 31.36V28.288C660.232 27.68 659.816 27.136 659.208 26.976L659.016 26.944C656.744 26.496 654.408 26.144 652.072 26.144C644.2 26.144 641.992 29.76 641.992 37.248C641.992 44.288 643.624 48.288 651.816 48.288C653.48 48.288 655.944 48.032 659.208 47.552C659.88 47.424 660.392 46.848 660.392 46.176V36.64ZM661.328 46.368C661.136 47.2 661.776 48 662.64 48H667.152C667.792 48 668.336 47.552 668.464 46.912L668.528 46.624C668.656 45.984 669.2 45.536 669.872 45.536H672.592C673.2 45.536 673.744 45.952 673.904 46.56L674 46.976C674.16 47.584 674.704 48 675.312 48H680.048C680.912 48 681.552 47.2 681.36 46.336L677.168 27.616C677.008 27.008 676.464 26.56 675.824 26.56H666.768C666.128 26.56 665.584 27.008 665.456 27.616L661.328 46.368ZM671.728 32.384L672.656 38.304C672.784 39.136 672.144 39.872 671.312 39.872C670.48 39.872 669.84 39.136 669.968 38.304L670.928 32.384H671.728ZM690.95 42.464C691.398 42.464 691.814 42.784 691.91 43.264L692.806 47.2C692.902 47.68 693.318 48 693.766 48H699.174C699.846 48 700.326 47.36 700.134 46.72L698.566 41.312C698.47 40.96 698.566 40.576 698.822 40.352C700.134 39.04 700.774 37.024 700.774 34.336C700.774 27.904 697.414 26.56 691.526 26.56H683.526C682.95 26.56 682.502 27.008 682.502 27.584V46.976C682.502 47.552 682.95 48 683.526 48H688.902C689.478 48 689.926 47.552 689.926 46.976V43.488C689.926 42.912 690.374 42.464 690.95 42.464ZM690.918 36.608C690.342 36.608 689.894 36.16 689.894 35.584V33.44C689.894 32.864 690.342 32.416 690.918 32.416H691.526C692.71 32.416 693.286 33.12 693.286 34.528C693.286 35.904 692.774 36.608 691.718 36.608H690.918Z" fill="#FDF9F5"/>
<path d="M788.194 37.92C788.194 27.584 782.338 24.672 772.802 24.672C762.594 24.672 756.674 28.224 756.674 39.648C756.674 50.912 760.354 55.008 772.482 55.008C773.314 55.008 774.53 54.944 776.098 54.816C776.674 54.752 777.154 54.24 777.122 53.664L777.09 51.008C777.058 50.4 776.546 49.888 775.874 49.92L772.45 50.144C769.602 50.144 767.458 49.888 766.05 49.408C761.826 48 761.698 43.488 761.698 39.648C761.698 31.36 765.09 29.536 773.09 29.536C779.33 29.536 782.85 30.464 782.85 37.888V38.464C782.85 40.224 782.786 41.344 782.626 41.856C782.498 42.368 782.178 42.624 781.698 42.624C781.218 42.624 780.898 42.336 780.706 41.76C780.514 41.216 780.418 40.096 780.418 38.4V33.408C780.418 32.768 779.906 32.256 779.266 32.256H773.25V33.056L772.802 32.768C772.066 32.224 770.498 31.84 769.602 31.84C764.642 31.84 763.586 35.968 763.586 40.16C763.586 44.96 765.058 48 770.274 48C771.778 48 773.218 47.584 774.53 46.752C774.69 46.624 774.882 46.592 775.106 46.592C775.33 46.592 775.586 46.656 775.778 46.816C776.962 47.584 778.69 48 780.962 48C783.682 48 785.57 47.328 786.626 45.984C787.682 44.64 788.194 42.144 788.194 38.464V37.92ZM770.818 39.936C770.818 38.976 770.818 37.632 772.098 37.632C772.738 37.632 773.25 38.144 773.25 38.752V39.072C773.25 39.84 773.282 40.48 773.314 41.056C773.346 41.632 772.994 42.144 772.45 42.24C772.258 42.272 772.066 42.304 771.906 42.304C771.49 42.304 771.202 42.144 771.042 41.792C770.882 41.472 770.818 40.864 770.818 39.936ZM793.581 26.56C792.909 26.56 792.365 27.104 792.365 27.776V37.696C792.365 39.232 792.333 40.288 792.269 40.896C792.237 41.28 792.173 41.536 792.141 41.696C792.109 41.856 792.013 41.984 791.853 42.08C791.725 42.208 791.597 42.272 791.469 42.272H790.509C789.741 42.272 789.133 42.88 789.133 43.648V47.04C789.133 47.808 789.741 48.416 790.509 48.416H792.269C796.685 48.192 799.789 47.84 799.789 42.336V27.776C799.789 27.104 799.245 26.56 798.573 26.56H793.581ZM803.025 26.56C802.161 26.56 801.489 27.232 801.489 28.064V40.32C801.489 46.752 804.977 48.416 810.929 48.416C816.913 48.416 820.337 46.592 820.337 40.192V28.064C820.337 27.232 819.665 26.56 818.833 26.56H814.417C813.585 26.56 812.913 27.232 812.913 28.064V40.608C812.913 41.984 812.177 42.304 810.929 42.304C809.681 42.304 808.913 41.984 808.913 40.608V28.064C808.913 27.232 808.241 26.56 807.409 26.56H803.025ZM840.101 36.64C840.101 35.936 839.557 35.392 838.853 35.392H833.445C832.741 35.392 832.197 35.936 832.197 36.64L832.229 39.616C832.229 40.16 832.645 40.576 833.189 40.576V41.088C833.189 41.696 832.709 42.176 832.101 42.208C829.253 42.208 829.189 39.68 829.189 37.44C829.189 35.776 829.253 34.624 829.413 33.952C829.605 33.024 830.053 32.832 830.885 32.576C831.269 32.48 832.101 32.416 833.413 32.416C834.469 32.416 836.165 32.512 838.501 32.704C839.301 32.704 839.941 32.192 839.941 31.36V28.288C839.941 27.68 839.525 27.136 838.917 26.976L838.725 26.944C836.453 26.496 834.117 26.144 831.781 26.144C823.909 26.144 821.701 29.76 821.701 37.248C821.701 44.288 823.333 48.288 831.525 48.288C833.189 48.288 835.653 48.032 838.917 47.552C839.589 47.424 840.101 46.848 840.101 46.176V36.64ZM841.037 46.368C840.845 47.2 841.485 48 842.349 48H846.861C847.501 48 848.045 47.552 848.173 46.912L848.237 46.624C848.365 45.984 848.909 45.536 849.581 45.536H852.301C852.909 45.536 853.453 45.952 853.613 46.56L853.709 46.976C853.869 47.584 854.413 48 855.021 48H859.757C860.621 48 861.261 47.2 861.069 46.336L856.877 27.616C856.717 27.008 856.173 26.56 855.533 26.56H846.477C845.837 26.56 845.293 27.008 845.165 27.616L841.037 46.368ZM851.437 32.384L852.365 38.304C852.493 39.136 851.853 39.872 851.021 39.872C850.189 39.872 849.549 39.136 849.677 38.304L850.637 32.384H851.437ZM862.211 46.656C862.211 47.392 862.819 48 863.555 48H868.291C869.027 48 869.635 47.392 869.635 46.656V41.6C869.635 41.184 869.955 40.928 870.307 40.928C870.531 40.928 870.723 41.024 870.851 41.248L874.595 47.296C874.819 47.744 875.267 48 875.779 48H880.963C881.699 48 882.307 47.392 882.307 46.656V27.904C882.307 27.168 881.699 26.56 880.963 26.56H876.227C875.491 26.56 874.883 27.168 874.883 27.904V32.512C874.883 32.896 874.563 33.152 874.211 33.152C874.019 33.152 873.795 33.056 873.667 32.864L869.891 27.2C869.667 26.816 869.219 26.56 868.739 26.56H863.555C862.819 26.56 862.211 27.168 862.211 27.904V46.656ZM893.618 48C901.01 48 903.698 44.096 903.698 37.024C903.698 29.728 900.626 26.56 893.298 26.56H885.554C884.818 26.56 884.242 27.136 884.242 27.872V46.688C884.242 47.424 884.818 48 885.554 48H893.618ZM896.21 37.408C896.21 40 896.018 41.952 892.978 41.952C892.242 41.952 891.666 41.376 891.666 40.64V33.92C891.666 33.184 892.242 32.608 892.978 32.608C894.354 32.608 895.218 32.928 895.602 33.568C896.018 34.208 896.21 35.488 896.21 37.408ZM925.148 37.28C925.148 30.016 922.556 26.144 914.94 26.144C907.356 26.144 904.732 30.016 904.732 37.248C904.732 44.48 907.42 48.416 914.972 48.416C922.524 48.416 925.148 44.48 925.148 37.28ZM912.22 37.28C912.22 35.456 912.412 34.144 912.764 33.344C913.116 32.544 913.852 32.16 914.972 32.16C916.092 32.16 916.828 32.544 917.148 33.312C917.5 34.112 917.66 35.424 917.66 37.248C917.66 39.104 917.5 40.416 917.148 41.216C916.796 42.016 916.06 42.4 914.972 42.4C913.852 42.4 913.116 41.984 912.764 41.184C912.412 40.384 912.22 39.104 912.22 37.28ZM925.57 31.104C925.57 31.936 926.242 32.608 927.106 32.608H928.482C929.314 32.608 929.986 33.28 929.986 34.144V46.496C929.986 47.328 930.658 48 931.49 48H935.906C936.738 48 937.41 47.328 937.41 46.496V34.144C937.41 33.28 938.082 32.608 938.914 32.608H940.066C940.898 32.608 941.57 31.936 941.57 31.104V28.096C941.57 27.232 940.898 26.56 940.066 26.56H927.106C926.242 26.56 925.57 27.232 925.57 28.096V31.104ZM962.429 37.28C962.429 30.016 959.837 26.144 952.221 26.144C944.637 26.144 942.013 30.016 942.013 37.248C942.013 44.48 944.701 48.416 952.253 48.416C959.805 48.416 962.429 44.48 962.429 37.28ZM949.501 37.28C949.501 35.456 949.693 34.144 950.045 33.344C950.397 32.544 951.133 32.16 952.253 32.16C953.373 32.16 954.109 32.544 954.429 33.312C954.781 34.112 954.941 35.424 954.941 37.248C954.941 39.104 954.781 40.416 954.429 41.216C954.077 42.016 953.341 42.4 952.253 42.4C951.133 42.4 950.397 41.984 950.045 41.184C949.693 40.384 949.501 39.104 949.501 37.28ZM973.724 48C974.236 48 974.652 47.584 974.652 47.04V41.472C974.652 41.344 974.684 41.216 974.748 41.088L980.38 27.872C980.636 27.264 980.188 26.56 979.484 26.56H973.788C973.372 26.56 973.02 26.816 972.892 27.2L971.932 30.08C971.772 30.528 971.388 30.752 971.036 30.752C970.652 30.752 970.268 30.528 970.108 30.08L969.212 27.232C969.084 26.816 968.732 26.56 968.316 26.56H962.556C961.852 26.56 961.404 27.232 961.66 27.872L967.164 41.12C967.196 41.216 967.228 41.344 967.228 41.472V47.04C967.228 47.584 967.644 48 968.188 48H973.724Z" fill="#154193"/>
<rect x="1004.94" y="9.33887" width="482.73" height="53.3249" rx="16" fill="#2488D5"/>
<path d="M1037.16 47.136C1037.13 47.616 1037.51 48 1037.99 48H1041.93C1042.41 48 1042.76 47.648 1042.79 47.168L1042.82 45.216C1042.86 44.736 1043.21 44.384 1043.69 44.384H1043.98C1044.46 44.384 1044.84 44.768 1044.81 45.248L1044.78 47.136C1044.74 47.616 1045.13 48 1045.61 48H1049.58C1050.02 48 1050.41 47.648 1050.44 47.168L1050.47 45.216C1050.5 44.736 1050.86 44.384 1051.34 44.384H1051.5C1051.94 44.384 1052.33 44 1052.36 43.552L1052.42 39.584C1052.46 39.104 1052.07 38.72 1051.59 38.72H1051.53C1051.05 38.72 1050.66 38.336 1050.7 37.856V36.992C1050.73 36.544 1051.08 36.16 1051.56 36.16H1051.66C1052.14 36.16 1052.49 35.808 1052.52 35.328L1052.68 31.392C1052.68 30.912 1052.3 30.496 1051.82 30.496H1051.72C1051.24 30.496 1050.86 30.112 1050.89 29.632L1050.95 27.456C1050.98 26.944 1050.6 26.56 1050.12 26.56H1046.15C1045.67 26.56 1045.32 26.912 1045.29 27.392L1045.22 29.664C1045.19 30.144 1044.84 30.496 1044.36 30.496H1044.07C1043.59 30.496 1043.21 30.112 1043.24 29.632L1043.3 27.456C1043.34 26.944 1042.95 26.56 1042.47 26.56H1038.54C1038.06 26.56 1037.7 26.912 1037.67 27.392L1037.61 29.664C1037.58 30.144 1037.22 30.496 1036.74 30.496C1036.26 30.496 1035.91 30.848 1035.88 31.328L1035.72 35.264C1035.72 35.744 1036.1 36.16 1036.58 36.16C1037.06 36.16 1037.45 36.544 1037.42 37.024V37.888C1037.38 38.368 1037.03 38.72 1036.55 38.72H1036.52C1036.04 38.72 1035.69 39.072 1035.66 39.552L1035.5 43.488C1035.5 43.968 1035.88 44.384 1036.36 44.384C1036.84 44.384 1037.22 44.768 1037.19 45.248L1037.16 47.136ZM1043.05 36.992C1043.08 36.544 1043.46 36.16 1043.91 36.16H1044.2C1044.68 36.16 1045.06 36.544 1045.03 37.024V37.888C1045 38.368 1044.62 38.72 1044.17 38.72H1043.88C1043.4 38.72 1043.02 38.336 1043.05 37.856V36.992ZM1062.14 26.56C1061.28 26.56 1060.6 27.232 1060.6 28.064V40.32C1060.6 46.752 1064.09 48.416 1070.04 48.416C1076.03 48.416 1079.45 46.592 1079.45 40.192V28.064C1079.45 27.232 1078.78 26.56 1077.95 26.56H1073.53C1072.7 26.56 1072.03 27.232 1072.03 28.064V40.608C1072.03 41.984 1071.29 42.304 1070.04 42.304C1068.8 42.304 1068.03 41.984 1068.03 40.608V28.064C1068.03 27.232 1067.36 26.56 1066.52 26.56H1062.14ZM1081.23 46.656C1081.23 47.392 1081.84 48 1082.58 48H1087.31C1088.05 48 1088.66 47.392 1088.66 46.656V41.6C1088.66 41.184 1088.98 40.928 1089.33 40.928C1089.55 40.928 1089.74 41.024 1089.87 41.248L1093.62 47.296C1093.84 47.744 1094.29 48 1094.8 48H1099.98C1100.72 48 1101.33 47.392 1101.33 46.656V27.904C1101.33 27.168 1100.72 26.56 1099.98 26.56H1095.25C1094.51 26.56 1093.9 27.168 1093.9 27.904V32.512C1093.9 32.896 1093.58 33.152 1093.23 33.152C1093.04 33.152 1092.82 33.056 1092.69 32.864L1088.91 27.2C1088.69 26.816 1088.24 26.56 1087.76 26.56H1082.58C1081.84 26.56 1081.23 27.168 1081.23 27.904V46.656ZM1102.53 46.368C1102.34 47.2 1102.98 48 1103.84 48H1108.35C1108.99 48 1109.54 47.552 1109.66 46.912L1109.73 46.624C1109.86 45.984 1110.4 45.536 1111.07 45.536H1113.79C1114.4 45.536 1114.94 45.952 1115.1 46.56L1115.2 46.976C1115.36 47.584 1115.9 48 1116.51 48H1121.25C1122.11 48 1122.75 47.2 1122.56 46.336L1118.37 27.616C1118.21 27.008 1117.66 26.56 1117.02 26.56H1107.97C1107.33 26.56 1106.78 27.008 1106.66 27.616L1102.53 46.368ZM1112.93 32.384L1113.86 38.304C1113.98 39.136 1113.34 39.872 1112.51 39.872C1111.68 39.872 1111.04 39.136 1111.17 38.304L1112.13 32.384H1112.93ZM1123.7 46.656C1123.7 47.392 1124.31 48 1125.05 48H1129.78C1130.52 48 1131.13 47.392 1131.13 46.656V41.6C1131.13 41.184 1131.45 40.928 1131.8 40.928C1132.02 40.928 1132.21 41.024 1132.34 41.248L1136.09 47.296C1136.31 47.744 1136.76 48 1137.27 48H1142.45C1143.19 48 1143.8 47.392 1143.8 46.656V27.904C1143.8 27.168 1143.19 26.56 1142.45 26.56H1137.72C1136.98 26.56 1136.37 27.168 1136.37 27.904V32.512C1136.37 32.896 1136.05 33.152 1135.7 33.152C1135.51 33.152 1135.29 33.056 1135.16 32.864L1131.38 27.2C1131.16 26.816 1130.71 26.56 1130.23 26.56H1125.05C1124.31 26.56 1123.7 27.168 1123.7 27.904V46.656ZM1147.14 26.56C1146.28 26.56 1145.6 27.232 1145.6 28.064V40.32C1145.6 46.752 1149.09 48.416 1155.04 48.416C1161.03 48.416 1164.45 46.592 1164.45 40.192V28.064C1164.45 27.232 1163.78 26.56 1162.95 26.56H1158.53C1157.7 26.56 1157.03 27.232 1157.03 28.064V40.608C1157.03 41.984 1156.29 42.304 1155.04 42.304C1153.8 42.304 1153.03 41.984 1153.03 40.608V28.064C1153.03 27.232 1152.36 26.56 1151.52 26.56H1147.14ZM1166.23 47.072C1166.23 47.584 1166.65 48 1167.16 48H1181.4C1181.88 48 1182.3 47.584 1182.3 47.072V42.976C1182.3 42.496 1181.88 42.08 1181.4 42.08H1174.58C1174.07 42.08 1173.66 41.664 1173.66 41.152V41.056C1173.66 40.576 1174.07 40.16 1174.58 40.16H1179.48C1179.96 40.16 1180.38 39.744 1180.38 39.232V35.2C1180.38 34.72 1179.96 34.304 1179.48 34.304H1174.58C1174.07 34.304 1173.66 33.888 1173.66 33.376C1173.66 32.896 1174.07 32.48 1174.58 32.48H1181.4C1181.88 32.48 1182.3 32.064 1182.3 31.552V27.456C1182.3 26.976 1181.88 26.56 1181.4 26.56H1167.16C1166.65 26.56 1166.23 26.976 1166.23 27.456V47.072ZM1201.75 28.384C1201.91 27.424 1201.2 26.56 1200.24 26.56H1195.57C1194.8 26.56 1194.16 27.136 1194.07 27.904L1192.72 40.512H1192.15L1190.64 27.904C1190.55 27.136 1189.91 26.56 1189.14 26.56H1184.47C1183.51 26.56 1182.77 27.424 1182.96 28.384L1186.71 46.784C1186.87 47.488 1187.47 48 1188.21 48H1196.66C1197.36 48 1198 47.488 1198.13 46.784L1201.75 28.384ZM1200.72 46.368C1200.52 47.2 1201.16 48 1202.03 48H1206.54C1207.18 48 1207.72 47.552 1207.85 46.912L1207.92 46.624C1208.04 45.984 1208.59 45.536 1209.26 45.536H1211.98C1212.59 45.536 1213.13 45.952 1213.29 46.56L1213.39 46.976C1213.55 47.584 1214.09 48 1214.7 48H1219.44C1220.3 48 1220.94 47.2 1220.75 46.336L1216.56 27.616C1216.4 27.008 1215.85 26.56 1215.21 26.56H1206.16C1205.52 26.56 1204.97 27.008 1204.84 27.616L1200.72 46.368ZM1211.12 32.384L1212.04 38.304C1212.17 39.136 1211.53 39.872 1210.7 39.872C1209.87 39.872 1209.23 39.136 1209.36 38.304L1210.32 32.384H1211.12ZM1221.89 46.656C1221.89 47.392 1222.5 48 1223.2 48H1228C1228.7 48 1229.31 47.392 1229.31 46.656V43.424C1229.31 42.72 1229.92 42.112 1230.62 42.112H1234.11C1234.82 42.112 1235.42 41.504 1235.42 40.8V37.376C1235.42 36.672 1234.82 36.064 1234.11 36.064H1230.62C1229.92 36.064 1229.31 35.456 1229.31 34.752V33.92C1229.31 33.216 1229.92 32.608 1230.62 32.608H1236.03C1236.74 32.608 1237.34 32 1237.34 31.296V27.872C1237.34 27.168 1236.74 26.56 1236.03 26.56H1223.2C1222.5 26.56 1221.89 27.168 1221.89 27.872V46.656ZM1258.26 37.28C1258.26 30.016 1255.67 26.144 1248.05 26.144C1240.47 26.144 1237.85 30.016 1237.85 37.248C1237.85 44.48 1240.53 48.416 1248.09 48.416C1255.64 48.416 1258.26 44.48 1258.26 37.28ZM1245.33 37.28C1245.33 35.456 1245.53 34.144 1245.88 33.344C1246.23 32.544 1246.97 32.16 1248.09 32.16C1249.21 32.16 1249.94 32.544 1250.26 33.312C1250.61 34.112 1250.77 35.424 1250.77 37.248C1250.77 39.104 1250.61 40.416 1250.26 41.216C1249.91 42.016 1249.17 42.4 1248.09 42.4C1246.97 42.4 1246.23 41.984 1245.88 41.184C1245.53 40.384 1245.33 39.104 1245.33 37.28ZM1268.18 42.464C1268.63 42.464 1269.04 42.784 1269.14 43.264L1270.04 47.2C1270.13 47.68 1270.55 48 1271 48H1276.4C1277.08 48 1277.56 47.36 1277.36 46.72L1275.8 41.312C1275.7 40.96 1275.8 40.576 1276.05 40.352C1277.36 39.04 1278 37.024 1278 34.336C1278 27.904 1274.64 26.56 1268.76 26.56H1260.76C1260.18 26.56 1259.73 27.008 1259.73 27.584V46.976C1259.73 47.552 1260.18 48 1260.76 48H1266.13C1266.71 48 1267.16 47.552 1267.16 46.976V43.488C1267.16 42.912 1267.6 42.464 1268.18 42.464ZM1268.15 36.608C1267.57 36.608 1267.12 36.16 1267.12 35.584V33.44C1267.12 32.864 1267.57 32.416 1268.15 32.416H1268.76C1269.94 32.416 1270.52 33.12 1270.52 34.528C1270.52 35.904 1270 36.608 1268.95 36.608H1268.15ZM1279.48 46.656C1279.48 47.392 1280.09 48 1280.83 48H1285.56C1286.3 48 1286.91 47.392 1286.91 46.656V36.96H1287.26L1288.89 46.656C1289.02 47.296 1289.56 47.776 1290.2 47.776H1294.17C1294.81 47.776 1295.35 47.296 1295.48 46.656L1297.15 36.96H1297.5V46.656C1297.5 47.392 1298.11 48 1298.84 48H1303.58C1304.31 48 1304.92 47.392 1304.92 46.656V27.904C1304.92 27.168 1304.31 26.56 1303.58 26.56H1294.68C1294.04 26.56 1293.5 27.04 1293.37 27.68L1292.83 31.008C1292.76 31.392 1292.44 31.584 1292.12 31.584C1291.8 31.584 1291.51 31.424 1291.42 31.04L1290.75 27.616C1290.62 27.008 1290.07 26.56 1289.43 26.56H1280.83C1280.09 26.56 1279.48 27.168 1279.48 27.904V46.656ZM1306.12 46.368C1305.93 47.2 1306.57 48 1307.43 48H1311.95C1312.59 48 1313.13 47.552 1313.26 46.912L1313.32 46.624C1313.45 45.984 1313.99 45.536 1314.67 45.536H1317.39C1317.99 45.536 1318.54 45.952 1318.7 46.56L1318.79 46.976C1318.95 47.584 1319.5 48 1320.11 48H1324.84C1325.71 48 1326.35 47.2 1326.15 46.336L1321.96 27.616C1321.8 27.008 1321.26 26.56 1320.62 26.56H1311.56C1310.92 26.56 1310.38 27.008 1310.25 27.616L1306.12 46.368ZM1316.52 32.384L1317.45 38.304C1317.58 39.136 1316.94 39.872 1316.11 39.872C1315.27 39.872 1314.63 39.136 1314.76 38.304L1315.72 32.384H1316.52ZM1336.67 48C1344.06 48 1346.75 44.096 1346.75 37.024C1346.75 29.728 1343.68 26.56 1336.35 26.56H1328.61C1327.87 26.56 1327.29 27.136 1327.29 27.872V46.688C1327.29 47.424 1327.87 48 1328.61 48H1336.67ZM1339.26 37.408C1339.26 40 1339.07 41.952 1336.03 41.952C1335.29 41.952 1334.72 41.376 1334.72 40.64V33.92C1334.72 33.184 1335.29 32.608 1336.03 32.608C1337.41 32.608 1338.27 32.928 1338.65 33.568C1339.07 34.208 1339.26 35.488 1339.26 37.408ZM1348.23 47.072C1348.23 47.584 1348.65 48 1349.16 48H1363.4C1363.88 48 1364.3 47.584 1364.3 47.072V42.976C1364.3 42.496 1363.88 42.08 1363.4 42.08H1356.58C1356.07 42.08 1355.66 41.664 1355.66 41.152V41.056C1355.66 40.576 1356.07 40.16 1356.58 40.16H1361.48C1361.96 40.16 1362.38 39.744 1362.38 39.232V35.2C1362.38 34.72 1361.96 34.304 1361.48 34.304H1356.58C1356.07 34.304 1355.66 33.888 1355.66 33.376C1355.66 32.896 1356.07 32.48 1356.58 32.48H1363.4C1363.88 32.48 1364.3 32.064 1364.3 31.552V27.456C1364.3 26.976 1363.88 26.56 1363.4 26.56H1349.16C1348.65 26.56 1348.23 26.976 1348.23 27.456V47.072ZM1369.6 26.56C1368.93 26.56 1368.39 27.104 1368.39 27.776V37.696C1368.39 39.232 1368.35 40.288 1368.29 40.896C1368.26 41.28 1368.19 41.536 1368.16 41.696C1368.13 41.856 1368.03 41.984 1367.87 42.08C1367.75 42.208 1367.62 42.272 1367.49 42.272H1366.53C1365.76 42.272 1365.15 42.88 1365.15 43.648V47.04C1365.15 47.808 1365.76 48.416 1366.53 48.416H1368.29C1372.71 48.192 1375.81 47.84 1375.81 42.336V27.776C1375.81 27.104 1375.27 26.56 1374.59 26.56H1369.6ZM1379.05 26.56C1378.18 26.56 1377.51 27.232 1377.51 28.064V40.32C1377.51 46.752 1381 48.416 1386.95 48.416C1392.93 48.416 1396.36 46.592 1396.36 40.192V28.064C1396.36 27.232 1395.69 26.56 1394.85 26.56H1390.44C1389.61 26.56 1388.93 27.232 1388.93 28.064V40.608C1388.93 41.984 1388.2 42.304 1386.95 42.304C1385.7 42.304 1384.93 41.984 1384.93 40.608V28.064C1384.93 27.232 1384.26 26.56 1383.43 26.56H1379.05ZM1416.12 36.64C1416.12 35.936 1415.58 35.392 1414.87 35.392H1409.47C1408.76 35.392 1408.22 35.936 1408.22 36.64L1408.25 39.616C1408.25 40.16 1408.67 40.576 1409.21 40.576V41.088C1409.21 41.696 1408.73 42.176 1408.12 42.208C1405.27 42.208 1405.21 39.68 1405.21 37.44C1405.21 35.776 1405.27 34.624 1405.43 33.952C1405.63 33.024 1406.07 32.832 1406.91 32.576C1407.29 32.48 1408.12 32.416 1409.43 32.416C1410.49 32.416 1412.19 32.512 1414.52 32.704C1415.32 32.704 1415.96 32.192 1415.96 31.36V28.288C1415.96 27.68 1415.55 27.136 1414.94 26.976L1414.75 26.944C1412.47 26.496 1410.14 26.144 1407.8 26.144C1399.93 26.144 1397.72 29.76 1397.72 37.248C1397.72 44.288 1399.35 48.288 1407.55 48.288C1409.21 48.288 1411.67 48.032 1414.94 47.552C1415.61 47.424 1416.12 46.848 1416.12 46.176V36.64ZM1417.06 46.368C1416.87 47.2 1417.51 48 1418.37 48H1422.88C1423.52 48 1424.07 47.552 1424.19 46.912L1424.26 46.624C1424.39 45.984 1424.93 45.536 1425.6 45.536H1428.32C1428.93 45.536 1429.47 45.952 1429.63 46.56L1429.73 46.976C1429.89 47.584 1430.43 48 1431.04 48H1435.78C1436.64 48 1437.28 47.2 1437.09 46.336L1432.9 27.616C1432.74 27.008 1432.19 26.56 1431.55 26.56H1422.5C1421.86 26.56 1421.31 27.008 1421.19 27.616L1417.06 46.368ZM1427.46 32.384L1428.39 38.304C1428.51 39.136 1427.87 39.872 1427.04 39.872C1426.21 39.872 1425.57 39.136 1425.7 38.304L1426.66 32.384H1427.46ZM1446.68 42.464C1447.13 42.464 1447.54 42.784 1447.64 43.264L1448.54 47.2C1448.63 47.68 1449.05 48 1449.5 48H1454.9C1455.58 48 1456.06 47.36 1455.86 46.72L1454.3 41.312C1454.2 40.96 1454.3 40.576 1454.55 40.352C1455.86 39.04 1456.5 37.024 1456.5 34.336C1456.5 27.904 1453.14 26.56 1447.26 26.56H1439.26C1438.68 26.56 1438.23 27.008 1438.23 27.584V46.976C1438.23 47.552 1438.68 48 1439.26 48H1444.63C1445.21 48 1445.66 47.552 1445.66 46.976V43.488C1445.66 42.912 1446.1 42.464 1446.68 42.464ZM1446.65 36.608C1446.07 36.608 1445.62 36.16 1445.62 35.584V33.44C1445.62 32.864 1446.07 32.416 1446.65 32.416H1447.26C1448.44 32.416 1449.02 33.12 1449.02 34.528C1449.02 35.904 1448.5 36.608 1447.45 36.608H1446.65Z" fill="#FDF9F5"/>
</svg>
