<svg width="74" height="69" viewBox="0 0 74 69" fill="none" xmlns="http://www.w3.org/2000/svg">
<path d="M64.4318 57.0557C63.2583 57.1329 63.4622 58.9957 64.4508 58.1168C64.6961 57.8987 64.7193 57.6837 64.7646 57.3898C64.8074 57.1118 64.6234 56.6888 64.5397 57.1503" stroke="#F36D2A" stroke-width="2" stroke-linecap="round"/>
<path d="M51.5581 53.9156C50.3272 54.1524 52.027 57.3373 52.877 55.3152C53.0839 54.823 53.0946 54.3363 52.5351 54.0637C52.2454 53.9225 51.2768 53.6859 51.9948 54.0992" stroke="#F36D2A" stroke-width="3" stroke-linecap="round"/>
<path d="M62.3751 46.0948C61.6859 46.2274 61.8186 48.7932 63.293 47.6638" stroke="#F36D2A" stroke-width="5" stroke-linecap="round"/>
<path d="M1.28 5.34269C1.37103 6.72636 1.97859 8.46309 2.46406 9.77771C2.90157 10.9625 3.2363 12.207 3.73826 13.366C4.01767 14.0111 4.21354 14.6945 4.52756 15.3217C4.82049 15.9067 5.21483 16.4758 5.48389 17.0777C6.22506 18.7356 7.78871 19.8749 8.75293 21.3841C9.0562 21.8588 9.46377 22.2868 9.84347 22.7023C10.3566 23.2637 10.6683 23.961 11.1574 24.5463C11.8536 25.3794 12.5961 26.0874 13.3433 26.8648C14.7309 28.3085 15.8129 30.0023 17.3508 31.3114C18.1771 32.0148 19.2485 32.7567 19.8966 33.6235C20.4923 34.42 21.4644 34.8628 22.0367 35.6362C22.4554 36.2021 23.5856 36.8389 24.1897 37.1933C24.9475 37.6378 25.5493 38.2291 26.2168 38.793C27.5393 39.9104 29.0702 40.7146 30.3645 41.8491C30.8571 42.2809 31.5451 42.5447 32.0828 42.9286C32.5544 43.2653 33.2342 43.6618 33.7762 43.8897C34.5323 44.2075 35.7006 45.0387 36.4768 45.0333C36.9184 45.0302 36.887 44.3192 37.1115 43.9877C37.4385 43.505 37.797 43.3799 38.2785 43.2074C39.0995 42.9133 39.9548 41.868 40.5177 41.2498C41.6341 40.0236 42.8767 39.0429 43.8005 37.6791C44.3656 36.8448 44.4944 35.4471 44.4303 34.4718C44.3957 33.9465 44.3682 33.5288 44.3342 33.011C44.2966 32.4404 43.7232 32.0529 43.3923 31.6058C42.654 30.608 41.3779 29.9126 40.4384 29.089C39.8678 28.5889 39.2972 28.0887 38.7267 27.5886C38.2907 27.2065 37.7442 26.4278 37.2439 26.1761C36.8511 25.9786 36.5811 25.5114 36.2527 25.1946C35.9139 24.8679 35.3546 24.4269 35.0954 24.0353C34.8241 23.6255 34.2542 23.3877 33.9778 22.9591C33.6799 22.4972 33.2814 22.0028 32.7841 21.7679C31.6458 21.23 30.7487 19.8711 29.8263 19.0625C28.908 18.2576 28.0296 17.4877 27.1222 16.6923C26.0414 15.7449 24.7796 15.0383 23.6655 14.097C23.0246 13.5555 22.0676 12.9571 21.2982 12.674C20.4286 12.3541 19.6174 11.7722 18.7469 11.452C18.2837 11.2816 17.9228 10.8616 17.4988 10.6075C17.0564 10.3424 16.4577 10.2367 16.0665 9.96387C15.3994 9.49857 14.1621 9.59241 13.5623 8.93604C13.1521 8.48718 11.5835 7.82007 11.016 7.79087C10.6838 7.77377 9.01172 7.16745 8.79746 6.933C8.32807 6.41937 7.05888 6.43508 6.43305 6.20484C6.0724 6.07216 5.2882 6.23245 5.02608 5.94563C4.88624 5.79261 4.0484 5.62387 3.84753 5.63708C3.3415 5.67037 1.59939 5.46959 1.72107 5.00481" stroke="#F36D2A" stroke-linecap="round"/>
<path d="M12.7103 17.0996C12.6268 18.9567 12.7909 21.8129 13.9668 23.4174C14.5589 24.2254 14.8249 25.1706 15.684 25.7839C16.2409 26.1816 17.1185 26.539 17.8069 26.4937C19.476 26.3839 21.069 26.4556 22.7275 26.17C23.2113 26.0866 23.9792 24.7902 24.1175 24.3454C24.3507 23.5955 24.462 22.4695 24.441 21.6988C24.4218 20.9918 24.0662 19.8353 23.7376 19.2226C23.2763 18.3625 22.8172 17.2365 22.1038 16.5589C21.5458 16.0289 21.0122 14.9928 20.1919 14.7542C19.257 14.4823 18.4125 13.8791 17.4954 13.5417C16.2114 13.0693 14.5572 13.7535 13.4632 14.459C12.7752 14.9027 12.7816 15.6823 12.5401 16.3386C12.3865 16.7564 12.6159 18.012 12.5869 17.571" stroke="#F36D2A" stroke-linecap="round"/>
<path d="M46.5312 39.6055C46.6145 40.0385 48.4403 40.3101 48.7447 40.3865C50.3983 40.8014 52.1663 40.7845 53.7827 41.3248C54.5156 41.5698 55.249 41.8339 55.9916 42.0375C56.447 42.1623 56.9621 42.4536 56.2672 42.0536" stroke="#F36D2A" stroke-linecap="round"/>
<path d="M44.5498 42.3594C44.5958 42.6174 44.8187 42.8688 45.0059 43.0329C46.2512 44.1244 47.6278 45.0311 48.9595 46.0073C50.5225 47.153 52.3092 48.0657 54.0875 48.8359C54.7053 49.1034 55.3384 49.3696 55.9216 49.719C56.0088 49.7713 56.9208 50.2512 56.4851 50.0681" stroke="#F36D2A" stroke-linecap="round"/>
<path d="M40.7354 45.3906C40.8045 46.4413 41.6237 47.4165 42.095 48.3212C42.5455 49.1862 43.1097 50.0822 43.6463 50.9046C43.9023 51.2971 44.1482 51.6942 44.3855 52.1C44.4951 52.2873 45.1401 52.8976 44.7475 52.3851" stroke="#F36D2A" stroke-linecap="round"/>
<path d="M24.4592 14.9354C25.5661 14.8626 26.6881 14.3255 27.8117 14.2516C28.8083 14.186 30.0835 14.0673 31.056 14.2698C32.568 14.5846 34.0602 14.5778 35.5811 14.9759C36.8219 15.3008 38.0405 15.7191 39.2144 16.2126C41.5334 17.1875 43.2687 18.9925 45.2922 20.4372C47.1937 21.7948 48.0973 23.9021 49.6352 25.5481C50.4718 26.4436 51.0325 27.5319 51.9003 28.4191C52.3763 28.9058 52.6192 29.6356 52.9187 30.2053C53.1526 30.6504 53.1657 31.5546 53.6023 31.8591C54.2145 32.2861 52.1735 31.4208 51.444 31.2633C50.5066 31.0609 49.4823 31.1457 48.5856 30.7221C48.0183 30.454 46.8145 30.2981 46.1668 30.3407C45.5542 30.381 44.888 30.2704 44.2346 30.3134C43.9445 30.3324 42.462 30.4279 42.7839 30.5632" stroke="#F36D2A" stroke-linecap="round"/>
<path d="M14.5346 28.4067C14.258 28.4649 14.418 30.591 14.3854 30.9647C14.3086 31.8462 14.2247 33.056 14.6625 33.8721C14.8451 34.2126 14.9412 34.9378 14.9898 35.3263C15.062 35.9035 15.3245 36.5773 15.5703 37.107C15.9494 37.9243 16.3157 38.7474 16.7424 39.5351C17.0691 40.1383 17.5428 40.7251 17.8228 41.3516C18.7279 43.3762 20.2942 44.958 21.8189 46.5368C23.7956 48.5837 26.4705 49.5081 28.8373 50.9741C29.7536 51.5416 30.7851 52.2242 31.8011 52.598C32.3153 52.7871 32.6804 53.2681 33.2372 53.4301C33.6385 53.5468 34.1469 53.7146 34.5113 53.8868C34.8601 54.0516 36.36 54.4927 35.7016 53.8514C35.2575 53.4189 35.033 52.4766 34.7351 51.9416C33.9384 50.5107 33.7047 49.0419 33.2493 47.4836C33.0314 46.7382 33.1755 45.8132 32.8105 45.1187C32.6107 44.7385 32.2341 43.1321 32.9827 43.5631" stroke="#F36D2A" stroke-linecap="round"/>
<path d="M66.7124 51.5155C66.4473 51.533 67.1471 51.7676 67.2013 51.792C67.8784 52.0966 68.4976 52.5154 69.16 52.8284C69.3186 52.9033 69.534 53.27 69.4583 53.1405" stroke="#F36D2A" stroke-linecap="round"/>
<path d="M68.8524 50.2631C68.522 50.688 68.3659 51.3137 68.143 51.7952C67.9756 52.1567 67.8413 52.5174 67.7607 52.9045C67.7134 53.1317 67.6433 53.3453 67.608 53.5743C67.5937 53.667 67.4017 53.9124 67.5586 53.8206" stroke="#F36D2A" stroke-linecap="round"/>
<path d="M55.7993 57.578C55.5343 57.5955 56.234 57.8301 56.2882 57.8545C56.9653 58.1591 57.5845 58.5779 58.2469 58.8909C58.4055 58.9658 58.621 59.3325 58.5452 59.203" stroke="#F36D2A" stroke-linecap="round"/>
<path d="M57.9384 56.3256C57.608 56.7505 57.4519 57.3762 57.2289 57.8577C57.0615 58.2192 56.9272 58.5799 56.8466 58.967C56.7993 59.1942 56.7292 59.4078 56.6939 59.6368C56.6796 59.7295 56.4876 59.9749 56.6445 59.8831" stroke="#F36D2A" stroke-linecap="round"/>
<path d="M70.1323 62.2616C69.8673 62.279 70.567 62.5137 70.6212 62.5381C71.2983 62.8427 71.9175 63.2615 72.5799 63.5745C72.7386 63.6494 72.954 64.0161 72.8783 63.8866" stroke="#F36D2A" stroke-linecap="round"/>
<path d="M72.2714 61.0091C71.941 61.4341 71.7849 62.0598 71.5619 62.5413C71.3945 62.9028 71.2602 63.2635 71.1796 63.6506C71.1323 63.8778 71.0623 64.0913 71.0269 64.3204C71.0126 64.4131 70.8206 64.6585 70.9776 64.5667" stroke="#F36D2A" stroke-linecap="round"/>
</svg>
