<svg width="82" height="292" viewBox="0 0 82 292" fill="none" xmlns="http://www.w3.org/2000/svg">
<path d="M50.6932 261.582C50.3186 261.816 50.2051 262.31 50.4395 262.684C50.6739 263.059 51.1676 263.172 51.5421 262.938L50.6932 261.582ZM57.4909 141.172L57.9396 140.51L57.4909 141.172ZM26.2048 175.934L26.0894 176.726L26.2048 175.934ZM73.1337 76.283L73.9252 76.1664L73.1337 76.283ZM4.47156 2.10874C4.91111 2.15347 5.3037 1.83339 5.34842 1.39383C5.39315 0.954271 5.07307 0.561683 4.63351 0.51696L4.47156 2.10874ZM15.9427 2.63992C15.5161 2.52479 15.077 2.77725 14.9619 3.20381C14.8467 3.63038 15.0992 4.06951 15.5258 4.18464L15.9427 2.63992ZM22.661 6.49952C23.0739 6.65677 23.5361 6.44952 23.6933 6.03662C23.8506 5.62372 23.6434 5.16153 23.2305 5.00428L22.661 6.49952ZM33.6314 9.90613C33.2476 9.6874 32.759 9.82129 32.5403 10.2052C32.3216 10.5891 32.4555 11.0776 32.8394 11.2963L33.6314 9.90613ZM39.15 15.3455C39.5088 15.6035 40.0087 15.5217 40.2666 15.163C40.5245 14.8043 40.4428 14.3044 40.084 14.0465L39.15 15.3455ZM48.8593 21.4833C48.546 21.1718 48.0395 21.1733 47.728 21.4867C47.4165 21.8 47.418 22.3066 47.7314 22.618L48.8593 21.4833ZM52.7597 28.163C53.0393 28.505 53.5433 28.5556 53.8854 28.276C54.2274 27.9963 54.278 27.4923 53.9984 27.1503L52.7597 28.163ZM60.6014 36.569C60.3743 36.19 59.883 36.0668 59.504 36.2939C59.125 36.5209 59.0018 37.0123 59.2289 37.3913L60.6014 36.569ZM62.7862 43.9799C62.9791 44.3774 63.4576 44.5434 63.8552 44.3506C64.2527 44.1577 64.4186 43.6791 64.2258 43.2816L62.7862 43.9799ZM68.5955 53.879C68.4509 53.4615 67.9952 53.2403 67.5777 53.3849C67.1602 53.5295 66.939 53.9852 67.0837 54.4027L68.5955 53.879ZM69.2977 61.6066C69.4131 62.0331 69.8523 62.2854 70.2788 62.17C70.7053 62.0546 70.9576 61.6154 70.8422 61.1889L69.2977 61.6066ZM73.3107 72.3528C73.2344 71.9176 72.8198 71.6267 72.3846 71.703C71.9494 71.7793 71.6585 72.1939 71.7348 72.6291L73.3107 72.3528ZM72.8833 80.2028C72.9433 80.6405 73.3468 80.9467 73.7846 80.8867C74.2223 80.8266 74.5285 80.4231 74.4685 79.9854L72.8833 80.2028ZM75.8315 91.2615C75.786 90.8221 75.3929 90.5027 74.9534 90.5482C74.5139 90.5937 74.1945 90.9869 74.2401 91.4264L75.8315 91.2615ZM74.9218 98.9464C74.9558 99.3869 75.3404 99.7165 75.7809 99.6825C76.2215 99.6486 76.551 99.2639 76.5171 98.8234L74.9218 98.9464ZM77.1327 110.206C77.1198 109.764 76.7513 109.417 76.3097 109.43C75.868 109.442 75.5205 109.811 75.5334 110.253L77.1327 110.206ZM75.6092 117.793C75.6047 118.235 75.9592 118.596 76.401 118.601C76.8428 118.606 77.2046 118.251 77.2092 117.809L75.6092 117.793ZM76.6839 129.204C76.7217 128.764 76.3955 128.376 75.9553 128.338C75.5151 128.3 75.1276 128.626 75.0898 129.067L76.6839 129.204ZM74.2121 136.507C74.1453 136.944 74.4453 137.352 74.8821 137.419C75.3188 137.486 75.727 137.186 75.7937 136.749L74.2121 136.507ZM73.3445 147.95C73.4699 147.526 73.2281 147.081 72.8045 146.955C72.3808 146.83 71.9357 147.072 71.8103 147.495L73.3445 147.95ZM69.2657 154.502C69.0875 154.906 69.2709 155.378 69.6752 155.556C70.0795 155.734 70.5517 155.551 70.7298 155.147L69.2657 154.502ZM64.7841 165.032C65.0637 164.69 65.0129 164.186 64.6707 163.906C64.3285 163.627 63.8245 163.677 63.545 164.02L64.7841 165.032ZM58.2759 169.156C57.9253 169.425 57.8591 169.927 58.128 170.278C58.3969 170.629 58.899 170.695 59.2496 170.426L58.2759 169.156ZM48.9439 175.698C49.3662 175.568 49.6031 175.12 49.4731 174.698C49.3431 174.275 48.8954 174.038 48.4731 174.168L48.9439 175.698ZM41.214 175.628C40.7747 175.675 40.4565 176.069 40.5035 176.508C40.5504 176.948 40.9445 177.266 41.3839 177.219L41.214 175.628ZM29.884 177.188C30.3238 177.23 30.7147 176.908 30.7572 176.469C30.7996 176.029 30.4776 175.638 30.0378 175.595L29.884 177.188ZM22.8134 174.223C22.4016 174.063 21.938 174.267 21.7779 174.679C21.6179 175.091 21.822 175.554 22.2338 175.714L22.8134 174.223ZM13.2576 168.199C13.4995 168.569 13.9953 168.673 14.3651 168.431C14.7348 168.189 14.8384 167.693 14.5965 167.323L13.2576 168.199ZM11.5798 160.631C11.4577 160.206 11.0145 159.961 10.5899 160.083C10.1653 160.205 9.92004 160.648 10.0422 161.073L11.5798 160.631ZM9.02606 149.468C8.98 149.907 9.29889 150.301 9.73831 150.347C10.1777 150.393 10.5713 150.074 10.6173 149.634L9.02606 149.468ZM12.397 142.504C12.5673 142.096 12.3748 141.627 11.9671 141.457C11.5594 141.287 11.0909 141.479 10.9206 141.887L12.397 142.504ZM18.2431 132.754C17.8749 132.999 17.7742 133.495 18.0183 133.863C18.2624 134.232 18.7588 134.332 19.1271 134.088L18.2431 132.754ZM25.8556 131.463C26.2909 131.388 26.5827 130.974 26.5072 130.539C26.4317 130.103 26.0176 129.811 25.5823 129.887L25.8556 131.463ZM37.1885 130.531C36.7594 130.426 36.3261 130.688 36.2208 131.117C36.1154 131.546 36.3778 131.98 36.8069 132.085L37.1885 130.531ZM43.8924 134.49C44.2989 134.664 44.7688 134.474 44.9419 134.068C45.1151 133.662 44.926 133.192 44.5195 133.018L43.8924 134.49ZM54.6741 138.385C54.2991 138.152 53.8057 138.266 53.5721 138.641C53.3384 139.016 53.453 139.51 53.8281 139.743L54.6741 138.385ZM60.1676 144.127C60.5136 144.402 61.0169 144.344 61.2916 143.998C61.5663 143.652 61.5085 143.149 61.1625 142.874L60.1676 144.127ZM69.5779 151.338C69.3054 150.99 68.8026 150.929 68.4548 151.201C68.1069 151.474 68.0458 151.977 68.3182 152.325L69.5779 151.338ZM72.5931 158.75C72.8092 159.135 73.2969 159.272 73.6822 159.056C74.0675 158.84 74.2046 158.352 73.9885 157.967L72.5931 158.75ZM78.6886 168.921C78.556 168.5 78.1068 168.265 77.6854 168.398C77.2639 168.531 77.0298 168.98 77.1624 169.401L78.6886 168.921ZM79.0378 176.922C79.1197 177.356 79.5381 177.641 79.9723 177.559C80.4064 177.478 80.692 177.059 80.61 176.625L79.0378 176.922ZM81.8997 188.445C81.8839 188.004 81.5132 187.658 81.0717 187.674C80.6301 187.69 80.2849 188.061 80.3007 188.502L81.8997 188.445ZM80.2351 196.281C80.2127 196.722 80.5522 197.098 80.9935 197.121C81.4347 197.143 81.8106 196.803 81.8331 196.362L80.2351 196.281ZM80.5358 208.156C80.6088 207.721 80.3147 207.308 79.8789 207.235C79.4432 207.162 79.0307 207.456 78.9578 207.892L80.5358 208.156ZM77.3977 215.526C77.2941 215.956 77.5583 216.388 77.9878 216.492C78.4173 216.595 78.8495 216.331 78.9531 215.901L77.3977 215.526ZM75.5785 227.274C75.7259 226.857 75.5079 226.4 75.0914 226.253C74.6749 226.105 74.2177 226.323 74.0702 226.74L75.5785 227.274ZM71.2097 233.99C71.0328 234.395 71.2176 234.866 71.6224 235.043C72.0273 235.22 72.4989 235.036 72.6758 234.631L71.2097 233.99ZM67.29 245.203C67.5151 244.822 67.3895 244.332 67.0093 244.107C66.6292 243.881 66.1385 244.007 65.9133 244.387L67.29 245.203ZM61.6265 250.866C61.363 251.22 61.437 251.721 61.7916 251.985C62.1463 252.248 62.6474 252.174 62.9109 251.82L61.6265 250.866ZM54.7857 260.586C55.1266 260.305 55.1752 259.801 54.8942 259.46C54.6132 259.119 54.109 259.07 53.768 259.351L54.7857 260.586ZM0.789062 1.07812C0.793567 1.87811 0.7935 1.87811 0.793438 1.87811C0.793424 1.87811 0.793368 1.87811 0.79334 1.87811C0.793286 1.87811 0.793252 1.87811 0.79324 1.87811C0.793214 1.87811 0.793273 1.87811 0.793415 1.87811C0.7937 1.87811 0.794319 1.87811 0.795271 1.87811C0.797176 1.8781 0.800413 1.8781 0.804972 1.8781C0.81409 1.8781 0.828493 1.87813 0.84809 1.87825C0.887283 1.87849 0.947248 1.8791 1.02725 1.88056C1.18725 1.8835 1.42738 1.8899 1.74176 1.90377C2.37056 1.93152 3.29614 1.98915 4.47156 2.10874L4.63351 0.51696C3.42554 0.394056 2.46938 0.334323 1.81229 0.305329C1.48373 0.290832 1.22987 0.284017 1.05663 0.280835C0.97001 0.279244 0.903535 0.278561 0.857946 0.27828C0.835151 0.278139 0.817576 0.2781 0.805314 0.278097C0.799183 0.278096 0.794381 0.278104 0.790917 0.278113C0.789186 0.278118 0.787789 0.278123 0.786729 0.278127C0.786198 0.278129 0.785752 0.278132 0.78539 0.278133C0.78521 0.278134 0.78505 0.278135 0.784911 0.278136C0.784842 0.278136 0.784753 0.278137 0.784719 0.278137C0.784636 0.278137 0.784558 0.278138 0.789062 1.07812ZM15.5258 4.18464C17.7541 4.78609 20.1524 5.54415 22.661 6.49952L23.2305 5.00428C20.6681 4.02843 18.2186 3.25421 15.9427 2.63992L15.5258 4.18464ZM32.8394 11.2963C34.9323 12.4888 37.0452 13.8322 39.15 15.3455L40.084 14.0465C37.9315 12.4988 35.7711 11.1252 33.6314 9.90613L32.8394 11.2963ZM47.7314 22.618C49.4457 24.3221 51.1274 26.1666 52.7597 28.163L53.9984 27.1503C52.3309 25.1107 50.6121 23.2256 48.8593 21.4833L47.7314 22.618ZM59.2289 37.3913C60.4703 39.4635 61.6596 41.6573 62.7862 43.9799L64.2258 43.2816C63.0788 40.9171 61.8672 38.6819 60.6014 36.569L59.2289 37.3913ZM67.0837 54.4027C67.8799 56.7012 68.62 59.101 69.2977 61.6066L70.8422 61.1889C70.1551 58.6484 69.4041 56.2132 68.5955 53.879L67.0837 54.4027ZM71.7348 72.6291C71.9513 73.8641 72.154 75.1208 72.3423 76.3995L73.9252 76.1664C73.7348 74.8734 73.5298 73.6023 73.3107 72.3528L71.7348 72.6291ZM72.3423 76.3995C72.5313 77.6831 72.7116 78.9508 72.8833 80.2028L74.4685 79.9854C74.296 78.728 74.115 77.4551 73.9252 76.1664L72.3423 76.3995ZM74.2401 91.4264C74.5074 94.0077 74.7342 96.5137 74.9218 98.9464L76.5171 98.8234C76.3283 96.3761 76.1003 93.8562 75.8315 91.2615L74.2401 91.4264ZM75.5334 110.253C75.6095 112.864 75.634 115.376 75.6092 117.793L77.2092 117.809C77.2341 115.37 77.2094 112.837 77.1327 110.206L75.5334 110.253ZM75.0898 129.067C74.8648 131.683 74.5706 134.161 74.2121 136.507L75.7937 136.749C76.1579 134.366 76.4561 131.853 76.6839 129.204L75.0898 129.067ZM71.8103 147.495C71.0569 150.04 70.2048 152.37 69.2657 154.502L70.7298 155.147C71.6984 152.949 72.5734 150.554 73.3445 147.95L71.8103 147.495ZM63.545 164.02C61.9038 166.029 60.1384 167.728 58.2759 169.156L59.2496 170.426C61.2119 168.921 63.0661 167.135 64.7841 165.032L63.545 164.02ZM48.4731 174.168C46.1164 174.894 43.6849 175.364 41.214 175.628L41.3839 177.219C43.9438 176.946 46.4773 176.457 48.9439 175.698L48.4731 174.168ZM30.0378 175.595C28.7924 175.475 27.5518 175.322 26.3203 175.143L26.0894 176.726C27.3442 176.909 28.6106 177.065 29.884 177.188L30.0378 175.595ZM26.3203 175.143C25.08 174.962 23.9109 174.65 22.8134 174.223L22.2338 175.714C23.4441 176.185 24.7302 176.528 26.0894 176.726L26.3203 175.143ZM14.5965 167.323C13.2859 165.32 12.2744 163.046 11.5798 160.631L10.0422 161.073C10.7764 163.626 11.8508 166.049 13.2576 168.199L14.5965 167.323ZM10.6173 149.634C10.8782 147.145 11.4691 144.726 12.397 142.504L10.9206 141.887C9.92724 144.266 9.30162 146.838 9.02606 149.468L10.6173 149.634ZM19.1271 134.088C21.0305 132.827 23.267 131.912 25.8556 131.463L25.5823 129.887C22.781 130.373 20.3357 131.368 18.2431 132.754L19.1271 134.088ZM36.8069 132.085C39.0151 132.627 41.3759 133.418 43.8924 134.49L44.5195 133.018C41.9326 131.916 39.4897 131.096 37.1885 130.531L36.8069 132.085ZM53.8281 139.743C54.8788 140.398 55.9502 141.095 57.0422 141.834L57.9396 140.51C56.8313 139.759 55.7428 139.051 54.6741 138.385L53.8281 139.743ZM57.0422 141.834C58.1273 142.569 59.1687 143.334 60.1676 144.127L61.1625 142.874C60.1317 142.056 59.0578 141.267 57.9396 140.51L57.0422 141.834ZM68.3182 152.325C69.917 154.366 71.3385 156.513 72.5931 158.75L73.9885 157.967C72.6953 155.662 71.2288 153.446 69.5779 151.338L68.3182 152.325ZM77.1624 169.401C77.9331 171.851 78.5549 174.363 79.0378 176.922L80.61 176.625C80.1162 174.008 79.4794 171.434 78.6886 168.921L77.1624 169.401ZM80.3007 188.502C80.3925 191.081 80.3675 193.679 80.2351 196.281L81.8331 196.362C81.9677 193.717 81.9932 191.073 81.8997 188.445L80.3007 188.502ZM78.9578 207.892C78.5272 210.463 78.004 213.012 77.3977 215.526L78.9531 215.901C79.568 213.352 80.0988 210.765 80.5358 208.156L78.9578 207.892ZM74.0702 226.74C73.1885 229.23 72.2312 231.653 71.2097 233.99L72.6758 234.631C73.7129 232.258 74.6842 229.8 75.5785 227.274L74.0702 226.74ZM65.9133 244.387C64.5385 246.709 63.1037 248.877 61.6265 250.866L62.9109 251.82C64.424 249.783 65.8893 247.567 67.29 245.203L65.9133 244.387ZM53.768 259.351C52.744 260.195 51.7173 260.941 50.6932 261.582L51.5421 262.938C52.6312 262.256 53.7139 261.469 54.7857 260.586L53.768 259.351Z" fill="#154193"/>
<path d="M22.3661 275.268C20.61 277.995 17.436 282.317 16.0686 284.137C19.0123 282.438 22.8481 280.223 27.9263 278.718C31.9889 277.515 42.7522 276.106 47.626 275.552C45.7616 274.63 43.1141 270.346 42.0233 268.32L45.3579 265.443C42.0162 263.281 39.8173 262.576 39.1355 262.494C38.3056 259.738 37.8178 255.405 37.6777 253.582C37.5348 254.022 36.7531 255.401 34.7689 257.403C32.2887 259.905 31.7269 262.846 29.9088 264.847C28.0907 266.849 24.5612 271.86 22.3661 275.268Z" stroke="#2488D5"/>
<path d="M39.1735 262.351C32.6965 268.231 19.3256 280.423 17.657 282.148" stroke="#2488D5"/>
<path d="M45.2685 265.493L40.811 265.807C40.9072 266.386 41.2666 267.709 41.9339 268.37" stroke="#2488D5"/>
<path d="M40.8988 265.756C34.0635 270.535 19.7739 280.545 17.2983 282.355" stroke="#2488D5"/>
</svg>
