<svg width="68" height="49" viewBox="0 0 68 49" fill="none" xmlns="http://www.w3.org/2000/svg">
<path d="M45.9611 34.7174C45.9611 42.0603 40.7773 48.5888 27.7698 48.5888C15.6264 48.5888 9.57861 42.0603 9.57861 34.7174C9.57861 27.3745 17.7231 21.4219 27.7698 21.4219C37.8166 21.4219 45.9611 27.3745 45.9611 34.7174Z" fill="#F58F29"/>
<path d="M38.1829 30.8267C38.1829 30.9275 38.0869 30.5689 38.0869 30.4907C38.0869 30.0923 38.2163 29.6955 38.3749 29.3387C38.5173 29.0183 38.8763 28.6401 39.2389 28.6187C39.6088 28.597 39.8304 28.8083 40.1562 28.9014C40.4553 28.9869 40.8861 29.5416 41.0628 29.4827" stroke="#154193" stroke-width="1.5" stroke-linecap="round"/>
<path d="M42.9841 28.5226C42.5902 28.4734 42.6448 27.1901 42.7708 26.8907C42.9034 26.5758 43.1506 25.9414 43.6081 25.9414C44.2844 25.9414 44.9041 26.6229 44.9041 27.2747" stroke="#154193" stroke-width="1.5" stroke-linecap="round"/>
<path d="M44.7112 34.5701C44.5903 34.5852 44.6273 34.6454 44.7112 34.6874C45.0023 34.8329 45.3067 34.6318 45.5805 34.5168C46.0851 34.3048 46.4424 33.9553 46.6792 33.4555C46.8256 33.1463 47.1712 32.0669 47.6871 32.5542C48.4426 33.2676 48.9568 34.5976 48.0711 35.434C47.6498 35.832 47.5267 36.0347 48.1191 36.298C48.4939 36.4646 48.5233 37.1285 48.3804 37.45C48.2228 37.8047 47.8911 38.1193 47.4471 38.0206C47.0904 37.9413 46.8433 37.5847 46.5138 37.45C45.9197 37.2069 45.2432 37.3979 44.8072 37.8339" stroke="#154193" stroke-width="1.5" stroke-linecap="round"/>
<path d="M10.2492 34.6651C8.78809 34.6651 7.55577 33.5609 6.54803 32.5532C5.61844 31.6236 5.14529 30.3992 4.58545 29.2466C4.16361 28.3782 3.67072 27.5815 2.76152 27.1987C1.94019 26.8529 1.22559 27.4413 1.22559 28.2547C1.22559 29.2808 1.27237 30.2479 1.58824 31.2306C1.92359 32.2739 2.34532 33.0595 2.95351 33.9718C3.51982 34.8212 4.25636 35.5694 5.16142 36.009C5.42907 36.139 6.86943 36.9386 6.78802 37.305C6.66129 37.8753 5.78555 38.2046 5.54541 38.7449C5.42434 39.0173 5.03622 39.3981 4.82544 39.6089C4.55638 39.8779 4.42128 40.2839 4.25479 40.6168C3.9239 41.2786 4.06115 42.4348 4.24946 43.1127C4.43761 43.7901 4.53746 44.5763 4.9161 45.1713C6.48437 47.6357 8.07798 43.3881 8.47862 42.2434C9.07256 40.5465 9.29598 38.2787 11.2092 37.641" stroke="#154193" stroke-width="1.5" stroke-linecap="round"/>
<path d="M33.0793 22.2666C30.5829 21.5476 24.9669 19.3189 22.4744 16.1552C19.3587 12.2007 20.0178 21.7273 21.0963 22.7459" stroke="#154193" stroke-width="1.5" stroke-linecap="round"/>
<path d="M23.7404 36.0938C22.8554 36.8168 21.4519 38.3975 22.9178 38.936C24.7501 39.609 25.0494 38.7863 27.0687 38.1506C29.0881 37.5148 29.9108 38.2628 30.6961 37.4774C31.3244 36.8492 31.4067 36.2932 31.3693 36.0938" stroke="#154193" stroke-width="1.5" stroke-linecap="round"/>
<path d="M54.3927 21.8911C54.3818 22.0162 54.1609 22.129 54.0914 22.2333C53.9736 22.41 53.7812 22.8925 53.8603 23.1186C53.9787 23.4574 54.2047 23.8543 54.2569 24.2034C54.2769 24.3367 54.5881 24.869 54.7316 24.9463C55.0487 25.117 55.2964 25.5621 55.688 25.6337C56.26 25.7382 57.0799 26.0488 57.5833 25.566C58.0106 25.1562 58.6192 24.8786 59.0687 24.5009C59.5261 24.1165 59.5709 23.051 59.3301 22.56C59.0301 21.9486 58.7415 21.5938 58.2348 21.1502C57.661 20.648 56.5803 20.46 55.9152 20.8246C55.348 21.1355 54.7462 21.3531 54.4698 21.9626" stroke="#154193" stroke-linecap="round"/>
<path d="M55.3723 22.2287C55.2208 22.2535 55.3212 22.8076 55.3233 22.9004C55.3246 22.9566 55.2755 23.6032 55.2658 23.3492" stroke="#154193" stroke-linecap="round"/>
<path d="M56.6025 21.2891C56.6138 21.5863 56.6476 22.4782 56.6363 22.1809" stroke="#154193" stroke-linecap="round"/>
<path d="M57.4149 21.1055C57.251 21.3046 57.3624 21.7941 57.3912 22.0078C57.4107 22.153 57.4686 22.2956 57.4655 22.4433C57.4642 22.5049 57.3971 22.5203 57.4683 22.5176" stroke="#154193" stroke-linecap="round"/>
<path d="M61.1014 13.3291C60.8192 13.6719 61.026 14.5306 61.1444 14.9381C61.2875 15.4305 61.6099 15.7902 61.8945 16.1982C62.3608 16.8665 63.2851 17.1924 64.0651 17.1629C64.5029 17.1463 64.6661 17.1385 65.0031 16.8858C65.2444 16.7049 65.822 16.5109 65.963 16.241C66.1011 15.9764 66.4572 15.8022 66.579 15.4974C66.7158 15.1554 66.8042 14.8169 66.9252 14.4776C67.3497 13.2875 65.9177 11.2264 64.6618 11.1811C63.795 11.1498 63.089 11.1983 62.2839 11.5932C61.8715 11.7955 61.8393 12.2182 61.595 12.5409C61.4128 12.7817 61.1068 13.1289 61.024 13.4126" stroke="#154193" stroke-linecap="round"/>
<path d="M62.3888 13.2771C62.4012 13.6034 62.4403 14.9663 62.4528 14.9659" stroke="#154193" stroke-linecap="round"/>
<path d="M63.1322 11.6415C63.1485 12.0735 63.0845 12.5084 63.1005 12.9312" stroke="#154193" stroke-linecap="round"/>
<path d="M64.4289 11.8338C64.4199 11.8352 64.3786 12.9146 64.3168 13.1265" stroke="#154193" stroke-linecap="round"/>
<path d="M65.299 13.572C65.1301 13.5997 65.2157 14.8482 65.193 15.0256" stroke="#154193" stroke-linecap="round"/>
<path d="M55.1323 2.7945C55.0946 2.67917 54.1697 0.884006 54.1574 0.762193C54.1535 0.722566 54.2447 0.960564 54.3111 1.04248" stroke="#154193" stroke-linecap="round"/>
<path d="M54.1611 4.69428C54.1389 4.55841 53.3001 5.04056 53.2727 5.05376C53.0268 5.17238 52.7172 5.39269 52.4316 5.4035C52.3538 5.40645 52.1854 5.41261 52.2597 5.48154" stroke="#154193" stroke-linecap="round"/>
<path d="M55.9241 5.91364C55.8221 5.90479 55.8787 5.85837 55.9613 5.95196C56.299 6.33415 56.5833 6.8072 56.8446 7.24175C56.9673 7.44572 57.0556 7.68869 57.0733 7.92849C57.0822 8.0499 57.0793 8.08747 57.0739 7.94436" stroke="#154193" stroke-linecap="round"/>
<path d="M56.98 3.51323C56.8968 3.51638 57.0004 3.57603 57.026 3.57506C57.1306 3.5711 57.2618 3.45371 57.3373 3.40035C57.6777 3.15992 58.014 2.91599 58.3718 2.70155C58.4633 2.6467 58.607 2.59098 58.6907 2.51861" stroke="#154193" stroke-linecap="round"/>
</svg>
